<svg xmlns="http://www.w3.org/2000/svg" fill="none" viewBox="0 0 30 30"><path fill="currentColor" d="M15 8.333c.736 0 1.333.597 1.333 1.334V15a1.333 1.333 0 1 1-2.666 0V9.667c0-.737.597-1.334 1.333-1.334ZM15 19a1.333 1.333 0 1 0 0 2.667h.013a1.333 1.333 0 0 0 0-2.667H15Z"/><path fill="currentColor" d="M8.537.724c.25-.25.59-.39.943-.39h11.04c.354 0 .693.14.943.39l7.813 7.813c.25.25.39.59.39.943v11.04c0 .354-.14.693-.39.943l-7.813 7.813c-.25.25-.59.39-.943.39H9.48c-.354 0-.693-.14-.943-.39L.724 21.463c-.25-.25-.39-.59-.39-.943V9.48c0-.354.14-.693.39-.943L8.537.724ZM10.032 3 3 10.032v9.936L10.032 27h9.936L27 19.968v-9.936L19.968 3h-9.936Z"/></svg>