<svg width="181" height="353" viewBox="0 0 181 353" fill="none" xmlns="http://www.w3.org/2000/svg">
<g clip-path="url(#clip0_45_1531)">
<path d="M163.846 106.127C163.846 106.127 161.781 95.8053 165.043 98.0554C168.304 100.306 167.788 105.9 167.788 105.9C167.788 105.9 168.077 83.6671 176.748 88.0022C185.418 92.3373 174.477 113.166 167.603 110.71" fill="#478043"/>
<path d="M168.759 111.99C172.743 111.99 177.016 106.973 179.287 101.668C181.557 96.3627 182.197 89.6743 177.222 87.2177C176.482 86.7779 175.637 86.5459 174.776 86.5459C173.915 86.5459 173.07 86.7779 172.33 87.2177C169.316 89.0343 167.933 94.5048 167.313 99.1082C166.875 98.4276 166.315 97.833 165.662 97.3536C165.346 97.0848 164.957 96.9174 164.544 96.8732C164.132 96.829 163.716 96.91 163.35 97.1058C161.637 98.1999 162.153 102.803 162.855 106.457C162.91 106.727 163.068 106.964 163.295 107.118C163.523 107.273 163.802 107.332 164.073 107.283C164.205 107.256 164.332 107.203 164.444 107.127C164.556 107.051 164.653 106.954 164.728 106.841C164.802 106.728 164.854 106.601 164.88 106.468C164.906 106.335 164.905 106.198 164.878 106.065C164.331 103.754 164.178 101.367 164.424 99.0051C166.488 100.429 166.735 103.588 166.756 105.198C166.756 105.611 166.756 105.921 166.756 106.106C166.751 106.238 166.772 106.37 166.818 106.493C166.864 106.617 166.934 106.73 167.024 106.826C167.115 106.923 167.223 107 167.344 107.053C167.465 107.107 167.595 107.136 167.727 107.138C167.994 107.15 168.255 107.057 168.455 106.88C168.655 106.703 168.779 106.455 168.8 106.189C168.825 105.852 168.825 105.514 168.8 105.177C168.965 100.615 169.997 91.078 173.341 89.0343C173.789 88.792 174.292 88.6738 174.8 88.692C175.309 88.7101 175.803 88.8639 176.232 89.1375C179.968 90.9954 179.163 96.6929 177.326 100.987C174.869 106.808 170.555 110.916 167.912 110.008C167.785 109.959 167.649 109.936 167.513 109.941C167.377 109.946 167.243 109.978 167.12 110.036C166.996 110.094 166.886 110.176 166.795 110.278C166.704 110.379 166.635 110.498 166.591 110.627C166.505 110.887 166.523 111.171 166.643 111.418C166.762 111.664 166.973 111.855 167.231 111.948C167.735 112.046 168.251 112.06 168.759 111.99Z" fill="#173213"/>
<path d="M134.945 152.141C135.08 152.142 135.214 152.116 135.339 152.062C135.463 152.009 135.575 151.93 135.667 151.831C136.617 150.881 158.932 127.988 166.88 108.625C166.93 108.499 166.955 108.364 166.953 108.228C166.951 108.093 166.923 107.959 166.869 107.834C166.815 107.709 166.738 107.597 166.641 107.502C166.543 107.407 166.428 107.333 166.302 107.283C166.177 107.229 166.044 107.201 165.908 107.2C165.772 107.199 165.638 107.225 165.513 107.277C165.388 107.329 165.274 107.406 165.179 107.503C165.085 107.599 165.01 107.714 164.96 107.84C157.177 126.832 134.429 150.159 134.202 150.386C134.105 150.482 134.028 150.596 133.976 150.722C133.923 150.848 133.896 150.983 133.896 151.119C133.896 151.255 133.923 151.39 133.976 151.516C134.028 151.642 134.105 151.756 134.202 151.852C134.297 151.951 134.413 152.028 134.541 152.078C134.67 152.128 134.807 152.149 134.945 152.141Z" fill="#173213"/>
<path d="M107.531 344.35C111.35 344.35 115.045 343.896 115.788 342.286C116.18 341.336 115.788 340.325 114.549 339.272C109.822 335.143 104.847 338.26 102.721 340.572L100.202 283.68C100.181 283.409 100.059 283.157 99.8603 282.973C99.6612 282.79 99.4 282.688 99.129 282.689C98.9934 282.694 98.8601 282.726 98.7369 282.783C98.6137 282.84 98.5029 282.92 98.4108 283.02C98.3188 283.12 98.2475 283.237 98.2007 283.364C98.1539 283.491 98.1324 283.627 98.1379 283.762L100.76 343.173C100.774 343.423 100.878 343.658 101.052 343.837C101.227 344.015 101.461 344.124 101.709 344.144C103.402 344.226 105.466 344.35 107.531 344.35ZM109.595 339.292C110.958 339.315 112.265 339.837 113.27 340.758C113.868 341.274 113.93 341.522 113.93 341.543C113.393 342.141 108.996 342.43 104.021 342.162L104.166 342.038C105.56 340.465 107.502 339.483 109.595 339.292Z" fill="#173213"/>
<path d="M85.7726 21.1179C83.903 25.0568 80.991 28.4089 77.352 30.8106C73.7131 33.2123 69.4861 34.5721 65.1294 34.7425C49.6676 35.7334 45.9726 43.2476 45.9726 43.2476C45.9726 43.2476 45.2086 25.8866 65.1294 18.9092C68.5229 17.7481 72.1296 17.344 75.6959 17.7256C79.2622 18.1072 82.7016 19.2651 85.7726 21.1179Z" fill="#BCD5B9"/>
<path d="M46.0549 44.2798C46.2484 44.2802 46.438 44.2261 46.6023 44.1239C46.7665 44.0217 46.8989 43.8754 46.984 43.7017C46.984 43.7017 50.6998 36.7244 65.2739 35.7748C69.8033 35.5427 74.1866 34.0959 77.964 31.586C81.7415 29.0762 84.774 25.5958 86.743 21.5102C86.8334 21.2906 86.8437 21.0461 86.7719 20.8196C86.7002 20.5932 86.551 20.3992 86.3506 20.2717C83.1631 18.3203 79.583 17.099 75.8675 16.6957C72.1519 16.2923 68.3929 16.717 64.8609 17.939C44.4654 25.0815 45.0228 43.1032 45.0228 43.289C45.0329 43.5172 45.12 43.7353 45.27 43.9077C45.4199 44.0802 45.6239 44.1967 45.8486 44.2385L46.0549 44.2798ZM84.4513 21.5722C82.5871 25.1186 79.8217 28.1114 76.4334 30.2495C73.0451 32.3875 69.1534 33.5954 65.1499 33.7517C55.1793 34.3916 49.9152 37.6739 47.3142 40.1098C48.1192 34.9696 51.443 24.8545 65.563 19.9208C68.6542 18.8834 71.9251 18.491 75.174 18.7679C78.4228 19.0449 81.5803 19.9852 84.4513 21.5309V21.5722Z" fill="#173213"/>
<path d="M91.7798 36.3528C92.0535 36.4103 92.3388 36.3567 92.573 36.2038C92.8073 36.0509 92.9712 35.8113 93.0286 35.5375C93.0861 35.2638 93.0326 34.9783 92.8797 34.7441C92.7268 34.5099 92.4869 34.346 92.2132 34.2885C92.048 34.2885 84.2862 29.8709 86.8047 1.03226C86.8189 0.897711 86.8059 0.761686 86.7666 0.632224C86.7273 0.502762 86.6625 0.382492 86.5759 0.278552C86.4892 0.174613 86.3826 0.089076 86.2624 0.0270636C86.1421 -0.0349487 86.0107 -0.0721295 85.8758 -0.0824272C85.7413 -0.0966257 85.6051 -0.0836875 85.4757 -0.0443763C85.3462 -0.0050652 85.2261 0.0597659 85.1221 0.146382C85.0182 0.232999 84.9326 0.33961 84.8706 0.459861C84.8086 0.580112 84.7713 0.711638 84.761 0.846544C82.0567 31.8114 90.9541 35.94 91.367 36.1671C91.4884 36.2601 91.6296 36.3236 91.7798 36.3528Z" fill="#173213"/>
<path d="M117.852 282.296C117.852 282.296 80.3641 303.311 32.3892 271.975C-15.5857 240.638 -0.330223 172.681 25.0197 139.714C50.3696 106.746 46.0757 61.1454 67.1937 44.5482C88.3117 27.951 115.024 37.6946 115.024 37.6946L117.852 282.296Z" fill="#478043"/>
<path d="M85.8346 290.141C105.508 290.141 118.059 283.308 118.265 283.184C118.427 283.093 118.561 282.962 118.655 282.802C118.75 282.643 118.8 282.461 118.802 282.276L115.974 37.6946C115.967 37.4867 115.898 37.2856 115.777 37.1166C115.656 36.9476 115.487 36.8182 115.293 36.7449C115.024 36.7449 87.8164 27.0014 66.4712 43.7637C55.6129 52.31 51.4223 67.875 46.5504 85.8965C41.9057 103.216 36.6211 122.827 24.1112 139.094C8.79396 159.036 -4.21118 193.551 1.25928 225.796C2.66412 235.381 6.11379 244.553 11.3745 252.688C16.6353 260.823 23.5841 267.731 31.7494 272.945C52.3101 286.281 71.0747 290.141 85.8346 290.141ZM116.799 281.656C109.28 285.154 101.187 287.253 92.9154 287.849C79.0844 289.047 57.4502 287.106 32.9466 271.128C25.03 266.061 18.2939 259.353 13.1939 251.457C8.09395 243.561 4.74916 234.662 3.3856 225.362C-2.00229 193.799 10.7759 159.923 25.8248 140.333C38.5823 123.818 43.9289 103.918 48.5324 86.4126C53.1358 68.9071 57.4088 53.3834 67.7304 45.3738C86.3094 30.7584 109.657 37.1165 113.889 38.4377L116.799 281.656Z" fill="#173213"/>
<path d="M108.357 37.0961C130.238 34.8459 134.78 72.0037 134.367 120.247C133.954 168.49 167.149 194.563 158.107 236.283C149.065 278.003 111.556 298.501 68.3913 271.376C20.9118 241.609 57.4914 177.264 64.8404 157.838C72.1894 138.413 80.8804 94.4016 83.564 74.1712C86.2476 53.9409 89.1377 39.1397 108.357 37.0961Z" fill="#F4DE86"/>
<path d="M106.54 284.629C113.185 284.668 119.77 283.369 125.903 280.81C142.418 273.853 154.577 257.69 159.18 236.489C164.052 213.967 156.785 195.925 149.085 176.81C142.315 159.985 135.296 142.583 135.461 120.226C135.791 74.1919 131.332 49.4819 121.011 40.1099C119.314 38.5262 117.29 37.3353 115.082 36.6218C112.873 35.9083 110.535 35.6895 108.232 35.9812C87.3621 38.1901 85.0502 55.6129 82.6143 74.0267C79.7656 95.4544 71.0748 138.62 64.0354 157.467C63.1477 159.779 61.8471 162.793 60.3195 166.261C49.0483 191.982 25.5975 245.531 68.0194 272.161C80.9834 280.501 94.2158 284.629 106.54 284.629ZM110.276 38.0043C113.745 37.965 117.095 39.2665 119.628 41.6375C132.261 53.0945 133.624 89.6537 133.397 120.226C133.232 142.934 140.333 160.563 147.186 177.594C154.762 196.4 161.905 214.153 157.157 236.035C152.698 256.678 141.014 272.202 125.098 278.911C108.583 285.847 88.7039 282.854 69.0102 270.489C28.0953 244.788 51.0713 192.354 62.1155 167.149C63.6431 163.66 64.9644 160.625 65.852 158.272C73.0565 139.28 81.8092 95.888 84.658 74.3571C87.5068 52.8262 90.4998 40.0067 108.459 38.1075C109.062 38.0395 109.669 38.0118 110.276 38.0249V38.0043Z" fill="#173213"/>
<path opacity="0.7" d="M88.5389 104.414C80.239 104.414 73.5106 96.1047 73.5106 85.8553C73.5106 75.6058 80.239 67.297 88.5389 67.297C96.8388 67.297 103.567 75.6058 103.567 85.8553C103.567 96.1047 96.8388 104.414 88.5389 104.414Z" fill="white"/>
<path opacity="0.7" d="M128.029 104.414C119.73 104.414 113.001 96.1047 113.001 85.8553C113.001 75.6058 119.73 67.297 128.029 67.297C136.329 67.297 143.058 75.6058 143.058 85.8553C143.058 96.1047 136.329 104.414 128.029 104.414Z" fill="white"/>
<path d="M99.8514 168.243C93.163 177.862 73.1596 211.944 100.326 243.095C100.93 243.795 101.7 244.333 102.566 244.657C103.432 244.982 104.365 245.084 105.281 244.953C114.116 243.652 139.342 237.15 136.576 204.905C133.892 173.94 113.476 167.334 105.239 165.951C104.216 165.783 103.167 165.91 102.213 166.315C101.259 166.721 100.44 167.389 99.8514 168.243Z" fill="#5B3A1E"/>
<path d="M104.496 246.047C104.806 246.067 105.116 246.067 105.425 246.047C113.682 244.85 140.519 238.306 137.587 204.884C134.863 173.3 114.178 166.488 105.404 165.022C104.189 164.824 102.943 164.975 101.81 165.457C100.677 165.939 99.7044 166.734 99.0051 167.747C92.1516 177.594 71.9418 212.192 99.5419 243.859C100.167 244.552 100.932 245.105 101.785 245.482C102.639 245.859 103.563 246.052 104.496 246.047ZM104.352 166.921H105.074C113.332 168.304 132.943 174.786 135.544 204.946C138.186 235.705 115.169 242.434 105.136 243.879C104.392 243.992 103.632 243.912 102.928 243.648C102.223 243.385 101.598 242.946 101.111 242.372C74.481 211.841 94.0506 178.378 100.698 168.8C101.115 168.223 101.665 167.755 102.301 167.435C102.937 167.116 103.64 166.953 104.352 166.963V166.921Z" fill="#173213"/>
<path d="M125.841 91.5527C126.113 91.5367 126.368 91.4161 126.553 91.2159C126.738 91.0157 126.838 90.7517 126.832 90.4793C126.708 87.3829 126.068 80.1577 122.703 80.1577C118.905 80.1577 118.905 87.1351 118.905 90.4793C118.905 90.7531 119.014 91.0155 119.208 91.2091C119.401 91.4027 119.664 91.5115 119.937 91.5115C120.209 91.5062 120.469 91.3957 120.661 91.2033C120.854 91.0109 120.964 90.7514 120.969 90.4793C120.969 83.2955 122.063 82.222 122.703 82.222C123.343 82.222 124.644 85.9172 124.768 90.4793C124.762 90.6219 124.786 90.764 124.838 90.8969C124.889 91.0298 124.968 91.1505 125.069 91.2513C125.17 91.3522 125.291 91.431 125.424 91.4829C125.557 91.5348 125.699 91.5585 125.841 91.5527Z" fill="#173213"/>
<path d="M89.2821 93.5759H89.4058C89.5418 93.5606 89.6734 93.5184 89.7929 93.4518C89.9124 93.3852 90.0173 93.2955 90.1018 93.1879C90.1864 93.0804 90.2486 92.9571 90.285 92.8252C90.3215 92.6934 90.3316 92.5556 90.3143 92.4199C90.0459 90.2317 90.0251 86.2269 91.1605 84.9057C91.2502 84.7855 91.365 84.6863 91.4969 84.615C91.6288 84.5437 91.7746 84.502 91.9243 84.4928C92.0917 84.4857 92.2589 84.5132 92.4151 84.5736C92.5714 84.634 92.7136 84.7259 92.8327 84.8437C94.0919 86.041 94.5667 89.7568 94.5667 91.8211C94.5667 92.0949 94.6755 92.3575 94.869 92.551C95.0626 92.7446 95.3251 92.8533 95.5988 92.8533C95.8709 92.848 96.1304 92.7377 96.3228 92.5452C96.5152 92.3528 96.6257 92.0932 96.631 91.8211C96.631 91.1812 96.6309 85.6282 94.257 83.3575C93.9451 83.0454 93.5717 82.8017 93.1605 82.6418C92.7493 82.4819 92.3093 82.4093 91.8686 82.4287C91.4278 82.4482 90.9958 82.5591 90.6003 82.7546C90.2047 82.95 89.8544 83.2256 89.5712 83.5638C87.5068 86.041 88.1674 92.007 88.2706 92.6882C88.301 92.9345 88.4208 93.161 88.6073 93.3247C88.7938 93.4883 89.034 93.5778 89.2821 93.5759Z" fill="#173213"/>
<path d="M88.539 105.466C97.3949 105.466 104.599 96.6722 104.599 85.8758C104.599 75.0794 97.3949 66.2854 88.539 66.2854C79.683 66.2854 72.4785 75.0794 72.4785 85.8758C72.4785 96.6722 79.683 105.466 88.539 105.466ZM88.539 68.3085C96.2596 68.3085 102.535 76.1736 102.535 85.8346C102.535 95.4957 96.3421 103.361 88.539 103.361C80.7358 103.361 74.5428 95.4957 74.5428 85.8346C74.5428 76.1736 80.8184 68.3497 88.539 68.3497V68.3085Z" fill="#173213"/>
<path d="M128.03 105.466C136.885 105.466 144.09 96.6722 144.09 85.8758C144.09 75.0794 136.885 66.2854 128.03 66.2854C119.174 66.2854 111.948 75.0794 111.948 85.8758C111.948 96.6722 119.153 105.466 128.03 105.466ZM128.03 68.3085C135.75 68.3085 142.025 76.1736 142.025 85.8346C142.025 95.4957 135.833 103.361 128.03 103.361C120.226 103.361 114.013 95.4957 114.013 85.8346C114.013 76.1736 120.309 68.3497 128.03 68.3497V68.3085Z" fill="#173213"/>
<path d="M112.981 86.908C113.144 86.9096 113.306 86.8732 113.453 86.8016C113.6 86.7299 113.728 86.6251 113.827 86.4953C113.984 86.2719 114.048 85.9964 114.005 85.7268C113.963 85.4572 113.818 85.2147 113.6 85.0502C112.028 84.0046 110.182 83.4468 108.295 83.4468C106.407 83.4468 104.561 84.0046 102.989 85.0502C102.769 85.2118 102.619 85.4512 102.569 85.7196C102.519 85.9881 102.574 86.2654 102.721 86.4953C102.876 86.7182 103.111 86.8713 103.378 86.9215C103.644 86.9717 103.92 86.915 104.145 86.7636C105.371 85.9574 106.807 85.5277 108.274 85.5277C109.741 85.5277 111.177 85.9574 112.403 86.7636C112.575 86.8726 112.777 86.9231 112.981 86.908Z" fill="#173213"/>
<path d="M73.2629 89.0343H73.5726C73.7081 89.0262 73.8405 88.9914 73.9626 88.932C74.0848 88.8726 74.1941 88.7898 74.2842 88.6882C74.3743 88.5866 74.4434 88.4683 74.4878 88.34C74.5322 88.2116 74.5509 88.0757 74.5427 87.9402C74.5346 87.8046 74.4998 87.6721 74.4404 87.55C74.381 87.4278 74.2981 87.3186 74.1965 87.2285C74.0949 87.1384 73.9766 87.0692 73.8482 87.0248C73.7199 86.9804 73.5841 86.9619 73.4486 86.97C71.8439 86.9831 70.259 86.6158 68.8238 85.8981C67.3885 85.1805 66.1436 84.1329 65.1913 82.8413C65.1113 82.7316 65.0106 82.6386 64.8947 82.5678C64.7788 82.497 64.6501 82.4497 64.5159 82.4286C64.3818 82.4075 64.2445 82.413 64.1125 82.4448C63.9805 82.4767 63.8561 82.5343 63.7464 82.6143C63.6366 82.6943 63.5435 82.795 63.4727 82.9109C63.4019 83.0268 63.3544 83.1556 63.3333 83.2898C63.3123 83.424 63.3178 83.5609 63.3497 83.693C63.3816 83.825 63.4393 83.9496 63.5193 84.0594C64.654 85.5793 66.1227 86.8183 67.812 87.6809C69.5014 88.5434 71.3662 89.0065 73.2629 89.0343Z" fill="#173213"/>
<path d="M103.567 97.6218L112.981 99.7895C112.981 99.7895 109.925 110.111 105.095 107.882C100.264 105.652 104.145 98.5715 104.145 98.5715" fill="white"/>
<path d="M106.457 109.162C107.05 109.155 107.634 109.022 108.171 108.769C111.763 107.159 113.765 100.719 113.971 99.996C114.028 99.8693 114.057 99.7321 114.057 99.5935C114.057 99.4548 114.028 99.3176 113.971 99.1909C113.9 99.0681 113.805 98.9609 113.692 98.8758C113.578 98.7906 113.449 98.7293 113.311 98.6955L103.877 96.6312C103.747 96.5977 103.611 96.5911 103.478 96.6117C103.345 96.6324 103.218 96.6799 103.104 96.7514C102.99 96.8228 102.892 96.9168 102.815 97.0274C102.739 97.1381 102.685 97.2631 102.659 97.3949C102.605 97.6049 102.62 97.8265 102.702 98.0272C102.784 98.2279 102.928 98.3971 103.113 98.5098C101.9 100.749 101.513 103.343 102.019 105.838C102.236 106.501 102.591 107.111 103.06 107.627C103.53 108.143 104.104 108.554 104.744 108.831C105.286 109.058 105.869 109.17 106.457 109.162ZM111.639 100.45C110.875 102.515 109.265 106.024 107.324 106.891C107.044 107.026 106.737 107.096 106.426 107.096C106.115 107.096 105.808 107.026 105.528 106.891C105.149 106.729 104.808 106.489 104.527 106.186C104.246 105.884 104.032 105.526 103.897 105.136C103.557 103 103.965 100.812 105.054 98.9432L111.639 100.45Z" fill="#173213"/>
<path d="M81.6647 86.1649C81.8308 86.1694 81.9954 86.132 82.1433 86.0562C82.2912 85.9805 82.4178 85.8689 82.5112 85.7314L89.9633 75.1414C90.0564 75.0327 90.1258 74.9058 90.1672 74.7689C90.2086 74.6319 90.2212 74.4879 90.204 74.3459C90.1868 74.2038 90.1401 74.0669 90.0672 73.9438C89.9942 73.8207 89.8965 73.7142 89.7802 73.6309C89.6638 73.5476 89.5316 73.4893 89.3916 73.4599C89.2516 73.4305 89.107 73.4306 88.967 73.46C88.827 73.4895 88.6945 73.5476 88.5781 73.631C88.4618 73.7143 88.3643 73.821 88.2914 73.9441L80.8185 84.5341C80.666 84.7624 80.6086 85.0412 80.6588 85.3111C80.7089 85.581 80.8623 85.8208 81.0867 85.9791C81.2545 86.1013 81.4571 86.1664 81.6647 86.1649Z" fill="white"/>
<path d="M82.0776 80.261C82.2434 80.2636 82.4073 80.2254 82.5549 80.1498C82.7025 80.0743 82.8291 79.9635 82.9238 79.8274L86.2474 75.1208C86.326 75.0097 86.3821 74.8842 86.4122 74.7514C86.4423 74.6186 86.446 74.4811 86.423 74.347C86.3765 74.076 86.2241 73.8345 85.9996 73.6758C85.7752 73.517 85.497 73.4539 85.226 73.5004C84.955 73.5468 84.7135 73.699 84.5547 73.9235L81.2312 78.6507C81.0777 78.8733 81.0175 79.1473 81.0639 79.4136C81.1102 79.68 81.2593 79.9175 81.4789 80.0751C81.6555 80.1952 81.864 80.26 82.0776 80.261Z" fill="white"/>
<path d="M133.747 89.9014C133.909 89.899 134.069 89.8585 134.212 89.7832C134.356 89.7079 134.479 89.6 134.573 89.468L139.383 82.6351C139.469 82.5244 139.531 82.3973 139.566 82.2617C139.602 82.1262 139.609 81.9849 139.588 81.8464C139.566 81.708 139.517 81.5752 139.443 81.4564C139.369 81.3375 139.272 81.235 139.156 81.1551C139.041 81.0752 138.911 81.0195 138.774 80.9914C138.637 80.9634 138.496 80.9634 138.358 80.9918C138.221 81.0202 138.091 81.0762 137.976 81.1564C137.862 81.2366 137.764 81.3394 137.69 81.4584L132.901 88.2706C132.822 88.3816 132.766 88.507 132.735 88.6399C132.705 88.7728 132.701 88.9104 132.724 89.0447C132.747 89.1791 132.796 89.3076 132.869 89.4227C132.942 89.5379 133.037 89.6375 133.149 89.7157C133.326 89.8358 133.534 89.9004 133.747 89.9014Z" fill="white"/>
<path d="M133.376 95.5371C133.542 95.5398 133.706 95.5016 133.853 95.426C134.001 95.3504 134.128 95.2397 134.222 95.1036L140.291 86.4747C140.37 86.3636 140.426 86.2381 140.456 86.1053C140.486 85.9725 140.49 85.835 140.467 85.7008C140.444 85.5667 140.395 85.4384 140.322 85.3232C140.249 85.2081 140.155 85.1083 140.044 85.0297C139.933 84.951 139.807 84.8951 139.674 84.865C139.542 84.8349 139.404 84.8313 139.27 84.8543C139.136 84.8773 139.007 84.9264 138.892 84.999C138.777 85.0716 138.677 85.1662 138.599 85.2774L132.53 93.9062C132.45 94.0172 132.394 94.1428 132.363 94.2757C132.333 94.4085 132.329 94.546 132.352 94.6804C132.375 94.8147 132.425 94.9432 132.498 95.0583C132.571 95.1735 132.666 95.2731 132.777 95.3513C132.954 95.4714 133.162 95.5361 133.376 95.5371Z" fill="white"/>
<path d="M105.281 242.765H105.466C128.174 239.049 134.367 217.993 134.367 217.848C134.403 217.713 134.413 217.571 134.395 217.432C134.377 217.293 134.331 217.159 134.261 217.037C134.192 216.915 134.098 216.808 133.987 216.723C133.876 216.637 133.749 216.574 133.613 216.537C133.478 216.501 133.336 216.491 133.197 216.509C133.058 216.527 132.924 216.573 132.802 216.643C132.68 216.713 132.573 216.806 132.488 216.917C132.402 217.028 132.339 217.155 132.302 217.291C132.302 217.497 126.481 237.232 105.033 240.742C104.759 240.764 104.505 240.893 104.327 241.102C104.149 241.311 104.061 241.583 104.083 241.856C104.105 242.13 104.235 242.384 104.444 242.562C104.653 242.74 104.924 242.828 105.198 242.806L105.281 242.765Z" fill="#432915"/>
<path d="M92.9153 192.767C93.1772 192.762 93.428 192.661 93.6189 192.481C93.8097 192.302 93.927 192.058 93.9475 191.797C94.5461 183.023 100.14 174.436 102.927 171.153C104.847 168.924 106.271 169.77 106.436 169.873C106.662 170.025 106.937 170.081 107.204 170.031C107.47 169.981 107.706 169.828 107.861 169.605C108.013 169.386 108.073 169.115 108.026 168.852C107.98 168.589 107.832 168.355 107.613 168.201C106.581 167.437 103.939 166.818 101.42 169.811C98.427 173.3 92.5848 182.362 91.9449 191.673C91.9336 191.807 91.9496 191.943 91.9915 192.071C92.0334 192.199 92.1006 192.318 92.1891 192.42C92.2776 192.522 92.3857 192.605 92.5068 192.665C92.628 192.724 92.7599 192.759 92.8946 192.767H92.9153Z" fill="white"/>
<path d="M27.8271 217.353C27.8271 217.353 37.3849 221.791 33.6691 223.05C29.9533 224.31 25.6802 220.676 25.6802 220.676C25.6802 220.676 43.5365 233.95 34.9283 238.43C26.3201 242.909 15.8747 221.915 21.8612 217.786" fill="#478043"/>
<path d="M32.41 240.102C33.4549 240.094 34.4824 239.831 35.4034 239.338C36.199 239.001 36.8879 238.454 37.3969 237.756C37.9059 237.058 38.2158 236.235 38.2932 235.374C38.5822 231.865 34.9697 227.55 31.6048 224.33C32.4157 224.389 33.2302 224.284 33.9995 224.021C35.3001 223.587 35.5271 222.761 35.5478 222.307C35.6716 220.243 31.6461 217.993 28.2606 216.424C28.1375 216.365 28.0038 216.331 27.8673 216.323C27.7308 216.316 27.5943 216.336 27.4656 216.382C27.3369 216.428 27.2188 216.5 27.1179 216.592C27.0169 216.684 26.9353 216.795 26.8777 216.919C26.7705 217.172 26.7641 217.456 26.8601 217.714C26.9561 217.971 27.1472 218.182 27.3938 218.302C29.5862 219.209 31.6098 220.48 33.3801 222.059C32.2927 222.248 31.1776 222.202 30.1095 221.924C29.0414 221.646 28.045 221.144 27.1872 220.449L26.3616 219.809C26.1463 219.666 25.885 219.609 25.6296 219.649C25.3742 219.69 25.1431 219.824 24.9822 220.027C24.8213 220.229 24.7423 220.484 24.7607 220.742C24.7791 221 24.8937 221.242 25.0818 221.419C25.0818 221.419 25.4118 221.708 25.8866 222.059C29.4785 224.867 36.6211 231.308 36.2082 235.188C36.1532 235.697 35.9582 236.181 35.6448 236.585C35.3314 236.99 34.9119 237.3 34.433 237.48C30.7378 239.4 26.6092 235.416 24.1113 231.431C20.8497 226.023 19.9827 220.119 22.336 218.509C22.455 218.435 22.5577 218.338 22.6379 218.223C22.7181 218.108 22.7741 217.978 22.8025 217.841C22.8309 217.704 22.8311 217.562 22.803 217.425C22.7749 217.288 22.7191 217.158 22.6392 217.043C22.5592 216.928 22.4569 216.83 22.3381 216.756C22.2192 216.682 22.0864 216.633 21.948 216.611C21.8095 216.59 21.6683 216.597 21.5327 216.633C21.3971 216.668 21.2702 216.73 21.1595 216.816C17.3611 219.458 18.9299 226.869 22.336 232.484C24.8545 236.489 28.5084 240.102 32.41 240.102Z" fill="#173213"/>
<path d="M65.0469 344.35C67.1112 344.35 69.1755 344.226 70.9095 344.061C71.1583 344.041 71.3916 343.932 71.5662 343.754C71.7408 343.576 71.8448 343.34 71.859 343.091L74.5014 283.679C74.5069 283.544 74.4857 283.409 74.4389 283.281C74.3921 283.154 74.3205 283.037 74.2285 282.937C74.1365 282.838 74.0256 282.757 73.9024 282.7C73.7792 282.643 73.6461 282.611 73.5106 282.606C73.2396 282.605 72.9784 282.707 72.7793 282.891C72.5802 283.074 72.4579 283.327 72.4371 283.597L69.9187 340.49C67.8543 338.178 62.8174 335.143 58.0901 339.189C56.8722 340.242 56.4385 341.254 56.8513 342.203C57.5325 343.896 61.2279 344.35 65.0469 344.35ZM68.6388 342.162C63.7876 342.43 59.4525 342.162 58.7506 341.419C58.7506 341.419 58.9569 341.15 59.4111 340.758C63.9113 336.898 68.329 341.832 68.5148 342.038L68.6388 342.162Z" fill="#173213"/>
<path d="M24.6066 217.105H24.8337C25.0982 217.046 25.3287 216.885 25.4755 216.657C25.6223 216.429 25.6735 216.152 25.6181 215.887C20.6844 194.17 24.0907 178.729 27.8271 169.749C29.907 164.276 33.0982 159.293 37.1992 155.113C37.296 155.017 37.3726 154.903 37.425 154.777C37.4774 154.652 37.5044 154.517 37.5044 154.381C37.5044 154.244 37.4774 154.109 37.425 153.984C37.3726 153.858 37.296 153.744 37.1992 153.648C37.0063 153.459 36.7467 153.353 36.4765 153.353C36.2063 153.353 35.947 153.459 35.7541 153.648C31.4306 157.992 28.0686 163.196 25.8865 168.924C22.0056 178.275 18.4552 194.108 23.5127 216.403C23.587 216.628 23.7362 216.82 23.9353 216.948C24.1345 217.076 24.3715 217.131 24.6066 217.105Z" fill="#173213"/>
<path d="M25.4945 263.036C25.7681 263.036 26.0354 262.955 26.2629 262.803C26.4903 262.651 26.6677 262.435 26.7724 262.183C26.8771 261.93 26.9044 261.652 26.851 261.383C26.7977 261.115 26.666 260.869 26.4725 260.675C26.2791 260.482 26.0327 260.35 25.7644 260.297C25.4961 260.243 25.2181 260.271 24.9654 260.375C24.7126 260.48 24.4964 260.657 24.3445 260.885C24.1925 261.112 24.1114 261.38 24.1114 261.653C24.1114 262.02 24.2572 262.372 24.5166 262.631C24.7759 262.891 25.1277 263.036 25.4945 263.036Z" fill="#173213"/>
<path d="M37.3437 203.295C37.6173 203.295 37.8846 203.214 38.1121 203.062C38.3395 202.91 38.5169 202.694 38.6216 202.441C38.7263 202.188 38.7536 201.91 38.7002 201.642C38.6468 201.374 38.5151 201.127 38.3217 200.934C38.1283 200.74 37.8819 200.609 37.6136 200.555C37.3453 200.502 37.0673 200.529 36.8145 200.634C36.5618 200.738 36.3456 200.916 36.1936 201.143C36.0417 201.371 35.9605 201.638 35.9605 201.912C35.9605 202.278 36.1064 202.63 36.3657 202.89C36.6251 203.149 36.9769 203.295 37.3437 203.295Z" fill="#173213"/>
<path d="M14.244 248.318C14.6127 248.312 14.9644 248.162 15.2232 247.899C15.482 247.637 15.6269 247.283 15.6269 246.914C15.6269 246.732 15.5911 246.552 15.5216 246.385C15.4521 246.217 15.3504 246.064 15.2219 245.936C15.0935 245.807 14.9409 245.706 14.7731 245.636C14.6053 245.567 14.4256 245.531 14.244 245.531C13.8752 245.531 13.5211 245.676 13.2584 245.935C12.9957 246.193 12.8455 246.545 12.8401 246.914C12.8454 247.284 12.995 247.638 13.2572 247.901C13.5193 248.163 13.8733 248.312 14.244 248.318Z" fill="#173213"/>
<path d="M49.7296 173.465C50.0964 173.465 50.4482 173.319 50.7076 173.06C50.967 172.801 51.1128 172.449 51.1128 172.082C51.1128 171.715 50.967 171.363 50.7076 171.104C50.4482 170.845 50.0964 170.699 49.7296 170.699C49.3628 170.699 49.011 170.845 48.7516 171.104C48.4922 171.363 48.3464 171.715 48.3464 172.082C48.3464 172.449 48.4922 172.801 48.7516 173.06C49.011 173.319 49.3628 173.465 49.7296 173.465Z" fill="#173213"/>
<path d="M76.0497 28.7974C76.4166 28.7974 76.7683 28.6517 77.0277 28.3923C77.2871 28.1329 77.4329 27.7811 77.4329 27.4143C77.4329 27.0475 77.2871 26.6956 77.0277 26.4362C76.7683 26.1768 76.4166 26.0311 76.0497 26.0311C75.6829 26.0311 75.3311 26.1768 75.0717 26.4362C74.8124 26.6956 74.6665 27.0475 74.6665 27.4143C74.6665 27.7811 74.8124 28.1329 75.0717 28.3923C75.3311 28.6517 75.6829 28.7974 76.0497 28.7974Z" fill="#478043"/>
<path d="M79.3733 25.7422C79.742 25.7368 80.0937 25.5865 80.3525 25.3238C80.6113 25.0611 80.7565 24.7071 80.7565 24.3384C80.7565 23.9716 80.6106 23.6198 80.3513 23.3604C80.0919 23.101 79.7401 22.9553 79.3733 22.9553C79.0045 22.9553 78.6507 23.1003 78.388 23.3591C78.1253 23.6179 77.9751 23.9697 77.9697 24.3384C77.975 24.709 78.1246 25.0631 78.3867 25.3252C78.6488 25.5873 79.0026 25.7369 79.3733 25.7422Z" fill="#478043"/>
<path d="M38.2931 126.977C38.66 126.977 39.0117 126.831 39.2711 126.572C39.5305 126.312 39.6763 125.96 39.6763 125.594C39.6763 125.227 39.5305 124.875 39.2711 124.616C39.0117 124.356 38.66 124.21 38.2931 124.21C37.9263 124.21 37.5745 124.356 37.3152 124.616C37.0558 124.875 36.9102 125.227 36.9102 125.594C36.9102 125.96 37.0558 126.312 37.3152 126.572C37.5745 126.831 37.9263 126.977 38.2931 126.977Z" fill="#BCD5B9"/>
<path d="M46.3442 121.692C46.6177 121.692 46.885 121.611 47.1125 121.459C47.3399 121.307 47.5173 121.091 47.622 120.838C47.7267 120.585 47.754 120.307 47.7006 120.039C47.6473 119.771 47.5156 119.524 47.3221 119.331C47.1287 119.137 46.8823 119.006 46.614 118.952C46.3457 118.899 46.0677 118.926 45.815 119.031C45.5622 119.136 45.346 119.313 45.1941 119.54C45.0421 119.768 44.961 120.035 44.961 120.309C44.961 120.676 45.1068 121.028 45.3662 121.287C45.6256 121.546 45.9773 121.692 46.3442 121.692Z" fill="#BCD5B9"/>
<path d="M18.5585 246.955C18.832 246.955 19.0993 246.874 19.3268 246.722C19.5542 246.57 19.7316 246.354 19.8363 246.101C19.941 245.849 19.9683 245.571 19.9149 245.302C19.8616 245.034 19.7299 244.788 19.5364 244.594C19.343 244.401 19.0966 244.269 18.8283 244.216C18.56 244.162 18.2817 244.19 18.029 244.294C17.7763 244.399 17.5603 244.576 17.4084 244.804C17.2564 245.031 17.1753 245.299 17.1753 245.572C17.1753 245.939 17.3211 246.291 17.5805 246.55C17.8398 246.809 18.1916 246.955 18.5585 246.955Z" fill="#173213"/>
<path d="M51.5669 179.163C51.8462 179.167 52.1204 179.087 52.3544 178.935C52.5883 178.782 52.7715 178.563 52.8803 178.306C52.9891 178.048 53.0187 177.765 52.9652 177.49C52.9117 177.216 52.7774 176.964 52.5799 176.767C52.3823 176.569 52.1304 176.435 51.8562 176.381C51.582 176.328 51.298 176.357 51.0407 176.466C50.7834 176.575 50.5644 176.758 50.4117 176.992C50.2591 177.226 50.1796 177.5 50.1837 177.78C50.1837 178.146 50.3295 178.498 50.5889 178.758C50.8483 179.017 51.2001 179.163 51.5669 179.163Z" fill="#173213"/>
<path d="M43.681 115.355C44.0497 115.349 44.4017 115.199 44.6605 114.936C44.9193 114.673 45.0642 114.32 45.0642 113.951C45.0642 113.584 44.9184 113.232 44.659 112.973C44.3996 112.713 44.0478 112.568 43.681 112.568C43.3142 112.568 42.9624 112.713 42.703 112.973C42.4437 113.232 42.2981 113.584 42.2981 113.951C42.298 114.32 42.443 114.673 42.7018 114.936C42.9606 115.199 43.3123 115.349 43.681 115.355Z" fill="#BCD5B9"/>
<path d="M41.9058 209.88C42.1794 209.88 42.447 209.799 42.6744 209.647C42.9019 209.495 43.079 209.279 43.1837 209.026C43.2884 208.773 43.3157 208.495 43.2623 208.227C43.2089 207.959 43.0772 207.712 42.8838 207.519C42.6904 207.325 42.444 207.194 42.1757 207.14C41.9074 207.087 41.6294 207.114 41.3766 207.219C41.1239 207.324 40.908 207.501 40.756 207.728C40.604 207.956 40.5229 208.223 40.5229 208.497C40.5229 208.864 40.6685 209.215 40.9279 209.475C41.1872 209.734 41.539 209.88 41.9058 209.88Z" fill="#173213"/>
<path d="M17.6706 253.664C18.0393 253.659 18.391 253.508 18.6498 253.246C18.9086 252.983 19.0538 252.629 19.0538 252.261C19.0538 251.894 18.9079 251.542 18.6486 251.283C18.3892 251.023 18.0374 250.877 17.6706 250.877C17.3038 250.877 16.952 251.023 16.6926 251.283C16.4332 251.542 16.2876 251.894 16.2876 252.261C16.2876 252.629 16.4325 252.983 16.6913 253.246C16.9501 253.508 17.3019 253.659 17.6706 253.664Z" fill="#173213"/>
<path d="M42.7935 202.737C43.0729 202.741 43.347 202.662 43.581 202.509C43.815 202.357 43.9981 202.138 44.1069 201.88C44.2157 201.623 44.2453 201.339 44.1918 201.065C44.1383 200.791 44.0041 200.539 43.8065 200.341C43.609 200.144 43.357 200.01 43.0828 199.956C42.8086 199.903 42.5247 199.932 42.2673 200.041C42.01 200.15 41.791 200.333 41.6384 200.567C41.4857 200.801 41.4062 201.075 41.4103 201.354C41.4103 201.721 41.5561 202.073 41.8155 202.332C42.0749 202.592 42.4267 202.737 42.7935 202.737Z" fill="#173213"/>
<path opacity="0.2" d="M86.4746 352.628C46.5826 352.628 14.2439 348.441 14.2439 343.277C14.2439 338.112 46.5826 333.925 86.4746 333.925C126.366 333.925 158.705 338.112 158.705 343.277C158.705 348.441 126.366 352.628 86.4746 352.628Z" fill="#478043"/>
</g>
<defs>
<clipPath id="clip0_45_1531">
<rect width="181" height="352.628" fill="white" transform="matrix(-1 0 0 1 181 0)"/>
</clipPath>
</defs>
</svg>
