<svg width="88" height="171" viewBox="0 0 88 171" fill="none" xmlns="http://www.w3.org/2000/svg">
<g clip-path="url(#clip0_112_3173)">
<path d="M8.30992 51.41C8.30992 51.41 9.30997 46.4099 7.72996 47.4999C6.14996 48.5899 6.40001 51.2999 6.40001 51.2999C6.40001 51.2999 6.25992 40.5299 2.05992 42.6299C-2.14008 44.7299 3.15997 54.8199 6.48997 53.6299" fill="#478043"/>
<path d="M5.92991 54.2502C3.99991 54.2502 1.92994 51.8202 0.829938 49.2502C-0.270062 46.6802 -0.580062 43.4402 1.82994 42.2502C2.1885 42.0372 2.59792 41.9248 3.015 41.9248C3.43207 41.9248 3.84137 42.0372 4.19993 42.2502C5.65993 43.1302 6.32999 45.7803 6.62999 48.0103C6.84264 47.6805 7.11369 47.3925 7.42991 47.1603C7.58294 47.0301 7.77164 46.949 7.97142 46.9276C8.17119 46.9061 8.37277 46.9454 8.54991 47.0402C9.37991 47.5702 9.1299 49.8003 8.7899 51.5703C8.76327 51.7008 8.68665 51.8157 8.5764 51.8904C8.46614 51.9652 8.33103 51.9939 8.19993 51.9703C8.13558 51.9572 8.07443 51.9315 8.02 51.8947C7.96557 51.858 7.91889 51.8108 7.88267 51.756C7.84646 51.7013 7.82143 51.6399 7.80894 51.5754C7.79646 51.5109 7.79677 51.4446 7.80992 51.3802C8.07466 50.2607 8.149 49.1045 8.02989 47.9603C7.02989 48.6503 6.91001 50.1803 6.90001 50.9603C6.90001 51.1603 6.90001 51.3103 6.90001 51.4003C6.90268 51.4641 6.89252 51.5279 6.87022 51.5878C6.84793 51.6477 6.8139 51.7025 6.77012 51.7491C6.72634 51.7957 6.67363 51.8331 6.61522 51.859C6.5568 51.885 6.49382 51.899 6.42991 51.9003C6.30054 51.9059 6.17412 51.861 6.07713 51.7752C5.98014 51.6894 5.92013 51.5693 5.90989 51.4402C5.89771 51.2771 5.89771 51.1134 5.90989 50.9503C5.82989 48.7403 5.32994 44.1202 3.70994 43.1302C3.49336 43.0129 3.24934 42.9556 3.00316 42.9644C2.75697 42.9732 2.51757 43.0477 2.30992 43.1802C0.499918 44.0802 0.889889 46.8402 1.77989 48.9202C2.96989 51.7402 5.05995 53.7302 6.33995 53.2902C6.40156 53.2665 6.46733 53.2555 6.53331 53.2579C6.59928 53.2602 6.66409 53.2759 6.72386 53.3039C6.78363 53.3319 6.83708 53.3718 6.88109 53.421C6.92509 53.4702 6.95877 53.5278 6.97996 53.5903C7.02179 53.7163 7.01283 53.8537 6.95494 53.9732C6.89705 54.0927 6.79473 54.1849 6.6699 54.2302C6.42599 54.2773 6.17601 54.2841 5.92991 54.2502Z" fill="#173213"/>
<path d="M22.31 73.6998C22.2444 73.7006 22.1795 73.6877 22.1192 73.6619C22.0589 73.636 22.0047 73.5979 21.96 73.5498C21.5 73.0898 10.69 61.9998 6.84001 52.6198C6.81566 52.5588 6.8036 52.4935 6.80449 52.4278C6.80538 52.3621 6.81925 52.2971 6.84526 52.2368C6.87127 52.1764 6.90883 52.1217 6.95598 52.0759C7.00313 52.0301 7.05894 51.9941 7.12004 51.9699C7.18032 51.9438 7.24519 51.9302 7.31084 51.9297C7.37649 51.9292 7.44161 51.942 7.50224 51.9672C7.56287 51.9924 7.61773 52.0295 7.66374 52.0763C7.70975 52.1231 7.74597 52.1787 7.77007 52.2398C11.5401 61.4398 22.56 72.7398 22.67 72.8498C22.7168 72.8963 22.7541 72.9516 22.7795 73.0125C22.8048 73.0735 22.8179 73.1388 22.8179 73.2048C22.8179 73.2709 22.8048 73.3362 22.7795 73.3971C22.7541 73.458 22.7168 73.5133 22.67 73.5598C22.6237 73.6079 22.5676 73.6453 22.5054 73.6694C22.4433 73.6936 22.3766 73.704 22.31 73.6998Z" fill="#173213"/>
<path d="M35.5901 166.81C33.7401 166.81 31.9501 166.59 31.5901 165.81C31.4001 165.35 31.5901 164.86 32.1901 164.35C34.4801 162.35 36.89 163.86 37.92 164.98L39.1401 137.42C39.1502 137.29 39.2093 137.167 39.3058 137.078C39.4022 136.989 39.5288 136.94 39.66 136.94C39.7257 136.943 39.7903 136.958 39.85 136.986C39.9096 137.014 39.9633 137.053 40.0079 137.101C40.0525 137.149 40.0871 137.206 40.1097 137.268C40.1324 137.329 40.1428 137.395 40.1401 137.46L38.8701 166.24C38.8632 166.361 38.8128 166.475 38.7283 166.562C38.6437 166.648 38.5306 166.701 38.41 166.71C37.59 166.75 36.5901 166.81 35.5901 166.81ZM34.5901 164.36C33.9299 164.371 33.2966 164.624 32.81 165.07C32.52 165.32 32.4901 165.44 32.4901 165.45C32.7501 165.74 34.88 165.88 37.29 165.75L37.2201 165.69C36.5446 164.929 35.6041 164.453 34.5901 164.36Z" fill="#173213"/>
<path d="M46.1301 10.2304C47.0358 12.1385 48.4464 13.7623 50.2092 14.9257C51.972 16.0891 54.0196 16.7478 56.1301 16.8304C63.6201 17.3104 65.41 20.9504 65.41 20.9504C65.41 20.9504 65.7801 12.5404 56.1301 9.16043C54.4862 8.59795 52.7391 8.40222 51.0115 8.58707C49.2839 8.77192 47.6178 9.33282 46.1301 10.2304Z" fill="#BCD5B9"/>
<path d="M65.37 21.4495C65.2763 21.4497 65.1845 21.4235 65.1049 21.374C65.0253 21.3245 64.9612 21.2536 64.92 21.1695C64.92 21.1695 63.12 17.7895 56.06 17.3295C53.8659 17.2171 51.7425 16.5162 49.9126 15.3004C48.0828 14.0846 46.6138 12.3986 45.66 10.4195C45.6161 10.3131 45.6112 10.1947 45.6459 10.085C45.6807 9.97526 45.7529 9.8813 45.85 9.81952C47.3941 8.87421 49.1284 8.2826 50.9283 8.08722C52.7282 7.89184 54.5491 8.09754 56.2601 8.68952C66.1401 12.1495 65.87 20.8795 65.87 20.9695C65.8651 21.0801 65.8229 21.1858 65.7503 21.2693C65.6777 21.3528 65.5788 21.4093 65.47 21.4295L65.37 21.4495ZM46.7701 10.4495C47.6731 12.1675 49.0127 13.6172 50.6541 14.653C52.2955 15.6887 54.1807 16.2738 56.12 16.3495C60.95 16.6595 63.5001 18.2495 64.7601 19.4295C64.3701 16.9395 62.76 12.0395 55.92 9.64954C54.4225 9.14699 52.838 8.95691 51.2642 9.09107C49.6904 9.22523 48.1608 9.68075 46.7701 10.4295V10.4495Z" fill="#173213"/>
<path d="M43.2201 17.6097C43.0875 17.6375 42.9493 17.6116 42.8359 17.5375C42.7224 17.4634 42.643 17.3474 42.6152 17.2147C42.5873 17.0821 42.6132 16.9439 42.6873 16.8304C42.7614 16.7169 42.8776 16.6375 43.0102 16.6097C43.0902 16.6097 46.8502 14.4697 45.6302 0.499715C45.6233 0.434535 45.6296 0.368642 45.6486 0.305928C45.6677 0.243214 45.6991 0.184953 45.741 0.134603C45.783 0.0842523 45.8346 0.0428165 45.8929 0.0127765C45.9511 -0.0172635 46.0148 -0.0352746 46.0801 -0.040263C46.1453 -0.0471411 46.2113 -0.0408735 46.274 -0.0218304C46.3367 -0.00278734 46.3949 0.0286181 46.4452 0.0705768C46.4956 0.112535 46.537 0.16418 46.5671 0.222432C46.5971 0.280684 46.6152 0.344398 46.6202 0.409749C47.9302 15.4097 43.6201 17.4097 43.4201 17.5197C43.3613 17.5648 43.2929 17.5955 43.2201 17.6097Z" fill="#173213"/>
<path d="M30.5901 136.75C30.5901 136.75 48.7501 146.93 71.9901 131.75C95.2301 116.57 87.8401 83.6504 75.5601 67.6804C63.2801 51.7104 65.3601 29.6204 55.1301 21.5804C44.9001 13.5404 31.9601 18.2604 31.9601 18.2604L30.5901 136.75Z" fill="#478043"/>
<path d="M46.1001 140.55C36.5701 140.55 30.4901 137.24 30.3901 137.18C30.3119 137.136 30.2467 137.072 30.201 136.995C30.1554 136.917 30.1309 136.829 30.1301 136.74L31.5001 18.2596C31.5035 18.1589 31.5367 18.0615 31.5955 17.9797C31.6542 17.8978 31.7358 17.8351 31.8301 17.7996C31.9601 17.7996 45.1401 13.0796 55.4801 21.1996C60.7401 25.3396 62.7701 32.8796 65.1301 41.6096C67.3801 49.9996 69.9401 59.4996 76.0001 67.3796C83.4201 77.0396 89.7201 93.7596 87.0701 109.38C86.3895 114.023 84.7184 118.466 82.17 122.407C79.6216 126.347 76.2555 129.694 72.3 132.22C62.34 138.68 53.2501 140.55 46.1001 140.55ZM31.1001 136.44C34.7425 138.134 38.6632 139.151 42.67 139.44C49.37 140.02 59.8501 139.08 71.7201 131.34C75.5551 128.885 78.8182 125.635 81.2887 121.81C83.7592 117.986 85.3795 113.675 86.04 109.17C88.65 93.8796 82.46 77.4696 75.17 67.9796C68.99 59.9796 66.4 50.3396 64.17 41.8596C61.94 33.3796 59.8701 25.8596 54.8701 21.9796C45.8701 14.8996 34.5601 17.9796 32.5101 18.6196L31.1001 136.44Z" fill="#173213"/>
<path d="M35.1899 17.9699C24.5899 16.8799 22.3899 34.8798 22.5899 58.2498C22.7899 81.6198 6.70991 94.2498 11.0899 114.46C15.4699 134.67 33.6399 144.6 54.5499 131.46C77.5499 117.04 59.83 85.8698 56.27 76.4598C52.71 67.0498 48.4999 45.7298 47.1999 35.9298C45.8999 26.1298 44.4999 18.9599 35.1899 17.9699Z" fill="#F4DE86"/>
<path d="M36.07 137.88C32.8509 137.899 29.6609 137.269 26.69 136.03C18.69 132.66 12.8 124.83 10.57 114.56C8.20998 103.65 11.73 94.9099 15.46 85.6499C18.74 77.4999 22.14 69.0699 22.06 58.2399C21.9 35.9399 24.06 23.9699 29.06 19.4299C29.8818 18.6627 30.8624 18.0858 31.9322 17.7402C33.0019 17.3945 34.1347 17.2886 35.25 17.4299C45.36 18.4999 46.4799 26.9399 47.6599 35.8599C49.0399 46.2399 53.2499 67.1499 56.6599 76.2799C57.0899 77.3999 57.72 78.8599 58.46 80.5399C63.92 92.9999 75.28 118.94 54.73 131.84C48.45 135.88 42.04 137.88 36.07 137.88ZM34.26 18.4099C32.5797 18.3909 30.9568 19.0213 29.73 20.1699C23.61 25.7199 22.95 43.4299 23.06 58.2399C23.14 69.2399 19.7 77.7799 16.38 86.0299C12.71 95.1399 9.24996 103.74 11.55 114.34C13.71 124.34 19.37 131.86 27.08 135.11C35.08 138.47 44.71 137.02 54.25 131.03C74.07 118.58 62.94 93.1799 57.59 80.9699C56.85 79.2799 56.2099 77.8099 55.7799 76.6699C52.2899 67.4699 48.05 46.4499 46.67 36.0199C45.29 25.5899 43.84 19.3799 35.14 18.4599C34.8479 18.4269 34.5539 18.4135 34.26 18.4199V18.4099Z" fill="#173213"/>
<path opacity="0.7" d="M44.79 50.5796C48.8106 50.5796 52.07 46.5547 52.07 41.5896C52.07 36.6246 48.8106 32.5996 44.79 32.5996C40.7694 32.5996 37.51 36.6246 37.51 41.5896C37.51 46.5547 40.7694 50.5796 44.79 50.5796Z" fill="white"/>
<path opacity="0.7" d="M25.6599 50.5796C29.6805 50.5796 32.9399 46.5547 32.9399 41.5896C32.9399 36.6246 29.6805 32.5996 25.6599 32.5996C21.6393 32.5996 18.3799 36.6246 18.3799 41.5896C18.3799 46.5547 21.6393 50.5796 25.6599 50.5796Z" fill="white"/>
<path d="M39.31 81.5004C42.55 86.1604 52.24 102.67 39.08 117.76C38.7875 118.1 38.4144 118.36 37.995 118.517C37.5756 118.675 37.1234 118.724 36.68 118.66C32.4 118.03 20.18 114.88 21.52 99.2604C22.82 84.2604 32.71 81.0604 36.7 80.3904C37.1955 80.3091 37.704 80.3703 38.166 80.5669C38.6281 80.7634 39.0248 81.0871 39.31 81.5004Z" fill="#5B3A1E"/>
<path d="M37.06 119.19C36.9102 119.199 36.7599 119.199 36.6101 119.19C32.6101 118.61 19.61 115.44 21.03 99.2495C22.35 83.9495 32.3701 80.6495 36.6201 79.9395C37.2087 79.8435 37.8126 79.9166 38.3614 80.1502C38.9102 80.3839 39.3813 80.7686 39.72 81.2596C43.04 86.0296 52.83 102.79 39.46 118.13C39.1572 118.465 38.7868 118.733 38.3732 118.916C37.9596 119.099 37.5121 119.192 37.06 119.19ZM37.1301 80.8595H36.78C32.78 81.5295 23.2801 84.6696 22.0201 99.2796C20.7401 114.18 31.8901 117.44 36.7501 118.14C37.1104 118.194 37.4785 118.155 37.8198 118.028C38.161 117.9 38.464 117.687 38.7 117.41C51.6 102.62 42.1201 86.4096 38.9001 81.7696C38.698 81.4902 38.4317 81.2635 38.1236 81.1086C37.8155 80.9537 37.4748 80.8751 37.1301 80.8796V80.8595Z" fill="#173213"/>
<path d="M26.7201 44.35C26.5883 44.3423 26.4647 44.2839 26.3752 44.1869C26.2857 44.0899 26.2373 43.962 26.2401 43.8301C26.3001 42.3301 26.6101 38.8301 28.2401 38.8301C30.0801 38.8301 30.0801 42.2101 30.0801 43.8301C30.0801 43.9627 30.0274 44.0898 29.9336 44.1836C29.8398 44.2774 29.7127 44.3301 29.5801 44.3301C29.4483 44.3275 29.3226 44.274 29.2294 44.1808C29.1361 44.0876 29.0826 43.9619 29.0801 43.8301C29.0801 40.3501 28.5501 39.8301 28.2401 39.8301C27.9301 39.8301 27.3001 41.6201 27.2401 43.8301C27.2429 43.8991 27.2314 43.968 27.2063 44.0323C27.1812 44.0967 27.143 44.1552 27.0941 44.204C27.0452 44.2529 26.9867 44.2911 26.9224 44.3162C26.858 44.3414 26.7891 44.3529 26.7201 44.35Z" fill="#173213"/>
<path d="M44.4301 45.3301H44.3701C44.3043 45.3227 44.2405 45.3022 44.1826 45.27C44.1247 45.2377 44.0739 45.1943 44.033 45.1422C43.992 45.0901 43.9619 45.0303 43.9442 44.9665C43.9266 44.9026 43.9217 44.8358 43.9301 44.7701C44.0601 43.7101 44.0701 41.7701 43.5201 41.1301C43.4767 41.0719 43.4211 41.0238 43.3572 40.9893C43.2933 40.9547 43.2226 40.9345 43.1501 40.9301C43.0691 40.9266 42.9881 40.94 42.9124 40.9692C42.8366 40.9985 42.7678 41.043 42.7101 41.1001C42.1001 41.6801 41.8701 43.4801 41.8701 44.4801C41.8701 44.6127 41.8174 44.7399 41.7236 44.8336C41.6299 44.9274 41.5027 44.9801 41.3701 44.9801C41.2383 44.9775 41.1126 44.9241 41.0194 44.8308C40.9262 44.7376 40.8727 44.6119 40.8701 44.4801C40.8701 44.1701 40.8701 41.4801 42.0201 40.3801C42.1712 40.2289 42.3521 40.1109 42.5513 40.0334C42.7505 39.956 42.9636 39.9208 43.1771 39.9302C43.3906 39.9396 43.5999 39.9934 43.7915 40.088C43.9831 40.1827 44.1528 40.3162 44.29 40.4801C45.29 41.6801 44.97 44.5701 44.92 44.9001C44.9053 45.0194 44.8473 45.1291 44.757 45.2084C44.6666 45.2877 44.5503 45.331 44.4301 45.3301Z" fill="#173213"/>
<path d="M44.7899 51.0904C40.4999 51.0904 37.01 46.8303 37.01 41.6003C37.01 36.3703 40.4999 32.1104 44.7899 32.1104C49.0799 32.1104 52.5699 36.3703 52.5699 41.6003C52.5699 46.8303 49.0799 51.0904 44.7899 51.0904ZM44.7899 33.0904C41.0499 33.0904 38.01 36.9004 38.01 41.5804C38.01 46.2604 41.0099 50.0704 44.7899 50.0704C48.5699 50.0704 51.5699 46.2604 51.5699 41.5804C51.5699 36.9004 48.5299 33.1104 44.7899 33.1104V33.0904Z" fill="#173213"/>
<path d="M25.66 51.0904C21.37 51.0904 17.8801 46.8303 17.8801 41.6003C17.8801 36.3703 21.37 32.1104 25.66 32.1104C29.95 32.1104 33.4501 36.3703 33.4501 41.6003C33.4501 46.8303 29.96 51.0904 25.66 51.0904ZM25.66 33.0904C21.92 33.0904 18.8801 36.9004 18.8801 41.5804C18.8801 46.2604 21.88 50.0704 25.66 50.0704C29.44 50.0704 32.4501 46.2604 32.4501 41.5804C32.4501 36.9004 29.4 33.1104 25.66 33.1104V33.0904Z" fill="#173213"/>
<path d="M32.9499 42.0995C32.8707 42.1003 32.7924 42.0827 32.7213 42.048C32.6501 42.0133 32.588 41.9625 32.5399 41.8996C32.4639 41.7914 32.4329 41.6579 32.4534 41.5273C32.474 41.3968 32.5445 41.2793 32.65 41.1996C33.4114 40.6931 34.3054 40.4229 35.2199 40.4229C36.1344 40.4229 37.0285 40.6931 37.7899 41.1996C37.8965 41.2778 37.9693 41.3938 37.9935 41.5239C38.0176 41.6539 37.9913 41.7883 37.9199 41.8996C37.845 42.0076 37.7308 42.0818 37.6016 42.1061C37.4725 42.1304 37.339 42.1029 37.2299 42.0296C36.636 41.639 35.9408 41.4309 35.2299 41.4309C34.5191 41.4309 33.8238 41.639 33.2299 42.0296C33.1465 42.0824 33.0483 42.1069 32.9499 42.0995Z" fill="#173213"/>
<path d="M52.19 43.1299H52.04C51.9743 43.1259 51.9102 43.1091 51.851 43.0803C51.7918 43.0515 51.7389 43.0114 51.6952 42.9622C51.6516 42.913 51.6181 42.8557 51.5966 42.7935C51.5751 42.7313 51.566 42.6655 51.57 42.5998C51.5739 42.5342 51.5908 42.47 51.6195 42.4108C51.6483 42.3517 51.6885 42.2988 51.7377 42.2551C51.7869 42.2115 51.8442 42.1779 51.9064 42.1564C51.9686 42.1349 52.0344 42.1259 52.1 42.1299C52.8773 42.1362 53.6451 41.9583 54.3404 41.6106C55.0357 41.263 55.6387 40.7555 56.1 40.1299C56.1388 40.0767 56.1876 40.0317 56.2437 39.9974C56.2998 39.963 56.3622 39.9401 56.4272 39.9299C56.4922 39.9197 56.5586 39.9224 56.6226 39.9378C56.6866 39.9532 56.7468 39.9811 56.8 40.0199C56.8532 40.0586 56.8982 40.1074 56.9325 40.1636C56.9668 40.2197 56.9898 40.2821 57 40.3471C57.0103 40.4121 57.0075 40.4784 56.9921 40.5424C56.9767 40.6064 56.9487 40.6667 56.91 40.7199C56.3603 41.4562 55.6488 42.0564 54.8305 42.4742C54.0121 42.8921 53.1087 43.1164 52.19 43.1299Z" fill="#173213"/>
<path d="M37.51 47.29L32.95 48.3401C32.95 48.3401 34.43 53.3401 36.77 52.2601C39.11 51.1801 37.23 47.7501 37.23 47.7501" fill="white"/>
<path d="M36.1101 52.88C35.823 52.877 35.5399 52.8122 35.28 52.69C33.54 51.91 32.5701 48.79 32.4701 48.44C32.4428 48.3786 32.4287 48.3122 32.4287 48.245C32.4287 48.1778 32.4428 48.1114 32.4701 48.05C32.5045 47.9905 32.5506 47.9386 32.6056 47.8974C32.6606 47.8561 32.7233 47.8264 32.79 47.81L37.3601 46.81C37.4232 46.7938 37.489 46.7906 37.5533 46.8006C37.6177 46.8106 37.6794 46.8336 37.7346 46.8683C37.7898 46.9029 37.8373 46.9484 37.8744 47.002C37.9114 47.0556 37.9372 47.1161 37.9501 47.18C37.9761 47.2817 37.9688 47.3891 37.9292 47.4863C37.8896 47.5835 37.8198 47.6655 37.7301 47.7201C38.3175 48.8046 38.5052 50.0612 38.2601 51.27C38.1552 51.5913 37.9832 51.8867 37.7556 52.1366C37.5281 52.3866 37.2501 52.5855 36.9401 52.7201C36.6773 52.8296 36.3948 52.8841 36.1101 52.88ZM33.6001 48.6601C33.9701 49.6601 34.7501 51.3601 35.6901 51.7801C35.8257 51.8456 35.9745 51.8796 36.1251 51.8796C36.2758 51.8796 36.4244 51.8456 36.5601 51.7801C36.7438 51.7015 36.9091 51.5852 37.0452 51.4387C37.1812 51.2923 37.2851 51.119 37.3501 50.93C37.5152 49.8954 37.3173 48.8354 36.79 47.93L33.6001 48.6601Z" fill="#173213"/>
<path d="M48.12 41.7404C48.0395 41.7426 47.9598 41.7245 47.8881 41.6878C47.8165 41.6511 47.7552 41.597 47.7099 41.5304L44.0999 36.4004C44.0549 36.3478 44.0213 36.2863 44.0012 36.22C43.9811 36.1536 43.975 36.0839 43.9834 36.0151C43.9917 35.9463 44.0143 35.8799 44.0496 35.8203C44.085 35.7607 44.1323 35.709 44.1887 35.6687C44.245 35.6283 44.3091 35.6001 44.3769 35.5859C44.4447 35.5716 44.5148 35.5717 44.5826 35.5859C44.6504 35.6002 44.7146 35.6284 44.771 35.6687C44.8273 35.7091 44.8746 35.7608 44.9099 35.8204L48.5299 40.9504C48.6038 41.061 48.6315 41.1961 48.6073 41.3268C48.583 41.4576 48.5087 41.5737 48.4 41.6504C48.3187 41.7096 48.2205 41.7411 48.12 41.7404Z" fill="white"/>
<path d="M47.92 38.8798C47.8397 38.8811 47.7603 38.8626 47.6888 38.826C47.6173 38.7894 47.556 38.7358 47.5101 38.6698L45.9001 36.3899C45.8621 36.336 45.8349 36.2752 45.8203 36.2109C45.8057 36.1466 45.8039 36.08 45.8151 36.015C45.8376 35.8837 45.9114 35.7668 46.0201 35.6898C46.1289 35.6129 46.2636 35.5824 46.3949 35.6049C46.5262 35.6274 46.6432 35.7011 46.7201 35.8098L48.3301 38.0998C48.4044 38.2076 48.4336 38.3404 48.4111 38.4694C48.3887 38.5984 48.3165 38.7134 48.2101 38.7898C48.1245 38.848 48.0235 38.8794 47.92 38.8798Z" fill="white"/>
<path d="M22.89 43.55C22.8116 43.5488 22.7344 43.5292 22.6649 43.4927C22.5954 43.4562 22.5355 43.4039 22.49 43.34L20.1599 40.03C20.1184 39.9764 20.0882 39.9148 20.0712 39.8491C20.0542 39.7835 20.0507 39.715 20.0609 39.648C20.0712 39.5809 20.095 39.5166 20.1309 39.459C20.1668 39.4014 20.2141 39.3518 20.2698 39.3131C20.3255 39.2744 20.3885 39.2474 20.455 39.2338C20.5215 39.2202 20.59 39.2202 20.6564 39.234C20.7228 39.2477 20.7858 39.2748 20.8415 39.3137C20.8971 39.3525 20.9442 39.4023 20.98 39.46L23.2999 42.76C23.3383 42.8137 23.3657 42.8745 23.3804 42.9389C23.3951 43.0032 23.397 43.0699 23.3859 43.135C23.3747 43.2001 23.3508 43.2623 23.3155 43.3181C23.2801 43.3739 23.234 43.4221 23.18 43.46C23.0944 43.5182 22.9935 43.5495 22.89 43.55Z" fill="white"/>
<path d="M23.0701 46.2799C22.9898 46.2812 22.9104 46.2627 22.8389 46.226C22.7674 46.1894 22.706 46.1358 22.6601 46.0698L19.7201 41.8899C19.6821 41.836 19.6549 41.7752 19.6403 41.7109C19.6257 41.6466 19.624 41.58 19.6352 41.515C19.6463 41.45 19.6702 41.3878 19.7054 41.3321C19.7405 41.2763 19.7863 41.2279 19.8401 41.1898C19.894 41.1518 19.9548 41.1247 20.0191 41.1101C20.0834 41.0955 20.15 41.0937 20.215 41.1049C20.28 41.116 20.3422 41.1398 20.398 41.175C20.4538 41.2102 20.502 41.256 20.5401 41.3098L23.4802 45.4898C23.5185 45.5436 23.5459 45.6044 23.5606 45.6688C23.5753 45.7332 23.5771 45.7998 23.566 45.8648C23.5548 45.9299 23.5309 45.9922 23.4955 46.0479C23.4602 46.1037 23.4142 46.152 23.3602 46.1898C23.2746 46.248 23.1736 46.2794 23.0701 46.2799Z" fill="white"/>
<path d="M36.6801 117.6H36.5901C25.5901 115.8 22.5901 105.6 22.5901 105.53C22.5724 105.464 22.5678 105.396 22.5766 105.328C22.5853 105.261 22.6073 105.196 22.6412 105.137C22.675 105.078 22.7202 105.026 22.7741 104.985C22.828 104.943 22.8895 104.913 22.9551 104.895C23.0208 104.877 23.0893 104.873 23.1568 104.881C23.2242 104.89 23.2892 104.912 23.3482 104.946C23.4072 104.98 23.4589 105.025 23.5004 105.079C23.5419 105.133 23.5724 105.194 23.5901 105.26C23.5901 105.36 26.4101 114.92 36.8001 116.62C36.9327 116.63 37.0557 116.693 37.142 116.795C37.2283 116.896 37.2708 117.027 37.2602 117.16C37.2496 117.292 37.1866 117.415 37.0854 117.502C36.9841 117.588 36.8527 117.63 36.7201 117.62L36.6801 117.6Z" fill="#432915"/>
<path d="M42.6701 93.3797C42.5432 93.3776 42.4217 93.3283 42.3292 93.2414C42.2368 93.1545 42.18 93.0363 42.1701 92.9097C41.8801 88.6597 39.1701 84.4997 37.8201 82.9097C36.8901 81.8297 36.2001 82.2397 36.1201 82.2897C36.0111 82.363 35.8776 82.3906 35.7484 82.3662C35.6193 82.3419 35.5049 82.2677 35.4301 82.1597C35.3563 82.0535 35.3275 81.9224 35.35 81.795C35.3725 81.6676 35.4444 81.5542 35.5501 81.4797C36.0501 81.1097 37.3301 80.8097 38.5501 82.2597C40.0001 83.9497 42.8302 88.3397 43.1402 92.8497C43.1456 92.9149 43.1379 92.9805 43.1176 93.0427C43.0973 93.1049 43.0647 93.1623 43.0219 93.2117C42.979 93.2611 42.9266 93.3014 42.8679 93.3303C42.8092 93.3591 42.7454 93.3759 42.6801 93.3797H42.6701Z" fill="white"/>
<path d="M74.1999 105.29C74.1999 105.29 69.57 107.44 71.37 108.05C73.17 108.66 75.24 106.9 75.24 106.9C75.24 106.9 66.59 113.33 70.76 115.5C74.93 117.67 79.99 107.5 77.09 105.5" fill="#478043"/>
<path d="M71.9799 116.31C71.4737 116.306 70.976 116.179 70.5299 115.94C70.1445 115.777 69.8107 115.512 69.5642 115.174C69.3176 114.836 69.1675 114.437 69.13 114.02C68.99 112.32 70.7399 110.23 72.3699 108.67C71.9771 108.699 71.5826 108.648 71.2099 108.52C70.5799 108.31 70.4699 107.91 70.4599 107.69C70.3999 106.69 72.3499 105.6 73.9899 104.84C74.0496 104.812 74.1144 104.795 74.1805 104.792C74.2466 104.788 74.3127 104.798 74.3751 104.82C74.4374 104.843 74.4946 104.877 74.5435 104.922C74.5924 104.966 74.632 105.02 74.6599 105.08C74.7118 105.203 74.7149 105.34 74.6684 105.465C74.6219 105.59 74.5293 105.692 74.4099 105.75C73.3478 106.19 72.3675 106.805 71.51 107.57C72.0367 107.662 72.5769 107.639 73.0943 107.505C73.6117 107.37 74.0944 107.127 74.51 106.79L74.9099 106.48C75.0142 106.411 75.1407 106.383 75.2645 106.403C75.3882 106.422 75.5001 106.488 75.5781 106.586C75.656 106.684 75.6943 106.807 75.6854 106.932C75.6764 107.057 75.6209 107.174 75.5299 107.26C75.5299 107.26 75.37 107.4 75.14 107.57C73.4 108.93 69.94 112.05 70.14 113.93C70.1666 114.177 70.2611 114.411 70.4129 114.607C70.5647 114.803 70.768 114.953 70.9999 115.04C72.7899 115.97 74.7899 114.04 75.9999 112.11C77.5799 109.49 77.9999 106.63 76.8599 105.85C76.8023 105.815 76.7525 105.767 76.7137 105.712C76.6748 105.656 76.6477 105.593 76.634 105.527C76.6202 105.46 76.6201 105.392 76.6337 105.325C76.6473 105.259 76.6744 105.196 76.7131 105.14C76.7518 105.084 76.8014 105.037 76.859 105.001C76.9165 104.965 76.9809 104.941 77.0479 104.931C77.115 104.921 77.1834 104.924 77.2491 104.941C77.3148 104.959 77.3763 104.989 77.4299 105.03C79.2699 106.31 78.5099 109.9 76.8599 112.62C75.6399 114.56 73.8699 116.31 71.9799 116.31Z" fill="#173213"/>
<path d="M56.17 166.81C55.17 166.81 54.17 166.75 53.33 166.67C53.2095 166.661 53.0965 166.608 53.0119 166.522C52.9273 166.435 52.8769 166.321 52.87 166.2L51.59 137.42C51.5873 137.355 51.5976 137.289 51.6203 137.227C51.643 137.166 51.6776 137.109 51.7222 137.061C51.7668 137.013 51.8205 136.974 51.8802 136.946C51.9399 136.918 52.0043 136.903 52.07 136.9C52.2013 136.9 52.3278 136.949 52.4242 137.038C52.5207 137.127 52.5799 137.25 52.59 137.38L53.81 164.94C54.81 163.82 57.25 162.35 59.54 164.31C60.13 164.82 60.3401 165.31 60.1401 165.77C59.8101 166.59 58.02 166.81 56.17 166.81ZM54.43 165.75C56.78 165.88 58.88 165.75 59.22 165.39C59.22 165.39 59.1201 165.26 58.9001 165.07C56.7201 163.2 54.58 165.59 54.49 165.69L54.43 165.75Z" fill="#173213"/>
<path d="M75.7601 105.17H75.6501C75.522 105.141 75.4103 105.063 75.3392 104.953C75.2681 104.843 75.2433 104.709 75.2701 104.58C77.6601 94.0601 76.0101 86.58 74.2001 82.23C73.1925 79.5786 71.6467 77.1646 69.66 75.1401C69.6132 75.0936 69.576 75.0383 69.5507 74.9774C69.5253 74.9164 69.5122 74.8511 69.5122 74.7851C69.5122 74.7191 69.5253 74.6537 69.5507 74.5928C69.576 74.5318 69.6132 74.4765 69.66 74.4301C69.7535 74.3384 69.8793 74.2871 70.0101 74.2871C70.141 74.2871 70.2666 74.3384 70.3601 74.4301C72.4545 76.5344 74.0831 79.0556 75.1401 81.8301C77.0201 86.3601 78.74 94.0301 76.29 104.83C76.2541 104.939 76.1818 105.032 76.0853 105.094C75.9888 105.156 75.8741 105.183 75.7601 105.17Z" fill="#173213"/>
<path d="M75.3299 127.42C75.1974 127.42 75.0679 127.381 74.9577 127.307C74.8475 127.234 74.7616 127.129 74.7109 127.006C74.6602 126.884 74.6469 126.749 74.6728 126.619C74.6986 126.489 74.7624 126.37 74.8561 126.276C74.9498 126.183 75.0692 126.119 75.1992 126.093C75.3291 126.067 75.4638 126.08 75.5862 126.131C75.7087 126.182 75.8134 126.268 75.887 126.378C75.9607 126.488 75.9999 126.618 75.9999 126.75C75.9999 126.928 75.9293 127.098 75.8037 127.224C75.678 127.349 75.5076 127.42 75.3299 127.42Z" fill="#173213"/>
<path d="M69.5899 98.4796C69.4574 98.4796 69.3279 98.4403 69.2177 98.3667C69.1075 98.2931 69.0216 98.1885 68.9709 98.066C68.9202 97.9436 68.907 97.8089 68.9328 97.679C68.9587 97.549 69.0225 97.4296 69.1162 97.3359C69.2099 97.2422 69.3292 97.1784 69.4592 97.1525C69.5891 97.1267 69.7238 97.1399 69.8463 97.1906C69.9687 97.2413 70.0734 97.3272 70.147 97.4374C70.2207 97.5476 70.26 97.6771 70.26 97.8096C70.26 97.9873 70.1893 98.1577 70.0637 98.2834C69.938 98.409 69.7676 98.4796 69.5899 98.4796Z" fill="#173213"/>
<path d="M80.78 120.29C80.6014 120.288 80.431 120.215 80.3057 120.088C80.1803 119.961 80.1101 119.789 80.1101 119.61C80.1101 119.522 80.1275 119.435 80.1611 119.354C80.1948 119.273 80.2441 119.199 80.3063 119.137C80.3685 119.074 80.4424 119.025 80.5237 118.991C80.605 118.958 80.692 118.94 80.78 118.94C80.9587 118.94 81.1302 119.011 81.2574 119.136C81.3847 119.261 81.4575 119.432 81.4601 119.61C81.4575 119.79 81.385 119.961 81.2581 120.088C81.1311 120.215 80.9596 120.288 80.78 120.29Z" fill="#173213"/>
<path d="M63.59 84.0305C63.4123 84.0305 63.2419 83.9598 63.1162 83.8342C62.9906 83.7085 62.9199 83.5381 62.9199 83.3604C62.9199 83.1827 62.9906 83.0123 63.1162 82.8867C63.2419 82.761 63.4123 82.6904 63.59 82.6904C63.7677 82.6904 63.9381 82.761 64.0637 82.8867C64.1894 83.0123 64.26 83.1827 64.26 83.3604C64.26 83.5381 64.1894 83.7085 64.0637 83.8342C63.9381 83.9598 63.7677 84.0305 63.59 84.0305Z" fill="#173213"/>
<path d="M50.84 13.9504C50.6623 13.9504 50.4919 13.8798 50.3662 13.7542C50.2406 13.6285 50.1699 13.4581 50.1699 13.2804C50.1699 13.1027 50.2406 12.9322 50.3662 12.8066C50.4919 12.6809 50.6623 12.6104 50.84 12.6104C51.0177 12.6104 51.1881 12.6809 51.3137 12.8066C51.4394 12.9322 51.51 13.1027 51.51 13.2804C51.51 13.4581 51.4394 13.6285 51.3137 13.7542C51.1881 13.8798 51.0177 13.9504 50.84 13.9504Z" fill="#478043"/>
<path d="M49.2301 12.4702C49.0515 12.4675 48.8811 12.3947 48.7557 12.2675C48.6304 12.1402 48.56 11.9687 48.5601 11.7901C48.5601 11.6124 48.6307 11.442 48.7563 11.3163C48.882 11.1907 49.0524 11.1201 49.2301 11.1201C49.4087 11.1201 49.5802 11.1904 49.7074 11.3157C49.8346 11.4411 49.9074 11.6115 49.91 11.7901C49.9075 11.9696 49.835 12.1412 49.708 12.2681C49.581 12.3951 49.4096 12.4676 49.2301 12.4702Z" fill="#478043"/>
<path d="M69.13 61.5099C68.9523 61.5099 68.7819 61.4394 68.6562 61.3137C68.5306 61.1881 68.46 61.0177 68.46 60.84C68.46 60.6623 68.5306 60.4919 68.6562 60.3662C68.7819 60.2406 68.9523 60.1699 69.13 60.1699C69.3077 60.1699 69.4781 60.2406 69.6038 60.3662C69.7294 60.4919 69.7999 60.6623 69.7999 60.84C69.7999 61.0177 69.7294 61.1881 69.6038 61.3137C69.4781 61.4394 69.3077 61.5099 69.13 61.5099Z" fill="#BCD5B9"/>
<path d="M65.23 58.9504C65.0975 58.9504 64.968 58.9111 64.8579 58.8375C64.7477 58.7638 64.6617 58.6592 64.611 58.5367C64.5603 58.4143 64.5471 58.2796 64.5729 58.1496C64.5988 58.0197 64.6626 57.9003 64.7563 57.8066C64.85 57.7129 64.9693 57.6491 65.0993 57.6232C65.2293 57.5974 65.364 57.6107 65.4864 57.6614C65.6088 57.7121 65.7136 57.798 65.7872 57.9081C65.8608 58.0183 65.9001 58.1479 65.9001 58.2804C65.9001 58.4581 65.8295 58.6285 65.7038 58.7541C65.5782 58.8798 65.4077 58.9504 65.23 58.9504Z" fill="#BCD5B9"/>
<path d="M78.69 119.63C78.5575 119.63 78.428 119.591 78.3178 119.517C78.2076 119.444 78.1217 119.339 78.071 119.216C78.0203 119.094 78.0071 118.959 78.0329 118.829C78.0588 118.699 78.1226 118.58 78.2163 118.486C78.31 118.393 78.4293 118.329 78.5593 118.303C78.6892 118.277 78.8241 118.29 78.9465 118.341C79.0689 118.392 79.1735 118.478 79.2471 118.588C79.3208 118.698 79.3601 118.828 79.3601 118.96C79.3601 119.138 79.2894 119.308 79.1638 119.434C79.0381 119.559 78.8677 119.63 78.69 119.63Z" fill="#173213"/>
<path d="M62.7 86.7896C62.5646 86.7915 62.4318 86.7531 62.3185 86.6792C62.2051 86.6052 62.1164 86.4991 62.0637 86.3745C62.011 86.2498 61.9967 86.1123 62.0226 85.9794C62.0485 85.8466 62.1135 85.7246 62.2092 85.6289C62.3049 85.5332 62.427 85.4682 62.5598 85.4423C62.6926 85.4164 62.8302 85.4307 62.9548 85.4834C63.0795 85.5361 63.1856 85.6248 63.2595 85.7381C63.3335 85.8515 63.372 85.9843 63.37 86.1196C63.37 86.2973 63.2994 86.4677 63.1737 86.5933C63.0481 86.719 62.8776 86.7896 62.7 86.7896Z" fill="#173213"/>
<path d="M66.5201 55.8802C66.3415 55.8776 66.171 55.8048 66.0457 55.6776C65.9203 55.5503 65.8501 55.3789 65.8501 55.2003C65.8501 55.0226 65.9207 54.8522 66.0464 54.7265C66.172 54.6009 66.3424 54.5303 66.5201 54.5303C66.6978 54.5303 66.8682 54.6009 66.9939 54.7265C67.1195 54.8522 67.1901 55.0226 67.1901 55.2003C67.1901 55.3789 67.1199 55.5503 66.9945 55.6776C66.8691 55.8048 66.6988 55.8776 66.5201 55.8802Z" fill="#BCD5B9"/>
<path d="M67.38 101.67C67.2474 101.67 67.1178 101.631 67.0076 101.557C66.8975 101.484 66.8116 101.379 66.7609 101.256C66.7102 101.134 66.697 100.999 66.7228 100.869C66.7487 100.739 66.8125 100.62 66.9062 100.526C66.9999 100.433 67.1192 100.369 67.2492 100.343C67.3792 100.317 67.5139 100.33 67.6363 100.381C67.7587 100.432 67.8633 100.518 67.937 100.628C68.0106 100.738 68.0499 100.868 68.0499 101C68.0499 101.178 67.9794 101.348 67.8537 101.474C67.7281 101.599 67.5576 101.67 67.38 101.67Z" fill="#173213"/>
<path d="M79.12 122.88C78.9414 122.878 78.771 122.805 78.6456 122.678C78.5203 122.55 78.4499 122.379 78.45 122.2C78.45 122.023 78.5206 121.852 78.6462 121.727C78.7719 121.601 78.9423 121.53 79.12 121.53C79.2977 121.53 79.4681 121.601 79.5938 121.727C79.7194 121.852 79.7899 122.023 79.7899 122.2C79.7899 122.379 79.7197 122.55 79.5944 122.678C79.469 122.805 79.2986 122.878 79.12 122.88Z" fill="#173213"/>
<path d="M66.95 98.2096C66.8146 98.2115 66.6818 98.1731 66.5685 98.0991C66.4551 98.0252 66.3664 97.919 66.3137 97.7944C66.261 97.6697 66.2467 97.5322 66.2726 97.3994C66.2985 97.2665 66.3635 97.1445 66.4592 97.0488C66.5549 96.9531 66.677 96.8881 66.8098 96.8622C66.9426 96.8363 67.0802 96.8506 67.2048 96.9033C67.3295 96.956 67.4356 97.0447 67.5095 97.158C67.5835 97.2714 67.622 97.4042 67.62 97.5395C67.62 97.7172 67.5494 97.8877 67.4237 98.0133C67.2981 98.139 67.1276 98.2096 66.95 98.2096Z" fill="#173213"/>
<path opacity="0.2" d="M45.7901 170.82C65.1145 170.82 80.78 168.792 80.78 166.29C80.78 163.788 65.1145 161.76 45.7901 161.76C26.4656 161.76 10.8 163.788 10.8 166.29C10.8 168.792 26.4656 170.82 45.7901 170.82Z" fill="#478043"/>
</g>
<defs>
<clipPath id="clip0_112_3173">
<rect width="87.68" height="170.82" fill="white"/>
</clipPath>
</defs>
</svg>
