<svg width="184" height="184" viewBox="0 0 184 184" fill="none" xmlns="http://www.w3.org/2000/svg">
<path d="M151.432 156.796H33.9551C33.392 156.796 32.852 156.573 32.4539 156.174C32.0557 155.776 31.832 155.236 31.832 154.673V78.6388C31.832 78.0757 32.0557 77.5357 32.4539 77.1375C32.852 76.7394 33.392 76.5157 33.9551 76.5157C34.5182 76.5157 35.0582 76.7394 35.4564 77.1375C35.8545 77.5357 36.0782 78.0757 36.0782 78.6388V152.55H149.309V39.3194H36.0782V61.6825C36.0782 62.2456 35.8545 62.7856 35.4564 63.1837C35.0582 63.5819 34.5182 63.8056 33.9551 63.8056C33.392 63.8056 32.852 63.5819 32.4539 63.1837C32.0557 62.7856 31.832 62.2456 31.832 61.6825V37.1963C31.832 36.6332 32.0557 36.0932 32.4539 35.6951C32.852 35.2969 33.392 35.0732 33.9551 35.0732H151.432C151.995 35.0732 152.535 35.2969 152.933 35.6951C153.331 36.0932 153.555 36.6332 153.555 37.1963V154.673C153.555 155.236 153.331 155.776 152.933 156.174C152.535 156.573 151.995 156.796 151.432 156.796Z" fill="#555555"/>
<path d="M57.4646 49.8216C56.9016 49.8216 56.3615 49.5979 55.9634 49.1997C55.5652 48.8016 55.3416 48.2616 55.3416 47.6985V29.0154C55.3416 28.4523 55.5652 27.9123 55.9634 27.5142C56.3615 27.116 56.9016 26.8923 57.4646 26.8923C58.0277 26.8923 58.5677 27.116 58.9659 27.5142C59.364 27.9123 59.5877 28.4523 59.5877 29.0154V47.6985C59.5877 48.2616 59.364 48.8016 58.9659 49.1997C58.5677 49.5979 58.0277 49.8216 57.4646 49.8216V49.8216Z" fill="#555555"/>
<path d="M80.9458 49.8216C80.3828 49.8216 79.8428 49.5979 79.4446 49.1997C79.0464 48.8016 78.8228 48.2616 78.8228 47.6985V29.0154C78.8228 28.4523 79.0464 27.9123 79.4446 27.5142C79.8428 27.116 80.3828 26.8923 80.9458 26.8923C81.5089 26.8923 82.0489 27.116 82.4471 27.5142C82.8452 27.9123 83.0689 28.4523 83.0689 29.0154V47.6985C83.0689 48.2616 82.8452 48.8016 82.4471 49.1997C82.0489 49.5979 81.5089 49.8216 80.9458 49.8216V49.8216Z" fill="#555555"/>
<path d="M127.922 49.8216C127.359 49.8216 126.819 49.5979 126.421 49.1997C126.023 48.8016 125.799 48.2616 125.799 47.6985V29.0154C125.799 28.4523 126.023 27.9123 126.421 27.5142C126.819 27.116 127.359 26.8923 127.922 26.8923C128.485 26.8923 129.025 27.116 129.424 27.5142C129.822 27.9123 130.045 28.4523 130.045 29.0154V47.6985C130.045 48.2616 129.822 48.8016 129.424 49.1997C129.025 49.5979 128.485 49.8216 127.922 49.8216V49.8216Z" fill="#555555"/>
<path d="M104.441 49.8216C103.878 49.8216 103.338 49.5979 102.94 49.1997C102.542 48.8016 102.318 48.2616 102.318 47.6985V29.0154C102.318 28.4523 102.542 27.9123 102.94 27.5142C103.338 27.116 103.878 26.8923 104.441 26.8923C105.004 26.8923 105.544 27.116 105.942 27.5142C106.341 27.9123 106.564 28.4523 106.564 29.0154V47.6985C106.564 48.2616 106.341 48.8016 105.942 49.1997C105.544 49.5979 105.004 49.8216 104.441 49.8216V49.8216Z" fill="#555555"/>
<path d="M148.983 68.3065H43.8628C43.2997 68.3065 42.7597 68.0828 42.3616 67.6846C41.9634 67.2865 41.7397 66.7465 41.7397 66.1834C41.7397 65.6203 41.9634 65.0803 42.3616 64.6821C42.7597 64.284 43.2997 64.0603 43.8628 64.0603H149.054C149.617 64.0603 150.157 64.284 150.555 64.6821C150.954 65.0803 151.177 65.6203 151.177 66.1834C151.177 66.7465 150.954 67.2865 150.555 67.6846C150.157 68.0828 149.617 68.3065 149.054 68.3065H148.983Z" fill="#555555"/>
<path d="M151.432 98.072H36.4037C35.8406 98.072 35.3006 97.8483 34.9025 97.4501C34.5043 97.052 34.2806 96.512 34.2806 95.9489C34.2806 95.3858 34.5043 94.8458 34.9025 94.4476C35.3006 94.0495 35.8406 93.8258 36.4037 93.8258H151.432C151.995 93.8258 152.535 94.0495 152.933 94.4476C153.331 94.8458 153.555 95.3858 153.555 95.9489C153.555 96.512 153.331 97.052 152.933 97.4501C152.535 97.8483 151.995 98.072 151.432 98.072Z" fill="#555555"/>
<path d="M151.432 127.852H36.4037C35.8406 127.852 35.3006 127.628 34.9025 127.23C34.5043 126.832 34.2806 126.292 34.2806 125.729C34.2806 125.166 34.5043 124.626 34.9025 124.227C35.3006 123.829 35.8406 123.606 36.4037 123.606H151.432C151.995 123.606 152.535 123.829 152.933 124.227C153.331 124.626 153.555 125.166 153.555 125.729C153.555 126.292 153.331 126.832 152.933 127.23C152.535 127.628 151.995 127.852 151.432 127.852Z" fill="#555555"/>
<path d="M61.6684 156.895C61.1053 156.895 60.5653 156.672 60.1671 156.274C59.769 155.875 59.5453 155.335 59.5453 154.772V66.2683C59.5453 65.7053 59.769 65.1652 60.1671 64.7671C60.5653 64.3689 61.1053 64.1453 61.6684 64.1453C62.2314 64.1453 62.7715 64.3689 63.1696 64.7671C63.5678 65.1652 63.7914 65.7053 63.7914 66.2683V154.772C63.7914 155.335 63.5678 155.875 63.1696 156.274C62.7715 156.672 62.2314 156.895 61.6684 156.895Z" fill="#555555"/>
<path d="M91.4339 156.895C90.8719 156.892 90.3341 156.667 89.9367 156.269C89.5394 155.872 89.3145 155.334 89.3108 154.772V66.2683C89.3108 65.7053 89.5345 65.1652 89.9326 64.7671C90.3308 64.3689 90.8708 64.1453 91.4339 64.1453C91.9969 64.1453 92.537 64.3689 92.9351 64.7671C93.3333 65.1652 93.5569 65.7053 93.5569 66.2683V154.772C93.5569 155.335 93.3333 155.875 92.9351 156.274C92.537 156.672 91.9969 156.895 91.4339 156.895V156.895Z" fill="#555555"/>
<path d="M121.214 156.796C120.65 156.796 120.11 156.573 119.712 156.174C119.314 155.776 119.09 155.236 119.09 154.673V66.2683C119.09 65.7053 119.314 65.1652 119.712 64.7671C120.11 64.3689 120.65 64.1453 121.214 64.1453C121.777 64.1453 122.317 64.3689 122.715 64.7671C123.113 65.1652 123.337 65.7053 123.337 66.2683V154.673C123.337 155.236 123.113 155.776 122.715 156.174C122.317 156.573 121.777 156.796 121.214 156.796Z" fill="#555555"/>
<path d="M36.6585 85.6732C36.0954 85.6732 35.5554 85.4495 35.1573 85.0514C34.7591 84.6532 34.5354 84.1132 34.5354 83.5501C34.5354 80.2947 26.5527 72.312 23.2973 72.312C22.7342 72.312 22.1942 72.0883 21.796 71.6901C21.3979 71.292 21.1742 70.752 21.1742 70.1889C21.1742 69.6258 21.3979 69.0858 21.796 68.6876C22.1942 68.2895 22.7342 68.0658 23.2973 68.0658C26.5527 68.0658 34.5354 60.0831 34.5354 56.8277C34.5354 56.2646 34.7591 55.7246 35.1573 55.3264C35.5554 54.9283 36.0954 54.7046 36.6585 54.7046C37.2216 54.7046 37.7616 54.9283 38.1597 55.3264C38.5579 55.7246 38.7816 56.2646 38.7816 56.8277C38.7816 60.0831 46.7643 68.0658 50.0197 68.0658C50.5828 68.0658 51.1228 68.2895 51.521 68.6876C51.9191 69.0858 52.1428 69.6258 52.1428 70.1889C52.1428 70.752 51.9191 71.292 51.521 71.6901C51.1228 72.0883 50.5828 72.312 50.0197 72.312C46.7643 72.312 38.7816 80.2947 38.7816 83.5501C38.7816 84.1132 38.5579 84.6532 38.1597 85.0514C37.7616 85.4495 37.2216 85.6732 36.6585 85.6732ZM28.888 70.1889C31.9569 72.2341 34.5965 74.8593 36.6585 77.9169C38.7135 74.8505 41.3484 72.2156 44.4148 70.1606C41.3507 68.0969 38.7166 65.4579 36.6585 62.3901C34.598 65.4686 31.959 68.1172 28.888 70.1889V70.1889Z" fill="#555555"/>
<path d="M23.8492 63.3385C23.2861 63.3385 22.7461 63.1148 22.3479 62.7166C21.9498 62.3185 21.7261 61.7785 21.7261 61.2154C21.7261 59.4178 16.659 54.3508 14.8615 54.3508C14.2984 54.3508 13.7584 54.1271 13.3602 53.7289C12.9621 53.3308 12.7384 52.7908 12.7384 52.2277C12.7384 51.6646 12.9621 51.1246 13.3602 50.7265C13.7584 50.3283 14.2984 50.1046 14.8615 50.1046C16.659 50.1046 21.7261 45.0234 21.7261 43.2259C21.7261 42.6628 21.9498 42.1228 22.3479 41.7246C22.7461 41.3265 23.2861 41.1028 23.8492 41.1028C24.4122 41.1028 24.9523 41.3265 25.3504 41.7246C25.7486 42.1228 25.9723 42.6628 25.9723 43.2259C25.9723 45.0234 31.0535 50.1046 32.8369 50.1046C33.3999 50.1046 33.94 50.3283 34.3381 50.7265C34.7363 51.1246 34.9599 51.6646 34.9599 52.2277C34.9599 52.7908 34.7363 53.3308 34.3381 53.7289C33.94 54.1271 33.3999 54.3508 32.8369 54.3508C31.0535 54.3508 25.9723 59.4178 25.9723 61.2154C25.9723 61.7785 25.7486 62.3185 25.3504 62.7166C24.9523 63.1148 24.4122 63.3385 23.8492 63.3385ZM19.8012 52.2277C21.3333 53.3707 22.692 54.7294 23.835 56.2615C24.9817 54.7326 26.3399 53.3744 27.8689 52.2277C26.3489 51.0755 24.9961 49.7179 23.8492 48.1939C22.6974 49.7231 21.3345 51.0813 19.8012 52.2277V52.2277Z" fill="#555555"/>
<path d="M160.321 132.438C159.844 132.433 159.384 132.269 159.012 131.971C158.641 131.673 158.38 131.259 158.272 130.795C158.165 130.331 158.216 129.845 158.418 129.414C158.62 128.982 158.961 128.632 159.386 128.418L168.742 123.818C168.994 123.679 169.271 123.592 169.557 123.563C169.843 123.535 170.132 123.564 170.407 123.651C170.681 123.737 170.935 123.878 171.153 124.065C171.371 124.253 171.549 124.482 171.675 124.741C171.802 124.999 171.875 125.28 171.89 125.567C171.904 125.854 171.861 126.141 171.761 126.411C171.662 126.681 171.508 126.928 171.31 127.136C171.113 127.345 170.874 127.511 170.61 127.625L161.255 132.225C160.962 132.363 160.644 132.435 160.321 132.438Z" fill="#555555"/>
<path d="M169.676 142.558C169.43 142.557 169.186 142.514 168.955 142.43L159.599 139.062C159.068 138.874 158.633 138.483 158.39 137.974C158.147 137.466 158.116 136.882 158.304 136.351C158.491 135.82 158.882 135.385 159.391 135.142C159.899 134.899 160.483 134.868 161.014 135.056L170.384 138.439C170.853 138.609 171.247 138.939 171.497 139.371C171.747 139.803 171.837 140.309 171.751 140.801C171.665 141.293 171.408 141.738 171.026 142.059C170.644 142.38 170.161 142.557 169.662 142.558H169.676Z" fill="#555555"/>
</svg>
