<svg width="32" height="32" viewBox="0 0 32 32" fill="none" xmlns="http://www.w3.org/2000/svg">
<path d="M13.3554 4.2874C15.8795 3.71711 18.5203 3.97802 20.884 5.03122C21.5566 5.33093 22.3449 5.02861 22.6446 4.35598C22.9443 3.68335 22.642 2.89512 21.9694 2.59541C19.0804 1.30817 15.8527 0.989279 12.7678 1.68629C9.68276 2.38331 6.90573 4.05888 4.85082 6.46312C2.79591 8.86736 1.57324 11.8714 1.36514 15.0273C1.15704 18.1832 1.97467 21.3219 3.69609 23.9751C5.4175 26.6284 7.95048 28.6541 10.9172 29.7501C13.884 30.8462 17.1256 30.9539 20.1585 30.0571C23.1915 29.1604 25.8533 27.3072 27.747 24.7741C29.6407 22.2409 30.6649 19.1635 30.6667 16.0007V14.7733C30.6667 14.0369 30.0697 13.44 29.3334 13.44C28.597 13.44 28 14.0369 28 14.7733V15.9992C27.9985 18.5869 27.1606 21.1048 25.6112 23.1774C24.0618 25.25 21.884 26.7662 19.4024 27.4999C16.9209 28.2336 14.2687 28.1455 11.8414 27.2487C9.41403 26.3519 7.3416 24.6945 5.93316 22.5237C4.52473 20.3529 3.85576 17.7849 4.02602 15.2028C4.19629 12.6207 5.19666 10.1628 6.87795 8.19571C8.55924 6.2286 10.8314 4.85768 13.3554 4.2874Z" fill="#3FB966"/>
<path d="M30.2766 6.27567C30.7971 5.75471 30.7966 4.91049 30.2757 4.39005C29.7547 3.86962 28.9105 3.87004 28.3901 4.391L15.9995 16.7939L12.9428 13.7372C12.4221 13.2165 11.5779 13.2165 11.0572 13.7372C10.5365 14.2579 10.5365 15.1021 11.0572 15.6228L15.0572 19.6228C15.3073 19.8729 15.6466 20.0134 16.0003 20.0133C16.3541 20.0132 16.6933 19.8726 16.9433 19.6223L30.2766 6.27567Z" fill="#3FB966"/>
</svg>
