<svg width="170" height="33" viewBox="0 0 170 33" fill="none" xmlns="http://www.w3.org/2000/svg">
<g clip-path="url(#clip0_1_334)">
<path fillRule="evenodd" clipRule="evenodd" d="M37.0955 5.72584C36.5081 5.35896 35.8342 5.15227 35.1412 5.12651C34.87 5.10597 34.5976 5.14514 34.3433 5.24123C34.089 5.33731 33.8591 5.48796 33.6699 5.68247C33.4807 5.87698 33.3368 6.11057 33.2485 6.36666C33.1602 6.62275 33.1297 6.89505 33.1591 7.16423V9.69985H37.7902L36.5861 13.01H33.2238V27.7627H28.5927V13.01H26.9625V9.69985H28.6946C28.5826 8.89624 28.5239 8.08617 28.5186 7.27487C28.5186 3.71578 30.6396 1.67806 34.3631 1.67806C35.8663 1.65392 37.347 2.04316 38.6423 2.80295L37.0955 5.72584Z" fill="white"/>
<path fillRule="evenodd" clipRule="evenodd" d="M44.6258 12.8625C44.0743 12.8671 43.539 13.0492 43.1 13.3816C42.661 13.7139 42.3417 14.1787 42.1898 14.7066C41.8078 16.0081 41.6389 17.3624 41.6896 18.7175C41.6122 20.2565 41.8162 21.7967 42.2917 23.2632C42.5094 23.7125 42.8521 24.0903 43.2789 24.3518C43.7057 24.6132 44.1988 24.7474 44.6999 24.7384C46.7468 24.7384 47.6361 22.8943 47.6361 18.6529C47.6361 16.2187 47.3211 14.6328 46.7098 13.8214C46.4612 13.5209 46.1464 13.2814 45.7898 13.1215C45.4332 12.9616 45.0445 12.8856 44.6536 12.8994L44.6258 12.8625ZM44.5887 9.41404C45.754 9.36613 46.9148 9.58569 47.9812 10.0557C49.0477 10.5258 49.9912 11.2338 50.7389 12.1249C52.1931 13.8122 52.8322 15.813 52.8322 18.7083C52.8322 21.8155 52.119 23.927 50.563 25.6881C49.8224 26.5279 48.8997 27.1892 47.8648 27.6221C46.8299 28.055 45.7096 28.2481 44.5887 28.1869C39.6612 28.1869 36.4471 24.4987 36.4471 18.8558C36.4471 13.2129 39.6982 9.41404 44.5887 9.41404" fill="white"/>
<path fillRule="evenodd" clipRule="evenodd" d="M62.4278 12.8626C61.8751 12.8667 61.3384 13.0484 60.8978 13.3807C60.4572 13.713 60.1362 14.1781 59.9826 14.7066C59.6084 16.0097 59.4428 17.3632 59.4916 18.7175C59.4122 20.256 59.613 21.796 60.0844 23.2632C60.3022 23.7126 60.6448 24.0904 61.0716 24.3518C61.4984 24.6133 61.9915 24.7475 62.4926 24.7385C64.5488 24.7385 65.4288 22.8944 65.4288 18.653C65.4288 16.2188 65.1139 14.6329 64.5026 13.8215C64.2558 13.5211 63.9427 13.2817 63.5876 13.1217C63.2326 12.9618 62.8451 12.8857 62.4556 12.8994L62.4278 12.8626ZM62.3815 9.41411C63.5482 9.36546 64.7107 9.58465 65.7787 10.0547C66.8468 10.5248 67.7918 11.2331 68.5409 12.1249C69.9858 13.8123 70.6249 15.8131 70.6249 18.7083C70.6249 21.8156 69.921 23.9271 68.365 25.6882C67.6234 26.5293 66.6993 27.1913 65.6626 27.6242C64.626 28.0571 63.5039 28.2496 62.3815 28.187C57.4632 28.187 54.24 24.4988 54.24 18.8559C54.24 13.2129 57.5002 9.41411 62.3815 9.41411" fill="white"/>
<path fillRule="evenodd" clipRule="evenodd" d="M82.9253 14.3931C82.2372 13.702 81.3169 13.2882 80.3411 13.2314C78.22 13.2314 77.2939 14.9925 77.2939 19.0034C77.2939 23.0143 78.1089 24.1484 80.5912 24.1484C81.0378 24.1168 81.4739 23.998 81.8743 23.7987C82.2748 23.5993 82.632 23.3234 82.9253 22.9866V14.3931ZM87.5564 2.342V21.078C87.5564 25.5222 87.9176 26.9606 88.2326 27.6706H83.9905C83.8332 27.3366 83.736 26.9777 83.7033 26.6102C82.5532 27.6222 81.0604 28.1626 79.526 28.1224C74.8948 28.1224 72.0236 24.5725 72.0236 18.9665C72.0236 13.3604 75.1727 9.46019 79.7761 9.46019C80.9387 9.40792 82.0818 9.77089 82.9993 10.4837C82.8925 9.59334 82.8431 8.69713 82.8512 7.80051V1.60437L87.5564 2.342Z" fill="white"/>
<path fillRule="evenodd" clipRule="evenodd" d="M103.238 10.7603L101.681 13.9229C100.326 13.1334 98.7957 12.687 97.2262 12.6228C95.8461 12.6228 94.9199 13.3236 94.9199 14.3839C94.9199 15.306 95.522 15.7947 97.1892 16.228L99.3844 16.7905C101.617 17.3529 102.358 18.0168 102.997 18.8282C103.671 19.7081 104.021 20.7922 103.988 21.8986C103.988 25.5868 100.866 28.1593 96.2352 28.1593C93.6614 28.0619 91.1487 27.3504 88.9087 26.0847L90.6038 22.6362C92.4156 23.7901 94.4814 24.4893 96.6243 24.6739C96.9173 24.7004 97.2127 24.6685 97.4933 24.5799C97.7738 24.4914 98.0338 24.3481 98.258 24.1584C98.4823 23.9686 98.6662 23.7363 98.7992 23.4749C98.9321 23.2136 99.0115 22.9284 99.0324 22.6362C99.0324 21.4007 98.1062 20.7921 96.2537 20.4141L94.1326 20.0268C92.8606 19.7589 91.6988 19.1164 90.7982 18.1827C90.1266 17.2367 89.7703 16.1047 89.7794 14.9464C89.7794 11.4242 92.558 9.06372 96.7816 9.06372C99.0513 9.08091 101.28 9.66421 103.265 10.7603" fill="white"/>
<path fillRule="evenodd" clipRule="evenodd" d="M104.803 10.5851L109.091 9.42331C109.431 9.98701 109.649 10.6151 109.73 11.2674C110.899 10.094 112.488 9.43066 114.148 9.42331C114.835 9.39786 115.52 9.51601 116.158 9.77011C116.796 10.0242 117.374 10.4086 117.853 10.8986C118.117 11.183 118.353 11.4917 118.557 11.8206C119.186 11.0756 119.971 10.4778 120.858 10.0698C121.745 9.66179 122.712 9.45363 123.689 9.46019C124.975 9.4176 126.236 9.81458 127.264 10.5851C128.292 11.5071 128.607 12.5214 128.607 14.9925V27.8089H123.976V15.8684C123.976 13.72 123.735 13.2959 122.494 13.2959C121.305 13.4383 120.197 13.9703 119.345 14.8081V27.772H114.852V16.0436C114.852 13.7938 114.528 13.2775 113.222 13.2775C112.056 13.3598 110.955 13.8458 110.11 14.6513V27.7905H105.479V15.1953C105.479 12.5951 105.303 11.5071 104.803 10.5851" fill="white"/>
<path fillRule="evenodd" clipRule="evenodd" d="M146.418 10.4467L150.67 9.31263C151.109 10.1032 151.363 10.9828 151.411 11.8851C152.129 10.9382 153.045 10.1579 154.097 9.59846C154.593 9.40666 155.121 9.30969 155.653 9.31263C156.266 9.29401 156.874 9.42708 157.422 9.69989L156.116 13.8583C155.696 13.6192 155.219 13.4981 154.736 13.5079C154.169 13.5255 153.614 13.6708 153.112 13.9327C152.61 14.1946 152.174 14.5664 151.837 15.0201V27.772H147.094V15.7301C147.162 13.9439 146.934 12.1589 146.418 10.4467" fill="white"/>
<path fillRule="evenodd" clipRule="evenodd" d="M167.444 9.69988L166.24 12.8348H163.192V22.0553C163.192 24.3512 163.618 24.9505 165.248 24.9505C165.828 24.9111 166.398 24.7901 166.943 24.5909L167.546 27.4124C166.328 27.936 165.018 28.2119 163.692 28.2238C161.284 28.2238 159.339 27.1634 158.811 25.5775C158.504 24.6895 158.394 23.7459 158.487 22.8114V12.8625C158.487 12.8625 158.487 6.84154 158.663 5.48614L163.479 4.28748C163.291 6.08868 163.196 7.89822 163.192 9.70911L167.444 9.69988Z" fill="white"/>
<path fillRule="evenodd" clipRule="evenodd" d="M139.453 19.6948H139.249C136.017 19.6948 134.896 20.2849 134.896 22.3964C134.866 22.6852 134.897 22.9769 134.987 23.2532C135.076 23.5295 135.222 23.7843 135.415 24.0017C135.608 24.2191 135.845 24.3944 136.109 24.5164C136.374 24.6384 136.661 24.7046 136.952 24.7108C137.42 24.6879 137.878 24.5687 138.297 24.3608C138.717 24.1529 139.088 23.8608 139.388 23.5029L139.453 19.6948ZM130.311 11.839C131.209 11.2395 132.176 10.7503 133.192 10.3822C134.726 9.70366 136.385 9.35191 138.064 9.34949C141.055 9.34949 143.102 10.4559 143.806 12.4291C144.097 13.4629 144.201 14.5402 144.112 15.6102L144.01 21.5574V21.8709C144.01 23.7795 144.325 24.5079 145.677 25.5037L143.213 28.3436C142.155 27.9338 141.269 27.1757 140.703 26.1952C140.375 26.5349 140.015 26.8436 139.629 27.1173C138.556 27.7811 137.306 28.1028 136.044 28.0393C132.08 28.0393 129.931 26.0293 129.931 22.5071C129.931 18.3579 132.812 16.4216 138.48 16.4216C138.832 16.4216 139.036 16.4216 139.527 16.4216V15.7024C139.527 13.7292 139.138 13.0653 137.434 13.0653C135.562 13.2304 133.778 13.9281 132.293 15.0754L130.311 11.839Z" fill="white"/>
<path fillRule="evenodd" clipRule="evenodd" d="M165.286 4.46265H167.166L167.073 4.89601H166.462V7.05359H165.925V4.89601H165.286V4.46265Z" fill="white"/>
<path fillRule="evenodd" clipRule="evenodd" d="M167.527 4.46265H168.212L168.546 5.76273C168.589 5.89168 168.62 6.02443 168.638 6.15921C168.638 6.02091 168.694 5.90104 168.731 5.75351L169.083 4.46265H169.768L170 7.05359H169.481L169.389 5.67052C169.389 5.50456 169.389 5.39391 169.389 5.25561C169.366 5.38641 169.335 5.51572 169.296 5.64286L168.833 7.05359H168.37L167.999 5.69819L167.897 5.24638C167.897 5.39391 167.897 5.54144 167.897 5.69819L167.805 7.05359H167.277L167.527 4.46265Z" fill="white"/>
<path fillRule="evenodd" clipRule="evenodd" d="M13.8749 10.5205C13.8749 13.01 11.6427 15.3612 10.17 15.3612C8.6973 15.3612 6.46509 13.01 6.46509 10.5205C6.46509 8.03097 8.16009 6.34363 10.17 6.34363C12.1799 6.34363 13.8749 8.03097 13.8749 10.5205Z" fill="white"/>
<path fillRule="evenodd" clipRule="evenodd" d="M17.5057 12.3185C17.1376 13.4308 16.5867 14.4745 15.8756 15.4074C14.3839 17.256 13.2217 19.3455 12.4393 21.5851H7.9748C7.19631 19.3438 6.03373 17.2536 4.53853 15.4074C3.82548 14.4757 3.27444 13.4316 2.90835 12.3185C2.51054 11.1913 2.39378 9.98473 2.56803 8.80262C2.74228 7.6205 3.20228 6.49821 3.90864 5.53227C4.62264 4.53131 5.56704 3.71508 6.66279 3.15181C7.75854 2.58854 8.97383 2.29462 10.207 2.29462C11.4403 2.29462 12.6555 2.58854 13.7513 3.15181C14.847 3.71508 15.7914 4.53131 16.5054 5.53227C17.2118 6.49821 17.6718 7.6205 17.8461 8.80262C18.0203 9.98473 17.9035 11.1913 17.5057 12.3185V12.3185ZM10.207 0C8.59804 0.0041151 7.01295 0.387525 5.58144 1.11884C4.14993 1.85015 2.91269 2.90858 1.97116 4.20745C1.02963 5.50633 0.410517 7.00872 0.164493 8.59163C-0.0815321 10.1745 0.0525123 11.7929 0.555698 13.3143C1.00887 14.6699 1.68497 15.9411 2.55638 17.0763C4.19497 19.0223 5.2736 21.3738 5.67777 23.881L5.9835 25.5499C6.08956 26.2817 6.45501 26.9516 7.01386 27.4386C7.57271 27.9256 8.28803 28.1975 9.03071 28.2054H9.23446C9.32751 28.6759 9.46719 29.1361 9.65133 29.5792L10.0126 30.2707C7.65995 28.2699 4.82569 27.9287 2.60274 29.9388C5.01093 32.5943 8.16007 33.3596 10.6609 31.3588C11.0487 31.8961 11.5066 32.3798 12.0224 32.7972C12.2416 32.9596 12.5163 33.0294 12.7868 32.9914C13.0574 32.9534 13.3019 32.8107 13.4674 32.5943C13.6311 32.3747 13.7014 32.0998 13.6633 31.829C13.6252 31.5581 13.4816 31.3131 13.2636 31.1467C12.342 30.3822 11.6764 29.3561 11.3556 28.2054H11.4574C12.2001 28.1975 12.9155 27.9256 13.4744 27.4386C14.0332 26.9516 14.3987 26.2817 14.5048 25.5499V25.5499L14.7363 23.881C15.1405 21.3738 16.2191 19.0223 17.8577 17.0763C18.7291 15.9411 19.4052 14.6699 19.8584 13.3143C20.3616 11.7929 20.4956 10.1745 20.2496 8.59163C20.0036 7.00872 19.3845 5.50633 18.4429 4.20745C17.5014 2.90858 16.2643 1.85015 14.8328 1.11884C13.4012 0.387525 11.816 0.0041151 10.207 0" fill="white"/>
</g>
<defs>
<clipPath id="clip0_1_334">
<rect width="170" height="33" fill="white"/>
</clipPath>
</defs>
</svg>
