<svg width="26" height="40" viewBox="0 0 26 40" fill="none" xmlns="http://www.w3.org/2000/svg">
<g id="a">
<path id="Vector" d="M17.4601 12.755C17.4601 15.7732 14.7015 18.6223 12.9455 18.6223C11.1894 18.6223 8.43082 15.7732 8.43082 12.755C8.43082 9.73688 10.5189 7.69556 12.9455 7.69556C15.372 7.69556 17.4601 9.73688 17.4601 12.755Z" fill="#D7EBA9"/>
<path id="Vector_2" d="M12.9455 0C4.4079 0 -1.70954 8.22793 1.0746 16.1428C1.71316 17.9587 2.60715 19.5492 3.53945 20.695C7.00046 24.9405 7.37722 28.948 7.37722 28.948L7.74758 30.9706C8.00939 32.7802 9.58026 34.1703 11.496 34.1828H11.7386C11.8663 34.784 12.0451 35.3475 12.2558 35.8547L12.7028 36.6938C9.81014 34.2705 6.32359 33.8572 3.58415 36.293C6.55347 39.5116 10.4423 40.4446 13.501 38.0088C14.3567 39.1484 15.1677 39.7433 15.1741 39.7495C15.736 40.1628 16.5342 40.0564 16.9557 39.5053C17.3771 38.9543 17.2686 38.1716 16.7066 37.7583C16.7066 37.7583 15.0336 36.531 14.3631 34.1828H14.478C16.3937 34.1703 17.9646 32.7802 18.2264 30.9706L18.5138 28.948C18.5138 28.948 18.8905 24.9342 22.3515 20.695C23.2838 19.5492 24.1778 17.9587 24.8164 16.1428C27.6069 8.22793 21.4831 0 12.9455 0ZM21.9237 14.928C21.4192 16.3682 20.6849 17.7332 19.9186 18.6725C17.6836 21.4151 16.4129 24.0952 15.6913 26.1615H10.1933C9.47171 24.0889 8.20096 21.4089 5.96599 18.6725C5.19971 17.7332 4.47175 16.3682 3.9609 14.928C2.97751 12.1353 3.42451 9.14214 5.19333 6.71258C7.00685 4.22041 9.8293 2.79274 12.9391 2.79274C16.0489 2.79274 18.8714 4.22041 20.6849 6.71258C22.4537 9.14214 22.9007 12.1415 21.9173 14.9342L21.9237 14.928Z" fill="#D7EBA9"/>
</g>
</svg>
