<svg xmlns="http://www.w3.org/2000/svg" fill="none" viewBox="0 0 32 32"><g fill="currentColor"><path d="M16 10.667c.736 0 1.333.597 1.333 1.333v5.333a1.333 1.333 0 1 1-2.666 0V12c0-.736.597-1.333 1.333-1.333ZM16 21.333A1.333 1.333 0 0 0 16 24h.013a1.333 1.333 0 1 0 0-2.667H16Z"/><path d="M14.038 3.044a4 4 0 0 1 5.382 1.411l.004.007 11.293 18.853.011.018a3.999 3.999 0 0 1-3.42 6H4.692a4 4 0 0 1-3.42-6l.01-.018L12.577 4.462l1.144.685-1.14-.692a4 4 0 0 1 1.458-1.41Zm.824 2.792L3.577 24.674a1.334 1.334 0 0 0 1.138 1.993h22.57a1.334 1.334 0 0 0 1.138-1.992L17.14 5.838l-.002-.002a1.333 1.333 0 0 0-2.276 0Z"/></g></svg>