<svg viewBox="0 0 24 24" fill="none" xmlns="http://www.w3.org/2000/svg">
<path fill-rule="evenodd" clip-rule="evenodd" d="M11.5 1C8.94546 1 6.57252 1.81178 4.82484 3.36689C3.06413 4.9336 2 7.20202 2 9.96875C2 12.7991 2.98766 14.6472 3.69908 15.5988C4.34396 16.4614 4.73439 17.1614 4.8999 17.8332C5.05762 18.4733 5.02942 19.1642 4.6862 20.0471L4.06794 21.6377C3.86785 22.1525 4.12293 22.732 4.6377 22.9321C5.15246 23.1322 5.73197 22.8771 5.93206 22.3623L6.55033 20.7718C7.02312 19.5554 7.1101 18.4435 6.84183 17.3547C6.58135 16.2976 6.00465 15.3426 5.30092 14.4012C4.80643 13.7398 4 12.3028 4 9.96875C4 7.74768 4.83866 6.03174 6.15434 4.86102C7.48306 3.6787 9.36012 3 11.5 3C13.6152 3 15.4738 3.66322 16.7996 4.82039C18.1126 5.96652 18.9604 7.64492 18.9987 9.81523C19.0019 9.99663 19.0543 10.1738 19.1505 10.3276L20.5039 12.493L19.6489 12.8137C19.2586 12.96 19 13.3332 19 13.75V17C19 18.1046 18.1046 19 17 19H15C14.4477 19 14 19.4477 14 20V23C14 23.5523 14.4477 24 15 24C15.5523 24 16 23.5523 16 23V21H17C19.2091 21 21 19.2091 21 17V14.443L22.3511 13.9363C22.632 13.831 22.8508 13.6051 22.9471 13.3209C23.0434 13.0368 23.007 12.7244 22.848 12.47L20.9895 9.49645C20.8739 6.91076 19.8078 4.79146 18.1147 3.31364C16.3728 1.7932 14.0253 1 11.5 1ZM10 5.6343C10 5.28399 10.284 5 10.6343 5H11.3657C11.716 5 12 5.28399 12 5.6343C12 5.92372 12.1982 6.17151 12.4674 6.27773C12.51 6.29454 12.5523 6.31206 12.5941 6.33028C12.8596 6.44577 13.1751 6.41072 13.3798 6.20599C13.6276 5.95823 14.0293 5.95823 14.277 6.20599L14.794 6.72299C15.0418 6.97075 15.0418 7.37245 14.794 7.62021C14.5893 7.82494 14.5542 8.1404 14.6697 8.4059C14.6879 8.44776 14.7055 8.49 14.7223 8.5326C14.8285 8.80183 15.0763 9 15.3657 9C15.716 9 16 9.28399 16 9.6343V10.3657C16 10.716 15.716 11 15.3657 11C15.0763 11 14.8285 11.1982 14.7223 11.4674C14.7055 11.51 14.6879 11.5522 14.6697 11.5941C14.5542 11.8596 14.5893 12.1751 14.794 12.3798C15.0418 12.6276 15.0418 13.0293 14.794 13.277L14.277 13.794C14.0293 14.0418 13.6276 14.0418 13.3798 13.794C13.1751 13.5893 12.8596 13.5542 12.5941 13.6697C12.5522 13.6879 12.51 13.7055 12.4674 13.7223C12.1982 13.8285 12 14.0763 12 14.3657C12 14.716 11.716 15 11.3657 15H10.6343C10.284 15 10 14.716 10 14.3657C10 14.0763 9.80183 13.8285 9.5326 13.7223C9.49001 13.7055 9.44777 13.688 9.40591 13.6697C9.1404 13.5542 8.82493 13.5893 8.6202 13.794C8.37243 14.0418 7.97072 14.0418 7.72295 13.794L7.20598 13.2771C6.95821 13.0293 6.95821 12.6276 7.20598 12.3798C7.41071 12.1751 7.44577 11.8596 7.33028 11.5941C7.31206 11.5523 7.29454 11.51 7.27773 11.4674C7.17151 11.1982 6.92372 11 6.6343 11C6.28399 11 6 10.716 6 10.3657V9.6343C6 9.28399 6.28399 9 6.6343 9C6.92372 9 7.17151 8.80183 7.27773 8.5326C7.29454 8.49 7.31205 8.44776 7.33027 8.40589C7.44576 8.14039 7.4107 7.82492 7.20597 7.62019C6.95821 7.37243 6.95821 6.97073 7.20597 6.72296L7.72296 6.20597C7.97072 5.95821 8.37242 5.95821 8.62018 6.20597C8.82491 6.41071 9.14038 6.44576 9.40588 6.33027C9.44775 6.31206 9.49 6.29454 9.5326 6.27773C9.80183 6.17151 10 5.92372 10 5.6343ZM13 10C13 11.1046 12.1046 12 11 12C9.89543 12 9 11.1046 9 10C9 8.89543 9.89543 8 11 8C12.1046 8 13 8.89543 13 10Z" fill="currentColor"/>
</svg>
