<svg viewBox="0 0 24 24" fill="none" xmlns="http://www.w3.org/2000/svg">
<path fill-rule="evenodd" clip-rule="evenodd" d="M3.22183 2.8076C2.83131 3.19813 2.83131 3.83129 3.22183 4.22182L19.7445 20.7445C20.1351 21.135 20.7682 21.135 21.1587 20.7445C21.5493 20.354 21.5493 19.7208 21.1587 19.3303L19.6667 17.8383C20.0973 17.4587 20.4935 17.069 20.8545 16.6839C21.8432 15.6294 22.5979 14.5787 23.1057 13.7925C23.3602 13.3985 23.5542 13.0684 23.686 12.834C23.752 12.7168 23.8025 12.6233 23.8373 12.5576C23.8547 12.5247 23.8681 12.4987 23.8777 12.4802L23.889 12.458L23.8925 12.4511L23.8941 12.4479C24.0348 12.1664 24.0348 11.8336 23.8941 11.5521L23.8925 11.5489L23.889 11.542L23.8777 11.5198C23.8681 11.5013 23.8547 11.4753 23.8373 11.4424C23.8025 11.3767 23.752 11.2832 23.686 11.166C23.5542 10.9316 23.3602 10.6015 23.1057 10.2075C22.5979 9.42131 21.8432 8.3706 20.8545 7.31606C18.8955 5.22644 15.8995 3 12 3C9.86878 3 8.00744 3.66504 6.43776 4.60932L4.63604 2.8076C4.24552 2.41708 3.61236 2.41708 3.22183 2.8076ZM7.90366 6.07522L10.2369 8.40851C10.7688 8.14692 11.3673 8 12 8C14.2091 8 16 9.79086 16 12C16 12.6328 15.8531 13.2312 15.5915 13.7631L18.2496 16.4212C18.6589 16.0666 19.0411 15.694 19.3955 15.3161C20.2818 14.3706 20.9646 13.4213 21.4256 12.7075C21.6051 12.4296 21.75 12.1889 21.8593 12C21.75 11.8111 21.6051 11.5704 21.4256 11.2925C20.9646 10.5787 20.2818 9.6294 19.3955 8.68394C17.6045 6.77356 15.1005 5 12 5C10.4882 5 9.11829 5.42165 7.90366 6.07522ZM13.9933 12.1649C13.9977 12.1105 14 12.0555 14 12C14 10.8954 13.1046 10 12 10C11.9445 10 11.8895 10.0023 11.8351 10.0067L13.9933 12.1649Z" fill="currentColor"/>
<path fill-rule="evenodd" clip-rule="evenodd" d="M12 21C13.5646 21 14.9838 20.6416 16.2489 20.0773L14.5814 18.4099L14.3334 18.6579C13.78 18.8221 13.2017 18.933 12.5994 18.9778L13.8744 17.7028L12.4601 16.2886L9.99938 18.7494C9.63266 18.6566 9.27644 18.5401 8.93095 18.4036L11.382 15.9525C11.5834 15.9838 11.7898 16 12 16C12.0563 16 12.1123 15.9988 12.1681 15.9965L8.00347 11.8319C8.00117 11.8877 8.00001 11.9437 8.00001 12C8.00001 12.0858 8.00271 12.1709 8.00803 12.2554L4.77168 15.4917C4.7153 15.4333 4.65958 15.3748 4.60454 15.3161C4.42755 15.1273 4.25868 14.9383 4.09807 14.7511L7.51037 11.3388L6.09616 9.92461L2.86982 13.1509C2.76299 12.9953 2.66447 12.8469 2.57442 12.7075C2.47756 12.5575 2.39078 12.4184 2.31423 12.2924L5.38907 9.21752L3.31215 7.14059C3.25578 7.19915 3.20022 7.25766 3.14547 7.31606C2.15684 8.3706 1.40207 9.42131 0.894343 10.2075C0.639857 10.6015 0.445799 10.9316 0.313979 11.166C0.248031 11.2832 0.197547 11.3767 0.162761 11.4424C0.145364 11.4753 0.131882 11.5013 0.122345 11.5198L0.110997 11.542L0.107546 11.5489L0.105932 11.5521C-0.0348316 11.8336 -0.0351837 12.1657 0.10558 12.4472L1 12C0.105573 12.4472 0.106377 12.4488 0.106377 12.4488L0.107546 12.4511L0.110997 12.458L0.122345 12.4802C0.131882 12.4987 0.145364 12.5247 0.162761 12.5576C0.197547 12.6233 0.248031 12.7168 0.313979 12.834C0.445799 13.0684 0.639857 13.3985 0.894343 13.7925C1.40207 14.5787 2.15684 15.6294 3.14547 16.6839C5.10449 18.7736 8.1005 21 12 21ZM9.43589 15.0702L7.07614 17.43C6.7924 17.243 6.51846 17.0445 6.25453 16.8373L8.75398 14.3379C8.95 14.6096 9.1793 14.8557 9.43589 15.0702Z" fill="currentColor"/>
</svg>
