<svg viewBox="0 0 24 24" fill="none" xmlns="http://www.w3.org/2000/svg">
<path fill-rule="evenodd" clip-rule="evenodd" d="M16 1C16.5523 1 17 1.44772 17 2V3H19C20.6569 3 22 4.34315 22 6V20C22 21.6569 20.6569 23 19 23H12V21H19C19.5523 21 20 20.5523 20 20V11H4V13H2V6C2 4.34315 3.34315 3 5 3H7V2C7 1.44772 7.44772 1 8 1C8.55228 1 9 1.44772 9 2V3H15V2C15 1.44772 15.4477 1 16 1ZM20 6V9H4V6C4 5.44772 4.44772 5 5 5H7V6C7 6.55228 7.44772 7 8 7C8.55228 7 9 6.55228 9 6V5H15V6C15 6.55228 15.4477 7 16 7C16.5523 7 17 6.55228 17 6V5H19C19.5523 5 20 5.44772 20 6ZM11 15.5C11 14.5973 9.89842 14.1567 9.27586 14.8103L3.38095 21H7C7.55228 21 8 21.4477 8 22C8 22.5523 7.55228 23 7 23H1C0.447715 23 0 22.5523 0 22V16C0 15.4477 0.447715 15 1 15C1.55228 15 2 15.4477 2 16L2 19.55L7.82759 13.431C9.69526 11.47 13 12.7919 13 15.5V18.5C13 19.0523 12.5523 19.5 12 19.5C11.4477 19.5 11 19.0523 11 18.5V15.5Z" fill="currentColor"/>
</svg>
