<svg viewBox="0 0 24 24" fill="none" xmlns="http://www.w3.org/2000/svg">
<path fill-rule="evenodd" clip-rule="evenodd" d="M11 6C11 5.44772 11.4477 5 12 5C12.5523 5 13 5.44772 13 6V6.11047C13.1605 6.14653 13.3189 6.19139 13.4743 6.24503C14.1824 6.48943 14.8151 6.91251 15.2746 7.48552C15.5247 7.79746 15.7167 8.14604 15.8401 8.5172C16.0144 9.04127 15.5523 9.5 15 9.5H14.831C14.3721 9.5 14.0013 9.0947 13.7142 8.73663C13.5461 8.5269 13.3039 8.33944 13 8.20541V11.1105C13.4042 11.2013 13.7938 11.3475 14.1532 11.5476C14.8033 11.9097 15.3406 12.4413 15.6671 13.0982C15.9958 13.7594 16.0865 14.5014 15.915 15.2199C15.7443 15.9349 15.3301 16.5621 14.7615 17.036C14.2588 17.4549 13.6494 17.7436 13 17.8895V18C13 18.5523 12.5523 19 12 19C11.4477 19 11 18.5523 11 18V17.8895C10.8395 17.8535 10.681 17.8086 10.5257 17.755C9.81761 17.5106 9.18485 17.0875 8.72541 16.5145C8.47529 16.2025 8.28333 15.854 8.1599 15.4828C7.98561 14.9587 8.44771 14.5 8.99999 14.5L9.16897 14.5C9.62793 14.5 9.99866 14.9053 10.2858 15.2634C10.4539 15.4731 10.6961 15.6606 11 15.7946V12.8895C10.5958 12.7987 10.2062 12.6525 9.8468 12.4524C9.19663 12.0903 8.65938 11.5587 8.33287 10.9018C8.00419 10.2406 7.91346 9.49858 8.08496 8.7801C8.25563 8.06507 8.66987 7.43785 9.23849 6.96401C9.74122 6.54506 10.3506 6.2564 11 6.11048V6ZM10.5189 8.50045C10.6567 8.38556 10.8188 8.28538 11 8.20543V10.7946C10.9379 10.7672 10.8777 10.7373 10.8198 10.705C10.4832 10.5176 10.2515 10.2684 10.1238 10.0116C9.99839 9.75923 9.97029 9.49587 10.0303 9.24444C10.0911 8.98957 10.2484 8.72587 10.5189 8.50045ZM13 15.7946V13.2054C13.0621 13.2328 13.1223 13.2627 13.1802 13.295C13.5168 13.4824 13.7485 13.7316 13.8762 13.9884C14.0016 14.2408 14.0297 14.5041 13.9697 14.7556C13.9088 15.0104 13.7516 15.2741 13.4811 15.4995C13.3433 15.6144 13.1812 15.7146 13 15.7946Z" fill="currentColor"/>
<path d="M5 6C5.55228 6 6 6.44772 6 7C6 7.55228 5.55228 8 5 8H3V16H5C5.55228 16 6 16.4477 6 17C6 17.5523 5.55228 18 5 18H2C1.44772 18 1 17.5523 1 17V7C1 6.44772 1.44772 6 2 6H5Z" fill="currentColor"/>
<path d="M19 16C18.4477 16 18 16.4477 18 17C18 17.5523 18.4477 18 19 18H22C22.5523 18 23 17.5523 23 17V7C23 6.44772 22.5523 6 22 6H19C18.4477 6 18 6.44772 18 7C18 7.55228 18.4477 8 19 8H21V16H19Z" fill="currentColor"/>
</svg>
