<svg xmlns="http://www.w3.org/2000/svg" fill="none" viewBox="0 0 24 24"><g fill="currentColor" clip-path="url(#a)"><path d="M12.263.615A9 9 0 0 0 3.376 16.03a1 1 0 1 0 1.248-1.562A7 7 0 1 1 15.772 7.25a1 1 0 0 0 .968.75H18a4 4 0 0 1 1.599 7.664 1 1 0 0 0 .802 1.832A6 6 0 0 0 18.001 6h-.522A8.999 8.999 0 0 0 12.263.615Z"/><path d="M9 13a1 1 0 1 0-2 0v8a1 1 0 1 0 2 0v-8ZM17 13a1 1 0 1 0-2 0v8a1 1 0 1 0 2 0v-8ZM12 14a1 1 0 0 1 1 1v8a1 1 0 1 1-2 0v-8a1 1 0 0 1 1-1Z"/></g><defs><clipPath id="a"><path fill="none" d="M0 0h24v24H0z"/></clipPath></defs></svg>