<svg xmlns="http://www.w3.org/2000/svg" fill="none" viewBox="0 0 24 24"><g fill="currentColor" clip-path="url(#a)"><path d="M18.707 8.293a1 1 0 0 1 0 1.414L16.414 12l2.293 2.293a1 1 0 0 1-1.414 1.414L15 13.414l-2.293 2.293a1 1 0 0 1-1.414-1.414L13.586 12l-2.293-2.293a1 1 0 0 1 1.414-1.414L15 10.586l2.293-2.293a1 1 0 0 1 1.414 0Z"/><path fill-rule="evenodd" d="M7.247 3.341A1 1 0 0 1 8 3h13a3 3 0 0 1 3 3v12a3 3 0 0 1-3 3H8a1 1 0 0 1-.753-.341l-7-8a1 1 0 0 1 0-1.318l7-8ZM8.454 5l-6.125 7 6.125 7H21a1 1 0 0 0 1-1V6a1 1 0 0 0-1-1H8.454Z" clip-rule="evenodd"/></g><defs><clipPath id="a"><path fill="none" d="M0 0h24v24H0z"/></clipPath></defs></svg>