<svg xmlns="http://www.w3.org/2000/svg" fill="none" viewBox="0 0 24 24"><g fill="currentColor" clip-path="url(#a)"><path d="M12.627 2.756A9 9 0 0 0 2.251 16.953a1 1 0 1 0 1.498-1.326A7 7 0 1 1 15.77 9.25a1 1 0 0 0 .969.751H18a4.003 4.003 0 0 1 3.817 2.792 4 4 0 0 1-1.512 4.48 1 1 0 1 0 1.15 1.636A6 6 0 0 0 18 8h-.52a9.002 9.002 0 0 0-4.853-5.244Z"/><path d="M12 11a1 1 0 0 1 1 1v6.586l2.293-2.293a1 1 0 0 1 1.414 1.414l-4 4a1 1 0 0 1-1.414 0l-4-4a1 1 0 1 1 1.414-1.414L11 18.586V12a1 1 0 0 1 1-1Z"/></g><defs><clipPath id="a"><path fill="none" d="M0 0h24v24H0z"/></clipPath></defs></svg>