<svg viewBox="0 0 24 24" fill="none" xmlns="http://www.w3.org/2000/svg">
    <path fill-rule="evenodd" clip-rule="evenodd" d="M12 1C5.9249 1 1.00003 5.92487 1.00003 12C1.00003 13.8925 1.47874 15.6757 2.32213 17.2326L1.03851 21.7253C0.933695 22.0921 1.04676 22.4867 1.32997 22.7423C1.61318 22.998 2.01718 23.0702 2.37142 22.9285L6.24794 21.3779C7.92199 22.4067 9.89298 23 12 23C18.0752 23 23 18.0751 23 12C23 5.92487 18.0752 1 12 1ZM3.00003 12C3.00003 7.02944 7.02947 3 12 3C16.9706 3 21 7.02944 21 12C21 16.9706 16.9706 21 12 21C10.1146 21 8.36729 20.4213 6.92231 19.432C6.64698 19.2434 6.29577 19.2047 5.98596 19.3286L3.52167 20.3143L4.3604 17.3788C4.43607 17.1139 4.39916 16.8296 4.25838 16.5929C3.45924 15.2491 3.00003 13.6797 3.00003 12Z" fill="currentColor"/>
    <path d="M12.2583 8.0244C11.7928 7.94455 11.314 8.03203 10.9068 8.27135C10.4996 8.51066 10.1902 8.88637 10.0335 9.33193C9.85024 9.85292 9.27932 10.1267 8.75833 9.94342C8.23734 9.76015 7.96357 9.18923 8.14684 8.66824C8.46031 7.77713 9.07905 7.02572 9.89345 6.54708C10.7079 6.06845 11.6654 5.89349 12.5964 6.05319C13.5275 6.21289 14.3719 6.69694 14.9803 7.41961C15.5885 8.14213 15.9214 9.05656 15.9202 10.001C15.9197 11.5314 14.7851 12.542 13.9749 13.0821C13.5392 13.3726 13.1107 13.5861 12.7951 13.7264C12.6358 13.7972 12.5017 13.8509 12.4051 13.8877C12.3567 13.9061 12.3174 13.9204 12.2889 13.9306L12.2541 13.9427L12.2431 13.9465L12.2392 13.9478L12.2377 13.9483C12.2377 13.9483 12.2364 13.9488 11.9202 13.0001L12.2364 13.9488C11.7125 14.1234 11.1461 13.8403 10.9715 13.3163C10.797 12.7927 11.0796 12.2268 11.6029 12.0517L11.6189 12.0462C11.6342 12.0407 11.6595 12.0315 11.6931 12.0187C11.7605 11.993 11.8608 11.953 11.9828 11.8988C12.2296 11.7891 12.5511 11.6276 12.8655 11.418C13.5551 10.9583 13.9202 10.4692 13.9202 10.0001L13.9202 9.99859C13.9209 9.52628 13.7544 9.06895 13.4502 8.70761C13.1461 8.34628 12.7238 8.10425 12.2583 8.0244Z" fill="currentColor"/>
    <path d="M12.0001 16.0001C11.4478 16.0001 11.0001 16.4478 11.0001 17.0001C11.0001 17.5523 11.4478 18.0001 12.0001 18.0001H12.0101C12.5623 18.0001 13.0101 17.5523 13.0101 17.0001C13.0101 16.4478 12.5623 16.0001 12.0101 16.0001H12.0001Z" fill="currentColor"/>
</svg>
