<svg viewBox="0 0 24 24" fill="none" xmlns="http://www.w3.org/2000/svg">
<path d="M10.9695 3.05919C11.5181 2.99595 11.9116 2.49992 11.8484 1.95127C11.7852 1.40261 11.2891 1.00911 10.7405 1.07234C10.3236 1.12039 9.91136 1.19207 9.50555 1.28655C8.96766 1.41179 8.63313 1.94937 8.75837 2.48726C8.88361 3.02516 9.42119 3.35969 9.95908 3.23445C10.2911 3.15715 10.6284 3.0985 10.9695 3.05919Z" fill="currentColor"/>
<path d="M6.85327 4.61682C7.30633 4.30099 7.41759 3.67767 7.10176 3.22461C6.78593 2.77154 6.16261 2.66029 5.70955 2.97612C5.36774 3.21439 5.03856 3.47272 4.72386 3.75028C4.40916 4.02784 4.11173 4.32217 3.83262 4.63154C3.46267 5.0416 3.49518 5.67393 3.90525 6.04389C4.31531 6.41384 4.94764 6.38133 5.31759 5.97126C5.54594 5.71816 5.78929 5.47734 6.04679 5.25023C6.30429 5.02312 6.57362 4.81176 6.85327 4.61682Z" fill="currentColor"/>
<path d="M3.55807 8.88006C3.74952 8.36202 3.48477 7.78687 2.96673 7.59541C2.44869 7.40396 1.87354 7.66871 1.68208 8.18675C1.53765 8.57758 1.41503 8.97765 1.31529 9.38524C1.21554 9.79282 1.13955 10.2043 1.08719 10.6177C1.01779 11.1656 1.40569 11.666 1.95359 11.7354C2.5015 11.8048 3.00193 11.4169 3.07133 10.869C3.11417 10.5308 3.17635 10.1942 3.25796 9.86065C3.33958 9.52714 3.4399 9.19981 3.55807 8.88006Z" fill="currentColor"/>
<path d="M3.28878 14.2616C3.15 13.727 2.60414 13.4062 2.06958 13.545C1.53502 13.6838 1.21417 14.2296 1.35296 14.7642C1.45766 15.1675 1.58557 15.5659 1.73653 15.9574C1.88749 16.3489 2.06018 16.7301 2.25333 17.0993C2.50935 17.5886 3.1136 17.7778 3.60296 17.5218C4.09232 17.2657 4.28147 16.6615 4.02545 16.1721C3.86743 15.8701 3.72614 15.5582 3.60261 15.2379C3.47909 14.9175 3.37444 14.5916 3.28878 14.2616Z" fill="currentColor"/>
<path d="M6.14193 18.8325C5.72265 18.473 5.09134 18.5215 4.73187 18.9408C4.37239 19.3601 4.42086 19.9914 4.84014 20.3508C5.15646 20.622 5.48903 20.876 5.83659 21.1111C6.29404 21.4206 6.91573 21.3006 7.22518 20.8431C7.53463 20.3857 7.41466 19.764 6.95721 19.4545C6.67282 19.2622 6.40072 19.0544 6.14193 18.8325Z" fill="currentColor"/>
<path d="M13.6223 2.08192C13.7652 1.54845 14.3135 1.23187 14.847 1.37481C17.665 2.12988 20.0676 3.97347 21.5263 6.49999C22.985 9.02652 23.3803 12.029 22.6252 14.847C21.8701 17.665 20.0265 20.0676 17.5 21.5263C14.9735 22.985 11.971 23.3803 9.15299 22.6252C8.61952 22.4822 8.30294 21.9339 8.44588 21.4004C8.58883 20.867 9.13716 20.5504 9.67063 20.6933C11.9762 21.3111 14.4328 20.9877 16.5 19.7942C18.5672 18.6007 20.0755 16.635 20.6933 14.3294C21.3111 12.0238 20.9877 9.56715 19.7942 7.49999C18.6008 5.43284 16.635 3.92445 14.3294 3.30666C13.7959 3.16372 13.4793 2.61538 13.6223 2.08192Z" fill="currentColor"/>
<path d="M13 6C13 5.44771 12.5523 5 12 5C11.4477 5 11 5.44771 11 6V12C11 12.3788 11.214 12.725 11.5528 12.8944L15.5528 14.8944C16.0468 15.1414 16.6474 14.9412 16.8944 14.4472C17.1414 13.9532 16.9412 13.3526 16.4472 13.1056L13 11.382V6Z" fill="currentColor"/>
</svg>
