<svg viewBox="0 0 24 24" fill="none" xmlns="http://www.w3.org/2000/svg">
<path fill-rule="evenodd" clip-rule="evenodd" d="M2 5C2 3.89543 2.89543 3 4 3H20C21.1046 3 22 3.89543 22 5V15C23.1046 15 24 15.8954 24 17V19C24 20.1046 23.1046 21 22 21H2C0.895431 21 0 20.1046 0 19V17C0 15.8954 0.895431 15 2 15L2 5ZM4 15H8.75C9.20887 15 9.60885 15.3123 9.72014 15.7575L9.78078 16H14.2192L14.2799 15.7575C14.3911 15.3123 14.7911 15 15.25 15H20V5H4V15ZM2 17H7.96922L8.02986 17.2425C8.14115 17.6877 8.54113 18 9 18H15C15.4589 18 15.8589 17.6877 15.9701 17.2425L16.0308 17H22V19H2V17Z" fill="currentColor"/>
</svg>
