<svg viewBox="0 0 24 24" fill="none" xmlns="http://www.w3.org/2000/svg">
<path fill-rule="evenodd" clip-rule="evenodd" d="M0 8C0 5.79086 1.79086 4 4 4H20C22.2091 4 24 5.79086 24 8V16C24 18.2091 22.2091 20 20 20H4C1.79086 20 0 18.2091 0 16V8ZM4 6C2.89543 6 2 6.89543 2 8V16C2 17.1046 2.89543 18 4 18H20C21.1046 18 22 17.1046 22 16V8C22 6.89543 21.1046 6 20 6H4Z" fill="currentColor"/>
<path d="M10 10C10 11.1046 9.10457 12 8 12C6.89543 12 6 11.1046 6 10C6 8.89543 6.89543 8 8 8C9.10457 8 10 8.89543 10 10Z" fill="currentColor"/>
<path d="M4 16C4 14.3431 5.34315 13 7 13H9C10.6569 13 12 14.3431 12 16H4Z" fill="currentColor"/>
<path d="M13 9C13 8.44772 13.4477 8 14 8H19C19.5523 8 20 8.44772 20 9C20 9.55228 19.5523 10 19 10H14C13.4477 10 13 9.55228 13 9Z" fill="currentColor"/>
<path d="M13 12C13 11.4477 13.4477 11 14 11H19C19.5523 11 20 11.4477 20 12C20 12.5523 19.5523 13 19 13H14C13.4477 13 13 12.5523 13 12Z" fill="currentColor"/>
<path d="M13 15C13 14.4477 13.4477 14 14 14H19C19.5523 14 20 14.4477 20 15C20 15.5523 19.5523 16 19 16H14C13.4477 16 13 15.5523 13 15Z" fill="currentColor"/>
</svg>
