<svg viewBox="0 0 24 24" fill="none" xmlns="http://www.w3.org/2000/svg">
<path fill-rule="evenodd" clip-rule="evenodd" d="M9 8C7.34315 8 6 9.34315 6 11C6 12.6569 7.34315 14 9 14C10.6569 14 12 12.6569 12 11C12 9.34315 10.6569 8 9 8ZM8 11C8 10.4477 8.44772 10 9 10C9.55228 10 10 10.4477 10 11C10 11.5523 9.55228 12 9 12C8.44772 12 8 11.5523 8 11Z" fill="currentColor"/>
<path d="M17 10C16.4477 10 16 10.4477 16 11V12H15C14.4477 12 14 12.4477 14 13C14 13.5523 14.4477 14 15 14H16V15C16 15.5523 16.4477 16 17 16C17.5523 16 18 15.5523 18 15V14H19C19.5523 14 20 13.5523 20 13C20 12.4477 19.5523 12 19 12H18V11C18 10.4477 17.5523 10 17 10Z" fill="currentColor"/>
<path fill-rule="evenodd" clip-rule="evenodd" d="M0.87868 2.87868C1.44129 2.31607 2.20435 2 3 2H9C9.33435 2 9.64658 2.1671 9.83205 2.4453L11.5352 5H21C21.7957 5 22.5587 5.31607 23.1213 5.87868C23.6839 6.44129 24 7.20435 24 8V19C24 19.7957 23.6839 20.5587 23.1213 21.1213C22.5587 21.6839 21.7957 22 21 22H13C12.4477 22 12 21.5523 12 21V19C12 17.8954 11.1046 17 10 17H8C6.89543 17 6 17.8954 6 19V21C6 21.5523 5.55228 22 5 22H3C2.20435 22 1.44129 21.6839 0.87868 21.1213C0.316071 20.5587 0 19.7957 0 19V5C0 4.20435 0.31607 3.44129 0.87868 2.87868ZM4 20V19C4 16.7909 5.79086 15 8 15H10C12.2091 15 14 16.7909 14 19V20H21C21.2652 20 21.5196 19.8946 21.7071 19.7071C21.8946 19.5196 22 19.2652 22 19V8C22 7.73478 21.8946 7.48043 21.7071 7.29289C21.5196 7.10536 21.2652 7 21 7H11C10.6656 7 10.3534 6.8329 10.1679 6.5547L8.46482 4H3C2.73478 4 2.48043 4.10536 2.29289 4.29289C2.10536 4.48043 2 4.73478 2 5V19C2 19.2652 2.10536 19.5196 2.29289 19.7071C2.48043 19.8946 2.73478 20 3 20H4Z" fill="currentColor"/>
</svg>
