<svg viewBox="0 0 24 24" fill="none" xmlns="http://www.w3.org/2000/svg">
<path fill-rule="evenodd" clip-rule="evenodd" d="M3.82008 3C3.23937 3 2.87187 3.48769 2.93877 3.96008C4.31912 13.7066 11.6217 21 20.2707 21L20.2997 21C20.6912 20.9992 21.0708 20.6442 21.0708 20.1035V16.5954C21.0708 16.1265 20.7649 15.7552 20.3648 15.678C20.2517 15.6561 20.1377 15.6344 20.0231 15.6126C18.9315 15.4047 17.7796 15.1853 16.6889 14.7389C16.0238 14.4666 15.3985 14.6128 15.0941 14.9696L14.6441 15.4971C14.0041 16.2473 12.8884 16.4155 12.0756 15.772C10.822 14.7794 9.68106 13.628 8.67651 12.3452C8.053 11.549 8.1494 10.4277 8.805 9.73151L9.42451 9.07366C9.72919 8.75014 9.83392 8.13645 9.57491 7.47886C9.12564 6.33821 8.91992 5.13696 8.72665 4.00842C8.71104 3.91728 8.69551 3.82661 8.67995 3.73649C8.6079 3.3194 8.24957 3 7.79565 3H3.82008ZM1.03001 4.2506C0.774903 2.44931 2.18407 1 3.82008 1H7.79565C9.13832 1 10.3343 1.9677 10.579 3.38395C10.5921 3.45987 10.605 3.53505 10.6178 3.60951C10.8206 4.78782 10.9925 5.78732 11.361 6.72281C11.8105 7.86406 11.8096 9.40402 10.805 10.4708L10.1982 11.1151C11.0935 12.2536 12.1056 13.2747 13.2129 14.1558L13.649 13.6446C14.6507 12.4705 16.2289 12.4003 17.3974 12.8786C18.3035 13.2495 19.2686 13.4342 20.3947 13.6497C20.5009 13.6701 20.6086 13.6907 20.7178 13.7117C22.0758 13.9737 23 15.2105 23 16.5954V20.1035C23 21.6101 21.8866 22.997 20.3032 23L20.2707 23C10.5016 23 2.52436 14.8021 1.03001 4.2506Z" fill="currentColor"/>
</svg>
