<svg viewBox="0 0 24 24" fill="none" xmlns="http://www.w3.org/2000/svg">
<path fill-rule="evenodd" clip-rule="evenodd" d="M2 1C1.44772 1 1 1.44772 1 2C1 2.55228 1.44772 3 2 3H3.02729L3.99982 7.18438L5.7323 16.1889C5.82288 16.6597 6.23485 17 6.71429 17H19.0952C19.5609 17 19.9649 16.6786 20.0696 16.225L22.1475 7.22496C22.2161 6.92801 22.1455 6.616 21.9558 6.37749C21.7661 6.13898 21.4779 6 21.1732 6H5.81254L4.84 1.81563C4.75128 1.34269 4.33833 1 3.85714 1H2ZM7.54023 15L6.19342 8H19.916L18.2998 15H7.54023ZM10 21C10 22.1046 9.10457 23 8 23C6.89543 23 6 22.1046 6 21C6 19.8954 6.89543 19 8 19C9.10457 19 10 19.8954 10 21ZM20 21C20 22.1046 19.1046 23 18 23C16.8954 23 16 22.1046 16 21C16 19.8954 16.8954 19 18 19C19.1046 19 20 19.8954 20 21Z" fill="currentColor"/>
</svg>
