<svg viewBox="0 0 24 24" fill="none" xmlns="http://www.w3.org/2000/svg">
<path fill-rule="evenodd" clip-rule="evenodd" d="M5 1C5.55228 1 6 1.44772 6 2V4C6 4.55228 5.55228 5 5 5C4.4605 5 4.02079 4.57278 4.00072 4.03819C3.42613 4.17977 3 4.69854 3 5.31683V10C3 12.7614 5.23858 15 8 15C10.7614 15 13 12.7614 13 10V5.31683C13 4.69854 12.5739 4.17977 11.9993 4.03819C11.9792 4.57277 11.5395 5 11 5C10.4477 5 10 4.55228 10 4V2C10 1.44772 10.4477 1 11 1C11.5523 1 12 1.44772 12 2V2.01494C13.6832 2.17444 15 3.59186 15 5.31683V10C15 13.5257 12.3935 16.4425 9.00236 16.9288C9.04251 18.4345 9.59176 19.3861 10.371 19.9916C11.2207 20.652 12.4741 21 14 21C15.5259 21 16.7793 20.652 17.629 19.9916C18.4386 19.3625 19 18.3597 19 16.75V13.8293C17.8348 13.4175 17 12.3062 17 11C17 9.34315 18.3431 8 20 8C21.6569 8 23 9.34315 23 11C23 12.3062 22.1652 13.4175 21 13.8293V16.75C21 18.8903 20.2182 20.5125 18.8562 21.5709C17.5345 22.598 15.7878 23 14 23C12.2122 23 10.4655 22.598 9.14376 21.5709C7.8201 20.5423 7.04444 18.9811 7.00185 16.9294C3.60866 16.4449 1 13.5271 1 10V5.31683C1 3.59186 2.31679 2.17445 4 2.01494V2C4 1.44772 4.44772 1 5 1ZM20 10C19.4477 10 19 10.4477 19 11C19 11.5523 19.4477 12 20 12C20.5523 12 21 11.5523 21 11C21 10.4477 20.5523 10 20 10Z" fill="currentColor"/>
</svg>
