<svg viewBox="0 0 24 24" fill="none" xmlns="http://www.w3.org/2000/svg">
<path d="M11 7C11 6.44772 10.5523 6 10 6C9.44772 6 9 6.44772 9 7V9H7C6.44772 9 6 9.44771 6 10C6 10.5523 6.44772 11 7 11H9V13C9 13.5523 9.44772 14 10 14C10.5523 14 11 13.5523 11 13V11H13C13.5523 11 14 10.5523 14 10C14 9.44771 13.5523 9 13 9H11V7Z" fill="currentColor"/>
<path fill-rule="evenodd" clip-rule="evenodd" d="M2 5C2 3.34315 3.34315 2 5 2H19C20.6569 2 22 3.34315 22 5V14C22 14.2652 21.8946 14.5196 21.7071 14.7071L14.7071 21.7071C14.5196 21.8946 14.2652 22 14 22H5C3.34315 22 2 20.6569 2 19V5ZM5 4C4.44772 4 4 4.44772 4 5V19C4 19.5523 4.44772 20 5 20H13L13 14C13 13.4477 13.4477 13 14 13H20V5C20 4.44772 19.5523 4 19 4H5ZM18.5858 15L15 18.5858V15H18.5858Z" fill="currentColor"/>
</svg>
