<svg viewBox="0 0 24 24" fill="none" xmlns="http://www.w3.org/2000/svg">
<path d="M6 7C6 6.44772 6.44772 6 7 6H17C17.5523 6 18 6.44772 18 7C18 7.55228 17.5523 8 17 8H7C6.44772 8 6 7.55228 6 7Z" fill="currentColor"/>
<path d="M7 10C6.44772 10 6 10.4477 6 11C6 11.5523 6.44772 12 7 12H17C17.5523 12 18 11.5523 18 11C18 10.4477 17.5523 10 17 10H7Z" fill="currentColor"/>
<path fill-rule="evenodd" clip-rule="evenodd" d="M5 2C3.34315 2 2 3.34315 2 5V19C2 20.6569 3.34315 22 5 22H14C14.2652 22 14.5196 21.8946 14.7071 21.7071L21.7071 14.7071C21.8946 14.5196 22 14.2652 22 14V5C22 3.34315 20.6569 2 19 2H5ZM4 5C4 4.44772 4.44772 4 5 4H19C19.5523 4 20 4.44772 20 5V13H14C13.4477 13 13 13.4477 13 14L13 20H5C4.44772 20 4 19.5523 4 19V5ZM15 18.5858L18.5858 15H15V18.5858Z" fill="currentColor"/>
</svg>
