<svg viewBox="0 0 24 24" fill="none" xmlns="http://www.w3.org/2000/svg">
<path fill-rule="evenodd" clip-rule="evenodd" d="M3 20H6.71582L10.3318 11.412L4.34029 8.92829C3.31992 8.5053 2.83564 7.33523 3.25863 6.31486C3.67531 5.3097 4.3495 4.45054 5.20756 3.77956C6.06148 3.11181 7.07032 2.65043 8.14976 2.38653C9.22905 2.12268 10.3763 2.05632 11.5248 2.16933C12.3599 2.2515 13.1938 2.42823 14.0037 2.69129L14.0427 2.59871C14.2647 2.07129 14.8574 1.81748 15.3664 2.03179C15.8754 2.24611 16.108 2.84741 15.8859 3.37483L15.8488 3.46301C16.5818 3.84296 17.2727 4.29601 17.9015 4.81271C18.7931 5.54539 19.5569 6.404 20.133 7.35407C20.7091 8.30427 21.0957 9.3441 21.2267 10.4202C21.3584 11.5014 21.227 12.5856 20.8103 13.5908C20.3873 14.6111 19.2173 15.0954 18.1969 14.6724L12.1794 12.1779L8.88587 20H21C21.5523 20 22 20.4477 22 21C22 21.5523 21.5523 22 21 22H3C2.44772 22 2 21.5523 2 21C2 20.4477 2.44772 20 3 20ZM18.9628 12.8249C19.2249 12.1924 19.3237 11.4991 19.2543 10.7807C19.2505 10.7412 19.2462 10.7016 19.2414 10.6619C19.1487 9.90117 18.8706 9.12952 18.4228 8.39103C17.975 7.65254 17.3664 6.96168 16.6317 6.3579C16.1538 5.96523 15.6288 5.6144 15.0697 5.31332C14.7692 5.15144 14.4588 5.00395 14.1407 4.87207C13.8395 4.74724 13.5334 4.63721 13.2242 4.54248C12.5994 4.35099 11.9622 4.22202 11.329 4.15971C10.3826 4.06659 9.46365 4.12422 8.62472 4.32932C7.78579 4.53441 7.04327 4.88296 6.43956 5.35505C6.40808 5.37966 6.37702 5.40459 6.34636 5.42982C5.78908 5.8885 5.36834 6.44832 5.10617 7.08074L18.9628 12.8249Z" fill="currentColor"/>
</svg>
