<svg viewBox="0 0 24 24" fill="none" xmlns="http://www.w3.org/2000/svg">
<path fill-rule="evenodd" clip-rule="evenodd" d="M15.7116 4.0791L9.33348 6H17V5.03661C17 4.36631 16.3535 3.8858 15.7116 4.0791ZM19 6.17071V5.03661C19 3.02568 17.0604 1.58416 15.1349 2.16406L3.13487 5.7781C1.86747 6.1598 1 7.32702 1 8.65065V9V19C1 20.6569 2.34315 22 4 22H18C19.6569 22 21 20.6569 21 19V18.8293C22.1652 18.4175 23 17.3062 23 16V12C23 10.6938 22.1652 9.58254 21 9.17071V9C21 7.69378 20.1652 6.58254 19 6.17071ZM12 14C12 16.7614 14.2386 19 17 19H19C19 19.5523 18.5523 20 18 20H4C3.44772 20 3 19.5523 3 19V9C3 8.44772 3.44772 8 4 8H18C18.5523 8 19 8.44772 19 9H17C14.2386 9 12 11.2386 12 14ZM20 11H17C15.3431 11 14 12.3431 14 14C14 15.6569 15.3431 17 17 17H20C20.5523 17 21 16.5523 21 16V12C21 11.4477 20.5523 11 20 11ZM17 15C17.5523 15 18 14.5523 18 14C18 13.4477 17.5523 13 17 13C16.4477 13 16 13.4477 16 14C16 14.5523 16.4477 15 17 15Z" fill="currentColor"/>
</svg>
