<svg viewBox="0 0 24 24" fill="none" xmlns="http://www.w3.org/2000/svg">
<path d="M2.08117 9.75014C4.82094 7.33511 8.3477 6.00262 11.9999 6.00262C15.6521 6.00262 19.1789 7.33511 21.9187 9.75014C22.333 10.1153 22.9649 10.0755 23.3301 9.66122C23.6953 9.24692 23.6555 8.61501 23.2412 8.24981C20.1361 5.51277 16.1391 4.00262 11.9999 4.00262C7.86074 4.00262 3.86375 5.51277 0.758673 8.24981C0.344368 8.61501 0.304559 9.24692 0.669757 9.66122C1.03496 10.0755 1.66687 10.1153 2.08117 9.75014Z" fill="currentColor"/>
<path d="M5.64 13.3184C7.43688 11.8217 9.70146 11.0021 12.04 11.0021C14.3785 11.0021 16.6431 11.8217 18.44 13.3184C18.8644 13.6719 19.4949 13.6144 19.8484 13.19C20.2018 12.7657 20.1444 12.1351 19.72 11.7816C17.5638 9.98564 14.8462 9.00214 12.04 9.00214C9.23375 9.00214 6.51625 9.98564 4.36 11.7816C3.93564 12.1351 3.87816 12.7657 4.23163 13.19C4.58509 13.6144 5.21564 13.6719 5.64 13.3184Z" fill="currentColor"/>
<path d="M12.005 16.0013C10.9673 16.0013 9.9552 16.3242 9.1092 16.9252C8.65897 17.2451 8.03469 17.1394 7.71482 16.6892C7.39496 16.239 7.50064 15.6147 7.95086 15.2948C9.13527 14.4534 10.5521 14.0013 12.005 14.0013C13.4579 14.0013 14.8748 14.4534 16.0592 15.2948C16.5094 15.6147 16.6151 16.239 16.2952 16.6892C15.9754 17.1394 15.3511 17.2451 14.9009 16.9252C14.0549 16.3242 13.0428 16.0013 12.005 16.0013Z" fill="currentColor"/>
<path d="M12 19C11.4477 19 11 19.4477 11 20C11 20.5523 11.4477 21 12 21H12.01C12.5623 21 13.01 20.5523 13.01 20C13.01 19.4477 12.5623 19 12.01 19H12Z" fill="currentColor"/>
</svg>
