<svg viewBox="0 0 24 24" fill="none" xmlns="http://www.w3.org/2000/svg">
<path d="M18.7647 4.36364C19.9992 4.36364 21 3.3868 21 2.18182C21 0.976833 19.9992 0 18.7647 0C17.5302 0 16.5294 0.976833 16.5294 2.18182C16.5294 3.3868 17.5302 4.36364 18.7647 4.36364Z" fill="currentColor"/>
<path fill-rule="evenodd" clip-rule="evenodd" d="M12.7084 2.38502C12.3716 2.15015 11.9293 2.11628 11.559 2.29699L7.0884 4.47881C6.53631 4.74825 6.31253 5.40353 6.58858 5.94242C6.86462 6.4813 7.53596 6.69973 8.08806 6.43029L11.9568 4.54221L13.0135 5.27894L9.8339 8.72728L9.82353 8.72727C5.50271 8.72727 2 12.1462 2 16.3636C2 20.5811 5.50271 24 9.82353 24C14.1443 24 17.6471 20.5811 17.6471 16.3636C17.6471 14.5201 16.9778 12.8292 15.8635 11.5097L18.6806 11.0973L18.2081 18.4774C18.1696 19.0787 18.6378 19.5967 19.2538 19.6342C19.8699 19.6718 20.4005 19.2148 20.439 18.6135L20.9978 9.88624C21.0189 9.55739 20.8865 9.23688 20.6377 9.01418C20.389 8.79149 20.0504 8.69048 19.7166 8.73935L15.2319 9.39596L16.5144 8.00502C17.6453 6.90123 18.2041 6.00284 16.357 4.92882L12.7084 2.38502ZM9.82353 21.8182C12.9098 21.8182 15.4118 19.3761 15.4118 16.3636C15.4118 13.3512 12.9098 10.9091 9.82353 10.9091C6.73723 10.9091 4.23529 13.3512 4.23529 16.3636C4.23529 19.3761 6.73723 21.8182 9.82353 21.8182Z" fill="currentColor"/>
</svg>
