<svg viewBox="0 0 24 24" fill="none" xmlns="http://www.w3.org/2000/svg">
<path d="M7.19469 20C7.69208 20 8.10155 20.367 8.3592 20.7925C8.79732 21.516 9.59282 22 10.5 22C11.8807 22 13 20.8807 13 19.5C13 17.9936 13.9384 15.2757 15.7008 14.7561C18.188 14.0227 20 11.7204 20 9C20 5.68629 17.5 2 13 2C10.3279 2 8.06376 3.74676 7.28717 6.16071C7.13438 6.63564 6.71752 7 6.21861 7C5.60434 7 5.12423 6.45846 5.28768 5.86634C6.22139 2.48391 9.32062 0 13 0C18.4183 0 22 4.58172 22 9C22 12.6311 19.5809 15.6972 16.2664 16.6744C15.508 16.898 15 18.7093 15 19.5C15 21.9853 12.9853 24 10.5 24C8.58986 24 6.95768 22.8099 6.30455 21.1307C6.07879 20.5502 6.57191 20 7.19469 20Z" fill="currentColor"/>
<path d="M15.6422 9.98956C16.1915 10.3067 16.9077 10.0683 16.9763 9.43775C16.992 9.29398 17 9.14793 17 9C17 6.79086 15.2092 5 13 5C12.1145 5 11.2961 5.28777 10.6334 5.77489C10.1224 6.15051 10.2737 6.89008 10.823 7.20719C11.2477 7.45238 11.7779 7.34226 12.2304 7.15342C12.4673 7.05458 12.7273 7 13 7C14.1046 7 15 7.89543 15 9C15 9.33952 15.1247 9.6908 15.4188 9.86056L15.6422 9.98956Z" fill="currentColor"/>
<path d="M13.3137 8.41417C13.7042 8.80469 13.7042 9.43786 13.3137 9.82838C12.9232 10.2189 12.29 10.2189 11.8995 9.82838C11.509 9.43786 11.509 8.80469 11.8995 8.41417C12.29 8.02365 12.9232 8.02365 13.3137 8.41417Z" fill="currentColor"/>
<path d="M11.1924 11.9497C11.5829 11.5592 11.5829 10.926 11.1924 10.5355C10.8019 10.145 10.1687 10.145 9.77818 10.5355C9.38766 10.926 9.38766 11.5592 9.77818 11.9497C10.1687 12.3402 10.8019 12.3402 11.1924 11.9497Z" fill="currentColor"/>
<path d="M6.24265 12.6569L7.65686 11.2426L10.4853 14.0711L9.07107 15.4853L6.24265 12.6569Z" fill="currentColor"/>
<path d="M6.94975 16.1924C7.34028 15.8019 7.34028 15.1687 6.94975 14.7782C6.55923 14.3877 5.92606 14.3877 5.53554 14.7782C5.14501 15.1687 5.14501 15.8019 5.53554 16.1924C5.92606 16.5829 6.55923 16.5829 6.94975 16.1924Z" fill="currentColor"/>
<path d="M4.82843 18.3137C5.21895 17.9231 5.21895 17.29 4.82843 16.8995C4.43791 16.5089 3.80474 16.5089 3.41422 16.8995C3.02369 17.29 3.02369 17.9231 3.41422 18.3137C3.80474 18.7042 4.43791 18.7042 4.82843 18.3137Z" fill="currentColor"/>
</svg>
