<svg xmlns="http://www.w3.org/2000/svg" fill="none" viewBox="0 0 24 24"><g clip-path="url(#a)"><path fill="currentColor" fill-rule="evenodd" d="M7.14 14.355a8 8 0 1 1 9.722 0l1.13 8.514a1 1 0 0 1-1.507.989L12 21.166l-4.486 2.692a1 1 0 0 1-1.505-.99l1.13-8.513ZM6 8a6 6 0 1 1 9.33 4.992.994.994 0 0 0-.16.103A6 6 0 0 1 6 8Zm8.986 7.424A7.977 7.977 0 0 1 12 16a7.978 7.978 0 0 1-2.985-.575l-.75 5.65 3.22-1.933a1 1 0 0 1 1.03 0l3.22 1.933-.749-5.65Z" clip-rule="evenodd"/></g><defs><clipPath id="a"><path fill="none" d="M0 0h24v24H0z"/></clipPath></defs></svg>