<svg xmlns="http://www.w3.org/2000/svg" fill="none" viewBox="0 0 24 24"><g fill="currentColor" clip-path="url(#a)"><path fill-rule="evenodd" d="M1.707.293A1 1 0 0 0 .293 1.707L5.58 6.995 5 8c0 3.352-.717 5.434-1.378 6.645a5.938 5.938 0 0 1-.88 1.244 3.036 3.036 0 0 1-.305.284l-.003.002A1 1 0 0 0 3 18h13.586l5.707 5.707a1 1 0 0 0 1.414-1.414L17.715 16.3a.736.736 0 0 0-.015-.016L6.982 5.568a.983.983 0 0 0-.033-.032L1.707.293Zm5.29 8.118c-.057 3.419-.812 5.713-1.619 7.193-.076.14-.153.271-.229.396h9.437l-7.59-7.59Z" clip-rule="evenodd"/><path d="M15.306 1.821a7 7 0 0 0-7.191.347 1 1 0 1 0 1.11 1.664A5 5 0 0 1 17 7.996a18.892 18.892 0 0 0 .665 5.268 1 1 0 0 0 1.93-.527A16.889 16.889 0 0 1 19 8.015l-3.694-6.195Z"/><path d="M15.306 1.821A7 7 0 0 1 19 7.99l-3.694-6.168ZM11.135 20.498a1 1 0 1 0-1.73 1.004 3.001 3.001 0 0 0 5.19 0 1 1 0 1 0-1.73-1.004 1 1 0 0 1-1.73 0Z"/></g><defs><clipPath id="a"><path fill="none" d="M0 0h24v24H0z"/></clipPath></defs></svg>