<svg xmlns="http://www.w3.org/2000/svg" fill="none" viewBox="0 0 24 24"><g clip-path="url(#a)"><path fill="currentColor" fill-rule="evenodd" d="M10.494 3.825 12 2.587l1.506 1.236a3 3 0 0 0 2.081.677l1.945-.116.492 1.886a3 3 0 0 0 1.286 1.77l1.641 1.05-.71 1.815a3 3 0 0 0 0 2.188l.71 1.815-1.641 1.05a3 3 0 0 0-1.286 1.77l-.492 1.886-1.945-.116a3 3 0 0 0-2.081.677L12 21.412l-1.506-1.236a3 3 0 0 0-2.081-.677l-1.945.116-.492-1.886a3 3 0 0 0-1.286-1.77l-1.641-1.05.71-1.815a3 3 0 0 0 0-2.188l-.71-1.814 1.64-1.05A3 3 0 0 0 5.977 6.27l.492-1.886 1.945.116a3 3 0 0 0 2.081-.677ZM11.365.52a1 1 0 0 1 1.27 0l2.14 1.758a1 1 0 0 0 .694.225l2.765-.164a1 1 0 0 1 1.026.746l.699 2.68a1 1 0 0 0 .429.59L22.72 7.85a1 1 0 0 1 .392 1.207l-1.01 2.58a1 1 0 0 0 0 .729l1.01 2.579a1 1 0 0 1-.392 1.207l-2.333 1.492a1 1 0 0 0-.429.59l-.698 2.68a1 1 0 0 1-1.027.747l-2.765-.164a1 1 0 0 0-.694.225l-2.14 1.758a1 1 0 0 1-1.27 0l-2.14-1.758a1 1 0 0 0-.694-.225l-2.765.164a1 1 0 0 1-1.027-.746l-.698-2.68a1 1 0 0 0-.429-.59L1.28 16.15a1 1 0 0 1-.392-1.207l1.01-2.58a1 1 0 0 0 0-.729L.887 9.056a1 1 0 0 1 .392-1.207l2.333-1.492a1 1 0 0 0 .429-.59l.698-2.68a1 1 0 0 1 1.027-.747l2.765.164a1 1 0 0 0 .694-.225L11.365.52ZM11 6a1 1 0 1 1 2 0v.11c.16.037.319.081.474.135.708.244 1.341.668 1.8 1.24.25.312.443.661.566 1.032.174.524-.288.983-.84.983h-.169c-.459 0-.83-.405-1.117-.763A1.884 1.884 0 0 0 13 8.205v2.905c.404.091.794.238 1.153.438a3.66 3.66 0 0 1 1.514 1.55c.329.661.42 1.403.248 2.122a3.404 3.404 0 0 1-1.153 1.816A4.182 4.182 0 0 1 13 17.89V18a1 1 0 1 1-2 0v-.11a4.418 4.418 0 0 1-.474-.135 3.947 3.947 0 0 1-1.8-1.24 3.333 3.333 0 0 1-.566-1.032c-.174-.524.288-.983.84-.983h.169c.459 0 .83.405 1.117.763.168.21.41.398.714.532V12.89a4.316 4.316 0 0 1-1.153-.438 3.66 3.66 0 0 1-1.514-1.55 3.116 3.116 0 0 1-.248-2.122 3.404 3.404 0 0 1 1.153-1.816A4.182 4.182 0 0 1 11 6.11V6Zm-.481 2.5c.138-.114.3-.215.481-.295v2.59a2.159 2.159 0 0 1-.18-.09 1.664 1.664 0 0 1-.696-.693 1.116 1.116 0 0 1-.094-.768c.061-.254.218-.518.489-.744ZM13 15.795v-2.59c.062.028.122.058.18.09.337.187.569.437.696.693.126.253.154.516.094.768-.061.254-.218.518-.489.743-.138.115-.3.216-.481.296Z" clip-rule="evenodd"/></g><defs><clipPath id="a"><path fill="none" d="M0 0h24v24H0z"/></clipPath></defs></svg>