<svg viewBox="0 0 24 24" fill="none" xmlns="http://www.w3.org/2000/svg">
<path fill-rule="evenodd" clip-rule="evenodd" d="M8 2C8.55229 2 9 2.44772 9 3V3.76393L9.46323 4.69039C10.2069 4.25169 11.0741 4 12 4C12.9259 4 13.7931 4.25169 14.5368 4.69039L15 3.76393V3C15 2.44772 15.4477 2 16 2C16.5523 2 17 2.44772 17 3V4C17 4.15524 16.9639 4.30836 16.8944 4.44721L16.0703 6.09544C16.6556 6.91416 17 7.91686 17 9V9.12573C17.3939 9.2907 17.7093 9.60605 17.8743 10H18.5858L20.2929 8.29289C20.6834 7.90237 21.3166 7.90237 21.7071 8.29289C22.0976 8.68342 22.0976 9.31658 21.7071 9.70711L19.7071 11.7071C19.5196 11.8946 19.2652 12 19 12H18V14H22C22.5523 14 23 14.4477 23 15C23 15.5523 22.5523 16 22 16H18C18 16.7013 17.8797 17.3744 17.6586 18H19C19.2652 18 19.5196 18.1054 19.7071 18.2929L21.7071 20.2929C22.0976 20.6834 22.0976 21.3166 21.7071 21.7071C21.3166 22.0976 20.6834 22.0976 20.2929 21.7071L18.5858 20H16.4722C15.3736 21.2275 13.777 22 12 22C10.223 22 8.62643 21.2275 7.52779 20H5.41421L3.70711 21.7071C3.31658 22.0976 2.68342 22.0976 2.29289 21.7071C1.90237 21.3166 1.90237 20.6834 2.29289 20.2929L4.29289 18.2929C4.48043 18.1054 4.73478 18 5 18H6.34141C6.12031 17.3744 6 16.7013 6 16H2C1.44772 16 1 15.5523 1 15C1 14.4477 1.44772 14 2 14H6V12H5C4.73478 12 4.48043 11.8946 4.29289 11.7071L2.29289 9.70711C1.90237 9.31658 1.90237 8.68342 2.29289 8.29289C2.68342 7.90237 3.31658 7.90237 3.70711 8.29289L5.41421 10H6.12573C6.2907 9.60605 6.60605 9.2907 7 9.12573V9C7 7.91686 7.34441 6.91416 7.92969 6.09544L7.10557 4.44721C7.03615 4.30836 7 4.15524 7 4V3C7 2.44772 7.44772 2 8 2ZM15 9C15 7.34315 13.6569 6 12 6C10.3431 6 9 7.34315 9 9H15ZM15.2131 18.3828C15.2042 18.3941 15.1956 18.4057 15.1871 18.4174C14.6505 19.1238 13.8844 19.6463 13 19.874V14C13 13.4477 12.5523 13 12 13C11.4477 13 11 13.4477 11 14V19.874C10.1156 19.6463 9.34949 19.1238 8.81288 18.4174C8.80445 18.4057 8.79577 18.3941 8.78686 18.3828C8.29248 17.7172 8 16.8928 8 16V11H16V16C16 16.8928 15.7075 17.7172 15.2131 18.3828Z" fill="currentColor"/>
</svg>
