<svg viewBox="0 0 24 24" fill="none" xmlns="http://www.w3.org/2000/svg">
<path fill-rule="evenodd" clip-rule="evenodd" d="M12 1C11.4477 1 11 1.44772 11 2V3.06946C10.9557 3.07565 10.9115 3.08226 10.8674 3.08928C9.74336 3.26815 8.68717 3.71278 7.83977 4.3907C6.99082 5.06986 6.3778 5.96409 6.12562 6.97834C5.87216 7.99772 6.00596 9.05068 6.49257 9.99052C6.97602 10.9242 7.77466 11.686 8.75073 12.2078C9.43267 12.5723 10.2254 12.8127 11 12.9255V18.9033C10.7961 18.8632 10.5958 18.8108 10.4011 18.7463C9.64189 18.4947 9.02597 18.0791 8.61016 17.5812C8.1975 17.0872 8 16.5366 8 16C8 15.4477 7.55228 15 7 15C6.44771 15 6 15.4477 6 16C6 17.0456 6.38898 18.0418 7.07514 18.8633C7.75814 19.6811 8.70401 20.2908 9.77203 20.6448C10.1701 20.7767 10.5819 20.872 11 20.9305V22C11 22.5523 11.4477 23 12 23C12.5523 23 13 22.5523 13 22V20.9305C13.0443 20.9243 13.0885 20.9177 13.1326 20.9107C14.2566 20.7318 15.3128 20.2872 16.1602 19.6093C17.0092 18.9301 17.6222 18.0359 17.8744 17.0217C18.1278 16.0023 17.994 14.9493 17.5074 14.0095C17.024 13.0758 16.2253 12.314 15.2493 11.7922C14.5598 11.4237 13.7935 11.1805 13 11.0695V5.09673C13.2039 5.1368 13.4042 5.18921 13.5989 5.25372C14.3581 5.50531 14.974 5.92091 15.3898 6.41876C15.8025 6.91282 16 7.46336 16 8C16 8.55228 16.4477 9 17 9C17.5523 9 18 8.55228 18 8C18 6.95439 17.611 5.95821 16.9249 5.13668C16.2419 4.31893 15.296 3.70915 14.228 3.35524C13.8299 3.22333 13.4181 3.12795 13 3.06945V2C13 1.44772 12.5523 1 12 1ZM11 5.09672C10.2582 5.24246 9.59902 5.54455 9.08916 5.95244C8.53959 6.3921 8.20019 6.92333 8.06652 7.46093C7.93413 7.9934 7.99837 8.54897 8.26863 9.07094C8.54206 9.59903 9.02514 10.0867 9.69357 10.444C10.0775 10.6492 10.535 10.8032 11 10.8965V5.09672ZM13 13.0967V18.9033C13.7418 18.7575 14.401 18.4554 14.9108 18.0476C15.4604 17.6079 15.7998 17.0767 15.9335 16.5391C16.0659 16.0066 16.0016 15.451 15.7314 14.9291C15.4579 14.401 14.9749 13.9133 14.3064 13.556C13.911 13.3447 13.4684 13.1888 13 13.0967Z" fill="currentColor"/>
</svg>
