<svg viewBox="0 0 24 24" fill="none" xmlns="http://www.w3.org/2000/svg">
<path fill-rule="evenodd" clip-rule="evenodd" d="M19 11.7695V20C19 20.5523 18.5523 21 18 21C17.4477 21 17 20.5523 17 20V11.7695C15.8348 11.2136 15 9.7134 15 7.95C15 5.71325 16.3431 3 18 3C19.6569 3 21 5.71325 21 7.95C21 9.7134 20.1652 11.2136 19 11.7695ZM15 12.8126C13.6846 11.6334 13 9.77192 13 7.95C13 6.47785 13.4294 4.90157 14.1387 3.65008C14.7784 2.52141 16.0477 1 18 1C19.9523 1 21.2216 2.52141 21.8613 3.65008C22.5706 4.90157 23 6.47785 23 7.95C23 9.77192 22.3154 11.6334 21 12.8126V20C21 21.6569 19.6569 23 18 23C16.3431 23 15 21.6569 15 20V12.8126Z" fill="currentColor"/>
<path fill-rule="evenodd" clip-rule="evenodd" d="M6 1C5.44772 1 5 1.44772 5 2V7H3V2C3 1.44772 2.55229 1 2 1C1.44771 1 1 1.44772 1 2V9C1 10.6376 1.78662 12.0886 3 12.9998V20C3 21.6569 4.34315 23 6 23C7.65685 23 9 21.6569 9 20V12.9998C10.2134 12.0886 11 10.6376 11 9V2C11 1.44772 10.5523 1 10 1C9.44772 1 9 1.44772 9 2V7H7V2C7 1.44772 6.55228 1 6 1ZM8.23611 11C7.90357 11.3715 7.47979 11.6597 7 11.8293V20C7 20.5523 6.55228 21 6 21C5.44772 21 5 20.5523 5 20V11.8293C4.52021 11.6597 4.09643 11.3715 3.76389 11C3.28885 10.4692 3 9.76835 3 9H9C9 9.76835 8.71115 10.4692 8.23611 11Z" fill="currentColor"/>
</svg>
