<svg viewBox="0 0 24 24" fill="none" xmlns="http://www.w3.org/2000/svg">
<path d="M7 10C6.44772 10 6 10.4477 6 11V13C6 13.5523 6.44772 14 7 14C7.55228 14 8 13.5523 8 13V11C8 10.4477 7.55228 10 7 10Z" fill="currentColor"/>
<path fill-rule="evenodd" clip-rule="evenodd" d="M18 12C18 14.2091 16.2091 16 14 16C11.7909 16 10 14.2091 10 12C10 9.79086 11.7909 8 14 8C16.2091 8 18 9.79086 18 12ZM16 12C16 13.1046 15.1046 14 14 14C12.8954 14 12 13.1046 12 12C12 10.8954 12.8954 10 14 10C15.1046 10 16 10.8954 16 12Z" fill="currentColor"/>
<path fill-rule="evenodd" clip-rule="evenodd" d="M2 5C1.44772 5 1 5.44772 1 6V9.87943C1 9.89148 1.0083 9.90194 1.02003 9.90467C3.23697 10.422 3.23697 13.578 1.02003 14.0953C1.0083 14.0981 1 14.1085 1 14.1206V18C1 18.5523 1.44772 19 2 19H22C22.5523 19 23 18.5523 23 18V6C23 5.44772 22.5523 5 22 5H2ZM3 7V8.6336C5.24364 10.2332 5.24364 13.7668 3 15.3664V17H6V16C6 15.4477 6.44772 15 7 15C7.55228 15 8 15.4477 8 16V17H21V7H8V8C8 8.55228 7.55228 9 7 9C6.44772 9 6 8.55228 6 8V7H3Z" fill="currentColor"/>
</svg>
