<svg viewBox="0 0 24 24" fill="none" xmlns="http://www.w3.org/2000/svg">
<path fill-rule="evenodd" clip-rule="evenodd" d="M20.7484 14.1067C20.7364 14.1201 20.7239 14.1333 20.711 14.1462L12.7081 22.1491C12.5205 22.3366 12.2661 22.442 12.0008 22.4419H11.9992C11.7339 22.442 11.4795 22.3366 11.2919 22.1491L3.28896 14.1462C3.27607 14.1333 3.26359 14.1201 3.25155 14.1067L2.51029 13.3654C-0.0901777 10.765 -0.0901815 6.54877 2.51028 3.9483C5.11075 1.34784 9.32693 1.34784 11.9274 3.9483L12 4.0209L12.0726 3.9483C14.6731 1.34784 18.8892 1.34784 21.4897 3.9483C24.0902 6.54877 24.0902 10.765 21.4897 13.3654L20.7484 14.1067Z" fill="currentColor"/>
</svg>
