<svg viewBox="0 0 24 24" fill="none" xmlns="http://www.w3.org/2000/svg">
<path d="M5 18C5 16.3431 6.34315 15 8 15H11C12.6569 15 14 16.3431 14 18C14 18.5523 13.5523 19 13 19C12.4477 19 12 18.5523 12 18C12 17.4477 11.5523 17 11 17H8C7.44772 17 7 17.4477 7 18C7 18.5523 6.55228 19 6 19C5.44772 19 5 18.5523 5 18Z" fill="currentColor"/>
<path d="M15 15C14.4477 15 14 15.4477 14 16C14 16.5523 14.4477 17 15 17H16C16.5523 17 17 17.4477 17 18C17 18.5523 17.4477 19 18 19C18.5523 19 19 18.5523 19 18C19 16.3431 17.6569 15 16 15H15Z" fill="currentColor"/>
<path fill-rule="evenodd" clip-rule="evenodd" d="M6 10.5C6 8.567 7.567 7 9.5 7C11.433 7 13 8.567 13 10.5C13 12.433 11.433 14 9.5 14C7.567 14 6 12.433 6 10.5ZM9.5 9C8.67157 9 8 9.67157 8 10.5C8 11.3284 8.67157 12 9.5 12C10.3284 12 11 11.3284 11 10.5C11 9.67157 10.3284 9 9.5 9Z" fill="currentColor"/>
<path d="M14.5 7C13.9477 7 13.5 7.44771 13.5 8C13.5 8.55228 13.9477 9 14.5 9C14.8978 9 15.2794 9.15804 15.5607 9.43934C15.842 9.72064 16 10.1022 16 10.5C16 10.8978 15.842 11.2794 15.5607 11.5607C15.2794 11.842 14.8978 12 14.5 12C13.9477 12 13.5 12.4477 13.5 13C13.5 13.5523 13.9477 14 14.5 14C15.4283 14 16.3185 13.6313 16.9749 12.9749C17.6313 12.3185 18 11.4283 18 10.5C18 9.57174 17.6313 8.6815 16.9749 8.02513C16.3185 7.36875 15.4283 7 14.5 7Z" fill="currentColor"/>
<path fill-rule="evenodd" clip-rule="evenodd" d="M1.46919 7.17336C1.17513 7.38048 1 7.71895 1 8.08014V21.8931C1 22.5044 1.49249 23 2.1 23H21.9C22.5075 23 23 22.5044 23 21.8931V8.08014C23 7.71895 22.8249 7.38048 22.5308 7.17336L12.6308 0.200086C12.2521 -0.0666957 11.7479 -0.0666953 11.3692 0.200087L1.46919 7.17336ZM20.8 8.65644L12 2.45797L3.2 8.65644V20.7863H20.8V8.65644Z" fill="currentColor"/>
</svg>
