<svg xmlns="http://www.w3.org/2000/svg" fill="none" viewBox="0 0 24 24"><g fill="currentColor" clip-path="url(#a)"><path fill-rule="evenodd" d="M1.707.293A1 1 0 0 0 .293 1.707L8 9.414V12a4.003 4.003 0 0 0 4.78 3.92 4 4 0 0 0 1.25-.476l1.476 1.476a6 6 0 0 1-3.212 1.124 1 1 0 0 0-.588 0A5.998 5.998 0 0 1 6 12.007V10a1 1 0 1 0-2 0v1.996a8 8 0 0 0 7 7.992V22H8a1 1 0 1 0 0 2h8a1 1 0 1 0 0-2h-3v-2.012a8 8 0 0 0 3.934-1.64l5.359 5.36a1 1 0 0 0 1.414-1.415l-5.838-5.838a1 1 0 0 0-.374-.374L1.707.293ZM12.516 13.93 10 11.414V12a2 2 0 0 0 2.516 1.93Z" clip-rule="evenodd"/><path d="M19 9a1 1 0 0 1 1 1v2c0 .471-.043.943-.126 1.407a1 1 0 1 1-1.968-.354c.062-.348.094-.7.094-1.054V10a1 1 0 0 1 1-1ZM12 0a4 4 0 0 0-4 4 1 1 0 1 0 2 0 2 2 0 1 1 4 0v5a1 1 0 1 0 2 0V4a4 4 0 0 0-4-4Z"/></g><defs><clipPath id="a"><path fill="none" d="M0 0h24v24H0z"/></clipPath></defs></svg>