<svg viewBox="0 0 24 24" fill="none" xmlns="http://www.w3.org/2000/svg">
<path fill-rule="evenodd" clip-rule="evenodd" d="M6 1C5.44772 1 5 1.44772 5 2V7H3V2C3 1.44772 2.55229 1 2 1C1.44771 1 1 1.44772 1 2V9C1 10.6376 1.78662 12.0886 3 12.9998V20C3 21.6569 4.34315 23 6 23C7.65685 23 9 21.6569 9 20V12.9998C10.2134 12.0886 11 10.6376 11 9V2C11 1.44772 10.5523 1 10 1C9.44772 1 9 1.44772 9 2V7H7V2C7 1.44772 6.55228 1 6 1ZM8.23611 11C7.90357 11.3715 7.47979 11.6597 7 11.8293V20C7 20.5523 6.55228 21 6 21C5.44772 21 5 20.5523 5 20V11.8293C4.52021 11.6597 4.09643 11.3715 3.76389 11C3.28885 10.4692 3 9.76835 3 9H9C9 9.76835 8.71115 10.4692 8.23611 11Z" fill="currentColor"/>
<path fill-rule="evenodd" clip-rule="evenodd" d="M12.1129 2C12.1129 1.44772 12.5607 1 13.1129 1C14.6431 1 16.1557 1.32588 17.5524 1.95606C18.9489 2.58622 20.1978 3.50635 21.2182 4.6559C22.2384 5.80542 23.0074 7.15864 23.4756 8.62723C23.9438 10.0958 24.101 11.6473 23.9371 13.181C23.7731 14.7148 23.2917 16.1969 22.5236 17.531C21.7555 18.8652 20.7178 20.0216 19.4773 20.9247C18.2368 21.8278 16.8215 22.457 15.3234 22.7709C13.8253 23.0847 12.2785 23.076 10.784 22.7454C10.2447 22.626 9.9043 22.0922 10.0236 21.5529C10.1429 21.0137 10.6768 20.6733 11.216 20.7926C12.4334 21.0619 13.6931 21.069 14.9133 20.8134C16.1336 20.5577 17.2876 20.0449 18.3002 19.3078C19.3129 18.5706 20.1615 17.6254 20.7904 16.5331C21.4192 15.4408 21.814 14.2263 21.9484 12.9685C22.0828 11.7107 21.9539 10.4384 21.5701 9.23474C21.1864 8.03106 20.5566 6.92339 19.7224 5.98354C18.8882 5.04372 17.8684 4.29283 16.7298 3.77907C15.5912 3.26532 14.3589 3 13.1129 3C12.5607 3 12.1129 2.55228 12.1129 2Z" fill="currentColor"/>
<path fill-rule="evenodd" clip-rule="evenodd" d="M12.0099 5.85941C12.0876 5.31261 12.5938 4.93229 13.1406 5.00994L13.0002 5.99871C13.1406 5.00994 13.1405 5.00992 13.1406 5.00994L13.1429 5.01026L13.147 5.01085L13.1605 5.01283L13.2077 5.01997C13.2477 5.02615 13.3045 5.03517 13.3748 5.04702C13.5149 5.07067 13.7104 5.10591 13.9345 5.15269C14.3698 5.24356 14.9633 5.38815 15.4703 5.59402C16.4367 5.98649 17.3084 6.56251 18.0255 7.28966C18.7429 8.01707 19.2898 8.87993 19.6245 9.82468C19.9593 10.7698 20.0726 11.7715 19.9548 12.7628C19.8371 13.7539 19.492 14.7063 18.9471 15.5581C18.4024 16.4095 17.6715 17.1399 16.8072 17.7062C15.9431 18.2724 14.9628 18.6634 13.9309 18.858C12.899 19.0525 11.8343 19.0472 10.8047 18.8421C10.2631 18.7343 9.9114 18.2077 10.0193 17.6661C10.1271 17.1244 10.6537 16.7728 11.1953 16.8806C11.9737 17.0356 12.7799 17.0397 13.5603 16.8926C14.3406 16.7455 15.0732 16.4513 15.7111 16.0333C16.3489 15.6154 16.8757 15.0848 17.2623 14.4804C17.6487 13.8764 17.8876 13.2107 17.9688 12.5269C18.05 11.8433 17.9725 11.1507 17.7393 10.4925C17.506 9.8339 17.1205 9.22022 16.6015 8.69401C16.0823 8.16754 15.4415 7.74095 14.7178 7.44706C14.3797 7.30975 13.9262 7.19408 13.5258 7.11048C13.332 7.07002 13.1624 7.03946 13.0419 7.01913C12.9819 7.009 12.9345 7.00148 12.9029 6.99662L12.868 6.99133L12.8603 6.99019C12.8602 6.99019 12.8593 6.99006 12.8593 6.99005M12.0099 5.85941C11.9323 6.40616 12.3125 6.91233 12.8593 6.99005L12.0099 5.85941Z" fill="currentColor"/>
</svg>
