<svg viewBox="0 0 24 24" fill="none" xmlns="http://www.w3.org/2000/svg">
<path fill-rule="evenodd" clip-rule="evenodd" d="M12 5C12 4.61807 11.7824 4.26949 11.4394 4.10168C11.0963 3.93388 10.6875 3.97616 10.3861 4.21065L1.38606 11.2106C1.14247 11.4001 1 11.6914 1 12C1 12.3086 1.14247 12.5999 1.38606 12.7894L10.3861 19.7894C10.6875 20.0238 11.0963 20.0661 11.4394 19.8983C11.7824 19.7305 12 19.3819 12 19V12C12 12.3086 12.1425 12.5999 12.3861 12.7894L21.3861 19.7894C21.6875 20.0238 22.0963 20.0661 22.4394 19.8983C22.7824 19.7305 23 19.3819 23 19V5C23 4.61807 22.7824 4.26949 22.4394 4.10168C22.0963 3.93388 21.6875 3.97616 21.3861 4.21065L12.3861 11.2106C12.1425 11.4001 12 11.6914 12 12V5ZM10 16.9554L3.62882 12L10 7.04464V16.9554ZM21 16.9554L14.6288 12L21 7.04464V16.9554Z" fill="currentColor"/>
</svg>
