<svg viewBox="0 0 24 24" fill="none" xmlns="http://www.w3.org/2000/svg">
    <path fill-rule="evenodd" clip-rule="evenodd" d="M12 16C14.2091 16 16 14.2091 16 12C16 9.79086 14.2091 8 12 8C9.79086 8 8 9.79086 8 12C8 14.2091 9.79086 16 12 16ZM12 18C15.3137 18 18 15.3137 18 12C18 8.68629 15.3137 6 12 6C8.68629 6 6 8.68629 6 12C6 15.3137 8.68629 18 12 18Z" fill="currentColor"/>
    <path fill-rule="evenodd" clip-rule="evenodd" d="M11.1289 2.03748C11.4162 2.01265 11.7067 2 12 2C12.2933 2 12.5838 2.01265 12.8711 2.03748C13.4213 2.08502 13.8289 2.56962 13.7813 3.11985C13.7338 3.67008 13.2492 4.0776 12.6989 4.03005C12.4688 4.01017 12.2357 4 12 4C11.7643 4 11.5312 4.01017 11.3011 4.03005C10.7508 4.0776 10.2662 3.67008 10.2187 3.11985C10.1711 2.56962 10.5787 2.08502 11.1289 2.03748ZM6.98056 4.46221C7.33577 4.88511 7.28091 5.51589 6.85801 5.87111C6.50117 6.17084 6.17084 6.50117 5.87111 6.85801C5.51589 7.28091 4.88511 7.33577 4.46221 6.98056C4.03932 6.62534 3.98446 5.99455 4.33967 5.57166C4.71386 5.12618 5.12618 4.71386 5.57166 4.33967C5.99455 3.98446 6.62534 4.03932 6.98056 4.46221ZM17.0194 4.46221C17.3747 4.03932 18.0054 3.98446 18.4283 4.33967C18.8738 4.71386 19.2861 5.12618 19.6603 5.57166C20.0155 5.99455 19.9607 6.62534 19.5378 6.98056C19.1149 7.33577 18.4841 7.28091 18.1289 6.85801C17.8292 6.50117 17.4988 6.17084 17.142 5.87111C16.7191 5.51589 16.6642 4.88511 17.0194 4.46221ZM3.11985 10.2187C3.67008 10.2662 4.0776 10.7508 4.03005 11.3011C4.01017 11.5312 4 11.7643 4 12C4 12.2357 4.01017 12.4688 4.03005 12.6989C4.0776 13.2492 3.67008 13.7338 3.11985 13.7813C2.56962 13.8289 2.08502 13.4213 2.03748 12.8711C2.01265 12.5838 2 12.2933 2 12C2 11.7067 2.01265 11.4162 2.03748 11.1289C2.08502 10.5787 2.56962 10.1711 3.11985 10.2187ZM20.8801 10.2187C21.4304 10.1711 21.915 10.5787 21.9625 11.1289C21.9873 11.4162 22 11.7067 22 12C22 12.2933 21.9873 12.5838 21.9625 12.8711C21.915 13.4213 21.4304 13.8289 20.8801 13.7813C20.3299 13.7338 19.9224 13.2492 19.9699 12.6989C19.9898 12.4688 20 12.2357 20 12C20 11.7643 19.9898 11.5312 19.9699 11.3011C19.9224 10.7508 20.3299 10.2662 20.8801 10.2187ZM4.46221 17.0194C4.88511 16.6642 5.51589 16.7191 5.87111 17.142C6.17084 17.4988 6.50117 17.8292 6.85801 18.1289C7.28091 18.4841 7.33577 19.1149 6.98056 19.5378C6.62534 19.9607 5.99455 20.0155 5.57166 19.6603C5.12618 19.2861 4.71386 18.8738 4.33967 18.4283C3.98446 18.0054 4.03932 17.3747 4.46221 17.0194ZM19.5378 17.0194C19.9607 17.3747 20.0155 18.0054 19.6603 18.4283C19.2861 18.8738 18.8738 19.2861 18.4283 19.6603C18.0054 20.0155 17.3747 19.9607 17.0194 19.5378C16.6642 19.1149 16.7191 18.4841 17.142 18.1289C17.4988 17.8292 17.8292 17.4988 18.1289 17.142C18.4841 16.7191 19.1149 16.6642 19.5378 17.0194ZM10.2187 20.8801C10.2662 20.3299 10.7508 19.9224 11.3011 19.9699C11.5312 19.9898 11.7643 20 12 20C12.2357 20 12.4688 19.9898 12.6989 19.9699C13.2492 19.9224 13.7338 20.3299 13.7813 20.8801C13.8289 21.4304 13.4213 21.915 12.8711 21.9625C12.5838 21.9873 12.2933 22 12 22C11.7067 22 11.4162 21.9873 11.1289 21.9625C10.5787 21.915 10.1711 21.4304 10.2187 20.8801Z" fill="currentColor"/>
</svg>
