<svg viewBox="0 0 24 24" fill="none" xmlns="http://www.w3.org/2000/svg">
<path fill-rule="evenodd" clip-rule="evenodd" d="M11.4332 4.09869C11.7797 4.26521 12 4.61559 12 4.99999V19C12 19.3844 11.7797 19.7348 11.4332 19.9013C11.0867 20.0678 10.6755 20.021 10.3753 19.7809L5.64922 16H2C1.44772 16 1 15.5523 1 15V8.99999C1 8.44771 1.44772 7.99999 2 7.99999H5.64922L10.3753 4.21913C10.6755 3.97899 11.0867 3.93217 11.4332 4.09869ZM10 7.08062L6.62469 9.78086C6.44738 9.92271 6.22707 9.99999 6 9.99999H3V14H6C6.22707 14 6.44738 14.0773 6.62469 14.2191L10 16.9194V7.08062Z" fill="currentColor"/>
<path d="M20 13.4142L17.7071 15.7071C17.3166 16.0976 16.6834 16.0976 16.2929 15.7071C15.9024 15.3166 15.9024 14.6834 16.2929 14.2929L18.5858 12L16.2929 9.7071C15.9024 9.31658 15.9024 8.68341 16.2929 8.29289C16.6834 7.90236 17.3166 7.90236 17.7071 8.29289L20 10.5858L22.2929 8.29289C22.6834 7.90236 23.3166 7.90236 23.7071 8.29289C24.0976 8.68341 24.0976 9.31658 23.7071 9.7071L21.4142 12L23.7071 14.2929C24.0976 14.6834 24.0976 15.3166 23.7071 15.7071C23.3166 16.0976 22.6834 16.0976 22.2929 15.7071L20 13.4142Z" fill="currentColor"/>
</svg>
